solid OpenSCAD_Model
  facet normal 0 1 0
    outer loop
      vertex 48.6285 0.4 1.4
      vertex 48.6285 0.4 3.8147e-07
      vertex 36.3248 0.4 1.4
    endloop
  endfacet
  facet normal 0 1 0
    outer loop
      vertex 36.6748 0.4 18.7333
      vertex 36.6748 0.4 10.0667
      vertex 36.3248 0.4 18.7333
    endloop
  endfacet
  facet normal 0 1 -0
    outer loop
      vertex 36.3248 0.4 18.7333
      vertex 34.9248 0.4 27.4
      vertex 36.3248 0.4 27.4
    endloop
  endfacet
  facet normal 0 1 0
    outer loop
      vertex 36.3248 0.4 10.0667
      vertex 36.3248 0.4 18.7333
      vertex 36.6748 0.4 10.0667
    endloop
  endfacet
  facet normal 0 1 0
    outer loop
      vertex 36.3248 0.4 18.7333
      vertex 36.3248 0.4 10.0667
      vertex 34.9248 0.4 27.4
    endloop
  endfacet
  facet normal 0 1 0
    outer loop
      vertex 34.9248 0.4 3.8147e-07
      vertex 36.3248 0.4 10.0667
      vertex 36.3248 0.4 1.4
    endloop
  endfacet
  facet normal 0 1 0
    outer loop
      vertex 36.3248 0.4 10.0667
      vertex 34.9248 0.4 3.8147e-07
      vertex 34.9248 0.4 27.4
    endloop
  endfacet
  facet normal 0 1 0
    outer loop
      vertex 34.9248 0.4 3.8147e-07
      vertex 36.3248 0.4 1.4
      vertex 48.6285 0.4 3.8147e-07
    endloop
  endfacet
  facet normal 0 0 1
    outer loop
      vertex 36.3248 0.4 27.4
      vertex 34.9248 0.4 27.4
      vertex 36.3248 -3 27.4
    endloop
  endfacet
  facet normal -0 0 1
    outer loop
      vertex 36.3248 -3 27.4
      vertex 48.6285 -4.4 27.4
      vertex 48.6285 -3 27.4
    endloop
  endfacet
  facet normal 0 0 1
    outer loop
      vertex 36.3248 -3 27.4
      vertex 34.9248 -4.4 27.4
      vertex 48.6285 -4.4 27.4
    endloop
  endfacet
  facet normal 0 0 1
    outer loop
      vertex 34.9248 -4.4 27.4
      vertex 36.3248 -3 27.4
      vertex 34.9248 0.4 27.4
    endloop
  endfacet
  facet normal 0 0 -1
    outer loop
      vertex 34.9248 -4.4 3.8147e-07
      vertex 48.6285 0.4 3.8147e-07
      vertex 48.6285 -4.4 3.8147e-07
    endloop
  endfacet
  facet normal -0 0 -1
    outer loop
      vertex 48.6285 0.4 3.8147e-07
      vertex 34.9248 -4.4 3.8147e-07
      vertex 34.9248 0.4 3.8147e-07
    endloop
  endfacet
  facet normal 0 -1 0
    outer loop
      vertex 34.9248 -4.4 3.8147e-07
      vertex 48.6285 -4.4 27.4
      vertex 34.9248 -4.4 27.4
    endloop
  endfacet
  facet normal 0 -1 -0
    outer loop
      vertex 48.6285 -4.4 27.4
      vertex 34.9248 -4.4 3.8147e-07
      vertex 48.6285 -4.4 3.8147e-07
    endloop
  endfacet
  facet normal -1 0 0
    outer loop
      vertex 34.9248 -4.4 3.8147e-07
      vertex 34.9248 0.4 27.4
      vertex 34.9248 0.4 3.8147e-07
    endloop
  endfacet
  facet normal -1 -0 0
    outer loop
      vertex 34.9248 0.4 27.4
      vertex 34.9248 -4.4 3.8147e-07
      vertex 34.9248 -4.4 27.4
    endloop
  endfacet
  facet normal 0 0 1
    outer loop
      vertex 48.6285 0.4 1.4
      vertex 36.3248 0.4 1.4
      vertex 48.6285 -0.318441 1.4
    endloop
  endfacet
  facet normal 0 0 1
    outer loop
      vertex 48.6285 -0.318441 1.4
      vertex 50.3248 -2 1.4
      vertex 50.6668 -1.06031 1.4
    endloop
  endfacet
  facet normal 0 0 1
    outer loop
      vertex 48.6285 -0.318441 1.4
      vertex 50.3248 -3 1.4
      vertex 50.3248 -2 1.4
    endloop
  endfacet
  facet normal 0 0 1
    outer loop
      vertex 36.3248 -3 1.4
      vertex 48.6285 -0.318441 1.4
      vertex 36.3248 0.4 1.4
    endloop
  endfacet
  facet normal 0 0 1
    outer loop
      vertex 48.6285 -0.318441 1.4
      vertex 36.3248 -3 1.4
      vertex 50.3248 -3 1.4
    endloop
  endfacet
  facet normal 0 -1 0
    outer loop
      vertex 36.3248 -1 10.0667
      vertex 36.6748 -1 18.7333
      vertex 36.3248 -1 18.7333
    endloop
  endfacet
  facet normal 0 -1 -0
    outer loop
      vertex 36.6748 -1 18.7333
      vertex 36.3248 -1 10.0667
      vertex 36.6748 -1 10.0667
    endloop
  endfacet
  facet normal 1 -0 0
    outer loop
      vertex 36.6748 -1 18.7333
      vertex 36.6748 0.4 10.0667
      vertex 36.6748 0.4 18.7333
    endloop
  endfacet
  facet normal 1 0 0
    outer loop
      vertex 36.6748 0.4 10.0667
      vertex 36.6748 -1 18.7333
      vertex 36.6748 -1 10.0667
    endloop
  endfacet
  facet normal -0 0 1
    outer loop
      vertex 36.3248 0.4 18.7333
      vertex 36.6748 -1 18.7333
      vertex 36.6748 0.4 18.7333
    endloop
  endfacet
  facet normal 0 0 1
    outer loop
      vertex 36.6748 -1 18.7333
      vertex 36.3248 0.4 18.7333
      vertex 36.3248 -1 18.7333
    endloop
  endfacet
  facet normal 1 0 0
    outer loop
      vertex 36.3248 0.4 27.4
      vertex 36.3248 -1 18.7333
      vertex 36.3248 0.4 18.7333
    endloop
  endfacet
  facet normal 1 0 0
    outer loop
      vertex 36.3248 -1 18.7333
      vertex 36.3248 -3 27.4
      vertex 36.3248 -1 10.0667
    endloop
  endfacet
  facet normal 1 -0 0
    outer loop
      vertex 36.3248 -3 27.4
      vertex 36.3248 -1 18.7333
      vertex 36.3248 0.4 27.4
    endloop
  endfacet
  facet normal 1 -0 0
    outer loop
      vertex 36.3248 -1 10.0667
      vertex 36.3248 0.4 1.4
      vertex 36.3248 0.4 10.0667
    endloop
  endfacet
  facet normal 1 0 0
    outer loop
      vertex 36.3248 -1 10.0667
      vertex 36.3248 -3 1.4
      vertex 36.3248 0.4 1.4
    endloop
  endfacet
  facet normal 1 0 0
    outer loop
      vertex 36.3248 -3 1.4
      vertex 36.3248 -1 10.0667
      vertex 36.3248 -3 27.4
    endloop
  endfacet
  facet normal 0 0 -1
    outer loop
      vertex 36.3248 -1 10.0667
      vertex 36.6748 0.4 10.0667
      vertex 36.6748 -1 10.0667
    endloop
  endfacet
  facet normal -0 0 -1
    outer loop
      vertex 36.6748 0.4 10.0667
      vertex 36.3248 -1 10.0667
      vertex 36.3248 0.4 10.0667
    endloop
  endfacet
  facet normal 0 0 -1
    outer loop
      vertex 50.3248 -3 27.4
      vertex 48.6285 -3 27.4
      vertex 50.3248 -2 27.4
    endloop
  endfacet
  facet normal 0 0 -1
    outer loop
      vertex 48.6285 -0.318442 27.4
      vertex 50.3248 -2 27.4
      vertex 48.6285 -3 27.4
    endloop
  endfacet
  facet normal 0 0 -1
    outer loop
      vertex 50.3248 -2 27.4
      vertex 48.6285 -0.318442 27.4
      vertex 50.6668 -1.06031 27.4
    endloop
  endfacet
  facet normal 0 1 -0
    outer loop
      vertex 50.3248 -3 1.4
      vertex 48.6285 -3 27.4
      vertex 50.3248 -3 27.4
    endloop
  endfacet
  facet normal 0 1 0
    outer loop
      vertex 36.3248 -3 1.4
      vertex 48.6285 -3 27.4
      vertex 50.3248 -3 1.4
    endloop
  endfacet
  facet normal 0 1 0
    outer loop
      vertex 48.6285 -3 27.4
      vertex 36.3248 -3 1.4
      vertex 36.3248 -3 27.4
    endloop
  endfacet
  facet normal -1 0 0
    outer loop
      vertex 50.3248 -3 1.4
      vertex 50.3248 -2 27.4
      vertex 50.3248 -2 1.4
    endloop
  endfacet
  facet normal -1 -0 0
    outer loop
      vertex 50.3248 -2 27.4
      vertex 50.3248 -3 1.4
      vertex 50.3248 -3 27.4
    endloop
  endfacet
  facet normal 0 -1 0
    outer loop
      vertex 51.5591 5 10.9
      vertex 52.0115 5 17.9
      vertex 51.5591 5 17.9
    endloop
  endfacet
  facet normal 0 -1 -0
    outer loop
      vertex 52.0115 5 17.9
      vertex 51.5591 5 10.9
      vertex 52.0115 5 10.9
    endloop
  endfacet
  facet normal 0 0 -1
    outer loop
      vertex 50.6668 -1.06031 17.9
      vertex 52.0115 5 17.9
      vertex 52.0115 -1.54976 17.9
    endloop
  endfacet
  facet normal -0 0 -1
    outer loop
      vertex 52.0115 5 17.9
      vertex 50.6668 -1.06031 17.9
      vertex 51.5591 5 17.9
    endloop
  endfacet
  facet normal 0 0 -1
    outer loop
      vertex 48.6285 -0.318442 17.9
      vertex 51.5591 5 17.9
      vertex 50.6668 -1.06031 17.9
    endloop
  endfacet
  facet normal -0 0 -1
    outer loop
      vertex 51.5591 5 17.9
      vertex 48.6285 -0.318442 17.9
      vertex 48.6285 6.06663 17.9
    endloop
  endfacet
  facet normal 0 0 1
    outer loop
      vertex 50.6668 -1.06031 10.9
      vertex 52.0115 5 10.9
      vertex 51.5591 5 10.9
    endloop
  endfacet
  facet normal 0 0 1
    outer loop
      vertex 52.0115 5 10.9
      vertex 50.6668 -1.06031 10.9
      vertex 52.0115 -1.54976 10.9
    endloop
  endfacet
  facet normal 0 0 1
    outer loop
      vertex 48.6285 -0.318442 10.9
      vertex 51.5591 5 10.9
      vertex 48.6285 6.06663 10.9
    endloop
  endfacet
  facet normal 0 0 1
    outer loop
      vertex 51.5591 5 10.9
      vertex 48.6285 -0.318442 10.9
      vertex 50.6668 -1.06031 10.9
    endloop
  endfacet
  facet normal 0.342032 0.939688 -0
    outer loop
      vertex 52.0115 -1.54976 10.9
      vertex 50.6668 -1.06031 17.9
      vertex 52.0115 -1.54976 17.9
    endloop
  endfacet
  facet normal 0.342032 0.939688 0
    outer loop
      vertex 50.6668 -1.06031 17.9
      vertex 52.0115 -1.54976 10.9
      vertex 50.6668 -1.06031 10.9
    endloop
  endfacet
  facet normal -0.342015 -0.939694 0
    outer loop
      vertex 48.6285 -0.318442 17.9
      vertex 50.6668 -1.06031 27.4
      vertex 48.6285 -0.318442 27.4
    endloop
  endfacet
  facet normal -0.342015 -0.939694 -0
    outer loop
      vertex 50.6668 -1.06031 27.4
      vertex 48.6285 -0.318442 17.9
      vertex 50.6668 -1.06031 17.9
    endloop
  endfacet
  facet normal -0.342015 -0.939694 -9.89152e-08
    outer loop
      vertex 48.6285 -0.318441 1.4
      vertex 50.6668 -1.06031 10.9
      vertex 48.6285 -0.318442 10.9
    endloop
  endfacet
  facet normal -0.342015 -0.939694 -0
    outer loop
      vertex 50.6668 -1.06031 10.9
      vertex 48.6285 -0.318441 1.4
      vertex 50.6668 -1.06031 1.4
    endloop
  endfacet
  facet normal -0.939699 0.342003 0
    outer loop
      vertex 50.3248 -2 1.4
      vertex 50.6668 -1.06031 10.9
      vertex 50.6668 -1.06031 1.4
    endloop
  endfacet
  facet normal -0.939699 0.342003 0
    outer loop
      vertex 50.6668 -1.06031 10.9
      vertex 50.3248 -2 1.4
      vertex 50.6668 -1.06031 17.9
    endloop
  endfacet
  facet normal -0.939699 0.342003 0
    outer loop
      vertex 50.3248 -2 27.4
      vertex 50.6668 -1.06031 17.9
      vertex 50.3248 -2 1.4
    endloop
  endfacet
  facet normal -0.939699 0.342003 0
    outer loop
      vertex 50.6668 -1.06031 17.9
      vertex 50.3248 -2 27.4
      vertex 50.6668 -1.06031 27.4
    endloop
  endfacet
  facet normal -0.342014 -0.939695 0
    outer loop
      vertex 48.6285 6.06663 10.9
      vertex 51.5591 5 17.9
      vertex 48.6285 6.06663 17.9
    endloop
  endfacet
  facet normal -0.342014 -0.939695 -0
    outer loop
      vertex 51.5591 5 17.9
      vertex 48.6285 6.06663 10.9
      vertex 51.5591 5 10.9
    endloop
  endfacet
  facet normal -0.951028 -0.309105 0
    outer loop
      vertex 31.6502 50.0487 8.23333
      vertex 31.542 50.3816 15.0667
      vertex 31.542 50.3816 8.23333
    endloop
  endfacet
  facet normal -0.951028 -0.309105 0
    outer loop
      vertex 31.542 50.3816 15.0667
      vertex 31.6502 50.0487 8.23333
      vertex 31.6502 50.0487 15.0667
    endloop
  endfacet
  facet normal -0.951071 -0.308973 -0
    outer loop
      vertex 31.542 50.3816 8.23333
      vertex 31.1851 51.4802 3.8147e-07
      vertex 31.542 50.3816 1.4
    endloop
  endfacet
  facet normal -0.951056 -0.309019 -4.00149e-05
    outer loop
      vertex 31.1851 51.4802 3.8147e-07
      vertex 43.1302 14.717 1.4
      vertex 31.542 50.3816 1.4
    endloop
  endfacet
  facet normal -0.951063 -0.308997 0
    outer loop
      vertex 43.5628 13.3855 3.8147e-07
      vertex 43.1302 14.717 8.23333
      vertex 43.1302 14.717 1.4
    endloop
  endfacet
  facet normal -0.951063 -0.308997 -0
    outer loop
      vertex 43.5628 13.3855 21.9
      vertex 43.1302 14.717 8.23333
      vertex 43.5628 13.3855 3.8147e-07
    endloop
  endfacet
  facet normal -0.951057 -0.309017 2.0335e-05
    outer loop
      vertex 43.5628 13.3855 3.8147e-07
      vertex 43.1302 14.717 1.4
      vertex 31.1851 51.4802 3.8147e-07
    endloop
  endfacet
  facet normal -0.951063 -0.308997 0
    outer loop
      vertex 43.1302 14.717 8.23333
      vertex 43.5628 13.3855 21.9
      vertex 43.1302 14.717 15.0667
    endloop
  endfacet
  facet normal -0.951063 -0.308997 0
    outer loop
      vertex 43.1302 14.717 15.0667
      vertex 43.5628 13.3855 21.9
      vertex 43.1302 14.717 21.9
    endloop
  endfacet
  facet normal -0.951071 -0.308973 0
    outer loop
      vertex 31.1851 51.4802 3.8147e-07
      vertex 31.542 50.3816 8.23333
      vertex 31.1851 51.4802 21.9
    endloop
  endfacet
  facet normal -0.951071 -0.308973 -0
    outer loop
      vertex 31.542 50.3816 15.0667
      vertex 31.1851 51.4802 21.9
      vertex 31.542 50.3816 8.23333
    endloop
  endfacet
  facet normal -0.951071 -0.308973 0
    outer loop
      vertex 31.1851 51.4802 21.9
      vertex 31.542 50.3816 15.0667
      vertex 31.542 50.3816 21.9
    endloop
  endfacet
  facet normal -0.951028 -0.309105 0
    outer loop
      vertex 43.1302 14.717 8.23333
      vertex 43.022 15.0499 15.0667
      vertex 43.022 15.0499 8.23333
    endloop
  endfacet
  facet normal -0.951028 -0.309105 0
    outer loop
      vertex 43.022 15.0499 15.0667
      vertex 43.1302 14.717 8.23333
      vertex 43.1302 14.717 15.0667
    endloop
  endfacet
  facet normal 0 0 1
    outer loop
      vertex 43.1302 14.717 21.9
      vertex 47.807 14.7645 21.9
      vertex 47.5587 16.1559 21.9
    endloop
  endfacet
  facet normal 0 0 1
    outer loop
      vertex 47.807 14.7645 21.9
      vertex 43.1302 14.717 21.9
      vertex 43.5628 13.3855 21.9
    endloop
  endfacet
  facet normal 0 0 1
    outer loop
      vertex 34.9231 51.4802 21.9
      vertex 32.7889 51.4161 21.9
      vertex 34.5379 51.355 21.9
    endloop
  endfacet
  facet normal 0 0 1
    outer loop
      vertex 32.7889 51.4161 21.9
      vertex 31.542 50.3816 21.9
      vertex 32.7667 50.7795 21.9
    endloop
  endfacet
  facet normal 0 0 1
    outer loop
      vertex 32.7889 51.4161 21.9
      vertex 31.1851 51.4802 21.9
      vertex 31.542 50.3816 21.9
    endloop
  endfacet
  facet normal -0 0 1
    outer loop
      vertex 31.1851 51.4802 21.9
      vertex 32.7889 51.4161 21.9
      vertex 34.9231 51.4802 21.9
    endloop
  endfacet
  facet normal 0 0 1
    outer loop
      vertex 36.5762 50.7448 21.9
      vertex 46.9354 19.6489 21.9
      vertex 45.4534 27.9539 21.9
    endloop
  endfacet
  facet normal 0 0 1
    outer loop
      vertex 36.5762 50.7448 21.9
      vertex 45.4534 27.9539 21.9
      vertex 40.4328 43.4059 21.9
    endloop
  endfacet
  facet normal 0 0 1
    outer loop
      vertex 36.7286 50.64 21.9
      vertex 40.4328 43.4059 21.9
      vertex 37.8369 49.8775 21.9
    endloop
  endfacet
  facet normal 0 0 1
    outer loop
      vertex 36.5762 50.7448 21.9
      vertex 40.4328 43.4059 21.9
      vertex 36.7286 50.64 21.9
    endloop
  endfacet
  facet normal 0 0 1
    outer loop
      vertex 46.9354 19.6489 21.9
      vertex 36.5762 50.7448 21.9
      vertex 47.2467 17.9044 21.9
    endloop
  endfacet
  facet normal 0 0 -1
    outer loop
      vertex 43.5628 13.3855 3.8147e-07
      vertex 45.6725 26.7263 3.8147e-07
      vertex 47.807 14.7645 3.8147e-07
    endloop
  endfacet
  facet normal 0 0 -1
    outer loop
      vertex 43.5628 13.3855 3.8147e-07
      vertex 45.4534 27.9539 3.8147e-07
      vertex 45.6725 26.7263 3.8147e-07
    endloop
  endfacet
  facet normal 0 0 -1
    outer loop
      vertex 31.1851 51.4802 3.8147e-07
      vertex 45.4534 27.9539 3.8147e-07
      vertex 43.5628 13.3855 3.8147e-07
    endloop
  endfacet
  facet normal 0 0 -1
    outer loop
      vertex 45.4534 27.9539 3.8147e-07
      vertex 31.1851 51.4802 3.8147e-07
      vertex 40.4328 43.4058 3.8147e-07
    endloop
  endfacet
  facet normal 0 0 -1
    outer loop
      vertex 40.4328 43.4058 3.8147e-07
      vertex 31.1851 51.4802 3.8147e-07
      vertex 38.7891 47.5035 3.8147e-07
    endloop
  endfacet
  facet normal -0 -0 -1
    outer loop
      vertex 35.5072 51.4802 3.8147e-07
      vertex 38.7891 47.5035 3.8147e-07
      vertex 31.1851 51.4802 3.8147e-07
    endloop
  endfacet
  facet normal 0 0 -1
    outer loop
      vertex 38.7891 47.5035 3.8147e-07
      vertex 37.4895 50.1165 3.8147e-07
      vertex 37.8369 49.8775 3.8147e-07
    endloop
  endfacet
  facet normal 0 0 -1
    outer loop
      vertex 38.7891 47.5035 3.8147e-07
      vertex 35.5072 51.4802 3.8147e-07
      vertex 37.4895 50.1165 3.8147e-07
    endloop
  endfacet
  facet normal 0.951058 0.309014 0
    outer loop
      vertex 45.4534 27.9539 21.9
      vertex 40.4328 43.4059 17.2589
      vertex 40.4328 43.4059 21.9
    endloop
  endfacet
  facet normal 0.951057 0.309016 -1.79047e-06
    outer loop
      vertex 40.4328 43.4059 17.2589
      vertex 45.4534 27.9539 3.8147e-07
      vertex 40.4328 43.4058 3.8147e-07
    endloop
  endfacet
  facet normal 0.951058 0.309014 0
    outer loop
      vertex 40.4328 43.4059 17.2589
      vertex 45.4534 27.9539 21.9
      vertex 45.4534 27.9539 3.8147e-07
    endloop
  endfacet
  facet normal 0.309012 -0.951058 0
    outer loop
      vertex 43.5628 13.3855 3.8147e-07
      vertex 47.807 14.7645 21.9
      vertex 43.5628 13.3855 21.9
    endloop
  endfacet
  facet normal 0.309012 -0.951058 0
    outer loop
      vertex 47.807 14.7645 21.9
      vertex 43.5628 13.3855 3.8147e-07
      vertex 47.807 14.7645 3.8147e-07
    endloop
  endfacet
  facet normal -0 0 1
    outer loop
      vertex 34.5379 51.355 1.4
      vertex 47.7903 16.2312 1.4
      vertex 36.2022 51.8958 1.4
    endloop
  endfacet
  facet normal 0 0 1
    outer loop
      vertex 47.7903 16.2312 1.4
      vertex 34.5379 51.355 1.4
      vertex 43.1302 14.717 1.4
    endloop
  endfacet
  facet normal 0 0 1
    outer loop
      vertex 32.7667 50.7795 1.4
      vertex 34.5379 51.355 1.4
      vertex 32.7889 51.4161 1.4
    endloop
  endfacet
  facet normal 0 0 1
    outer loop
      vertex 34.5379 51.355 1.4
      vertex 32.7667 50.7795 1.4
      vertex 43.1302 14.717 1.4
    endloop
  endfacet
  facet normal 0 0 1
    outer loop
      vertex 43.1302 14.717 1.4
      vertex 32.7667 50.7795 1.4
      vertex 31.542 50.3816 1.4
    endloop
  endfacet
  facet normal 0.951112 0.308847 0
    outer loop
      vertex 44.4616 15.1496 15.0667
      vertex 44.3535 15.4825 8.23333
      vertex 44.3535 15.4825 15.0667
    endloop
  endfacet
  facet normal 0.951112 0.308847 0
    outer loop
      vertex 44.3535 15.4825 8.23333
      vertex 44.4616 15.1496 15.0667
      vertex 44.4616 15.1496 8.23333
    endloop
  endfacet
  facet normal 0.309057 -0.951044 0
    outer loop
      vertex 31.6502 50.0487 8.23333
      vertex 32.7537 50.4073 15.0667
      vertex 31.6502 50.0487 15.0667
    endloop
  endfacet
  facet normal 0.309057 -0.951044 0
    outer loop
      vertex 32.7537 50.4073 15.0667
      vertex 31.6502 50.0487 8.23333
      vertex 32.7537 50.4073 8.23333
    endloop
  endfacet
  facet normal -0.308997 0.951063 0
    outer loop
      vertex 44.3535 15.4825 8.23333
      vertex 43.022 15.0499 15.0667
      vertex 44.3535 15.4825 15.0667
    endloop
  endfacet
  facet normal -0.308997 0.951063 0
    outer loop
      vertex 43.022 15.0499 15.0667
      vertex 44.3535 15.4825 8.23333
      vertex 43.022 15.0499 8.23333
    endloop
  endfacet
  facet normal 0 0 1
    outer loop
      vertex 31.542 50.3816 15.0667
      vertex 32.7537 50.4073 15.0667
      vertex 32.7667 50.7795 15.0667
    endloop
  endfacet
  facet normal 0 0 1
    outer loop
      vertex 32.7537 50.4073 15.0667
      vertex 31.542 50.3816 15.0667
      vertex 31.6502 50.0487 15.0667
    endloop
  endfacet
  facet normal 0 0 1
    outer loop
      vertex 44.3535 15.4825 15.0667
      vertex 43.1302 14.717 15.0667
      vertex 44.4616 15.1496 15.0667
    endloop
  endfacet
  facet normal 0 -0 1
    outer loop
      vertex 43.1302 14.717 15.0667
      vertex 44.3535 15.4825 15.0667
      vertex 43.022 15.0499 15.0667
    endloop
  endfacet
  facet normal 0.308997 -0.951063 0
    outer loop
      vertex 31.542 50.3816 15.0667
      vertex 32.7667 50.7795 21.9
      vertex 31.542 50.3816 21.9
    endloop
  endfacet
  facet normal 0.308997 -0.951063 0
    outer loop
      vertex 32.7667 50.7795 21.9
      vertex 31.542 50.3816 15.0667
      vertex 32.7667 50.7795 15.0667
    endloop
  endfacet
  facet normal -0.309197 0.950998 9.1669e-05
    outer loop
      vertex 44.4616 15.1496 15.0667
      vertex 47.5587 16.1559 21.9
      vertex 47.7903 16.2312 21.9
    endloop
  endfacet
  facet normal -0.309016 0.951057 5.54393e-07
    outer loop
      vertex 47.5587 16.1559 21.9
      vertex 44.4616 15.1496 15.0667
      vertex 43.1302 14.717 21.9
    endloop
  endfacet
  facet normal -0.309027 0.951053 0
    outer loop
      vertex 47.7903 16.2312 21.9
      vertex 44.4616 15.1496 8.23333
      vertex 44.4616 15.1496 15.0667
    endloop
  endfacet
  facet normal -0.309027 0.951053 0
    outer loop
      vertex 47.7903 16.2312 1.4
      vertex 44.4616 15.1496 8.23333
      vertex 47.7903 16.2312 21.9
    endloop
  endfacet
  facet normal -0.309025 0.951054 1.39235e-06
    outer loop
      vertex 43.1302 14.717 1.4
      vertex 44.4616 15.1496 8.23333
      vertex 47.7903 16.2312 1.4
    endloop
  endfacet
  facet normal -0.309018 0.951056 0
    outer loop
      vertex 44.4616 15.1496 8.23333
      vertex 43.1302 14.717 1.4
      vertex 43.1302 14.717 8.23333
    endloop
  endfacet
  facet normal -0.309018 0.951056 0
    outer loop
      vertex 43.1302 14.717 21.9
      vertex 44.4616 15.1496 15.0667
      vertex 43.1302 14.717 15.0667
    endloop
  endfacet
  facet normal 0 0 -1
    outer loop
      vertex 31.542 50.3816 8.23333
      vertex 32.7537 50.4073 8.23333
      vertex 31.6502 50.0487 8.23333
    endloop
  endfacet
  facet normal -0 0 -1
    outer loop
      vertex 32.7537 50.4073 8.23333
      vertex 31.542 50.3816 8.23333
      vertex 32.7667 50.7795 8.23333
    endloop
  endfacet
  facet normal 0 0 -1
    outer loop
      vertex 43.1302 14.717 8.23333
      vertex 44.3535 15.4825 8.23333
      vertex 44.4616 15.1496 8.23333
    endloop
  endfacet
  facet normal 0 0 -1
    outer loop
      vertex 44.3535 15.4825 8.23333
      vertex 43.1302 14.717 8.23333
      vertex 43.022 15.0499 8.23333
    endloop
  endfacet
  facet normal 0.308997 -0.951063 0
    outer loop
      vertex 31.542 50.3816 1.4
      vertex 32.7667 50.7795 8.23333
      vertex 31.542 50.3816 8.23333
    endloop
  endfacet
  facet normal 0.308997 -0.951063 0
    outer loop
      vertex 32.7667 50.7795 8.23333
      vertex 31.542 50.3816 1.4
      vertex 32.7667 50.7795 1.4
    endloop
  endfacet
  facet normal 0 0 -1
    outer loop
      vertex 47.5587 16.1559 21.9
      vertex 47.2467 17.9044 21.9
      vertex 47.7903 16.2312 21.9
    endloop
  endfacet
  facet normal 0 0 -1
    outer loop
      vertex 35.5072 51.4802 21.9
      vertex 36.2022 51.8958 21.9
      vertex 36.5762 50.7448 21.9
    endloop
  endfacet
  facet normal 0 0 -1
    outer loop
      vertex 36.2022 51.8958 21.9
      vertex 35.5072 51.4802 21.9
      vertex 34.9231 51.4802 21.9
    endloop
  endfacet
  facet normal -0.951052 -0.30903 0
    outer loop
      vertex 36.2022 51.8958 1.4
      vertex 36.5762 50.7448 21.9
      vertex 36.2022 51.8958 21.9
    endloop
  endfacet
  facet normal -0.951056 -0.309017 7.96893e-07
    outer loop
      vertex 36.2022 51.8958 1.4
      vertex 47.2467 17.9044 21.9
      vertex 36.5762 50.7448 21.9
    endloop
  endfacet
  facet normal -0.951057 -0.309016 2.51364e-06
    outer loop
      vertex 47.7903 16.2312 1.4
      vertex 47.2467 17.9044 21.9
      vertex 36.2022 51.8958 1.4
    endloop
  endfacet
  facet normal -0.951066 -0.308988 0
    outer loop
      vertex 47.2467 17.9044 21.9
      vertex 47.7903 16.2312 1.4
      vertex 47.7903 16.2312 21.9
    endloop
  endfacet
  facet normal 0.309108 -0.951027 0
    outer loop
      vertex 34.5379 51.355 1.4
      vertex 34.9231 51.4802 21.9
      vertex 34.5379 51.355 21.9
    endloop
  endfacet
  facet normal 0.309036 -0.95105 1.51084e-06
    outer loop
      vertex 36.2022 51.8958 1.4
      vertex 34.9231 51.4802 21.9
      vertex 34.5379 51.355 1.4
    endloop
  endfacet
  facet normal 0.309014 -0.951058 0
    outer loop
      vertex 34.9231 51.4802 21.9
      vertex 36.2022 51.8958 1.4
      vertex 36.2022 51.8958 21.9
    endloop
  endfacet
  facet normal 0.999391 -0.0349062 0
    outer loop
      vertex 32.7537 50.4073 15.0667
      vertex 32.7667 50.7795 8.23333
      vertex 32.7667 50.7795 15.0667
    endloop
  endfacet
  facet normal 0.999391 -0.0349062 0
    outer loop
      vertex 32.7667 50.7795 8.23333
      vertex 32.7537 50.4073 15.0667
      vertex 32.7537 50.4073 8.23333
    endloop
  endfacet
  facet normal 0.999392 -0.0348516 0
    outer loop
      vertex 32.7667 50.7795 15.0667
      vertex 32.7889 51.4161 21.9
      vertex 32.7667 50.7795 21.9
    endloop
  endfacet
  facet normal 0.999392 -0.0348516 0
    outer loop
      vertex 32.7889 51.4161 21.9
      vertex 32.7667 50.7795 15.0667
      vertex 32.7889 51.4161 1.4
    endloop
  endfacet
  facet normal 0.999392 -0.0348516 0
    outer loop
      vertex 32.7667 50.7795 8.23333
      vertex 32.7889 51.4161 1.4
      vertex 32.7667 50.7795 15.0667
    endloop
  endfacet
  facet normal 0.999392 -0.0348516 0
    outer loop
      vertex 32.7889 51.4161 1.4
      vertex 32.7667 50.7795 8.23333
      vertex 32.7667 50.7795 1.4
    endloop
  endfacet
  facet normal -0.034913 -0.99939 0
    outer loop
      vertex 32.7889 51.4161 1.4
      vertex 34.5379 51.355 21.9
      vertex 32.7889 51.4161 21.9
    endloop
  endfacet
  facet normal -0.034913 -0.99939 -0
    outer loop
      vertex 34.5379 51.355 21.9
      vertex 32.7889 51.4161 1.4
      vertex 34.5379 51.355 1.4
    endloop
  endfacet
  facet normal 0 1 0
    outer loop
      vertex 21.6175 54.9577 0
      vertex 26.1302 54.9577 29
      vertex 33.6241 54.9577 0
    endloop
  endfacet
  facet normal 0 1 0
    outer loop
      vertex 26.1302 54.9577 29
      vertex 21.6175 54.9577 0
      vertex 21.6175 54.9577 29
    endloop
  endfacet
  facet normal 0 1 -0
    outer loop
      vertex 36.2082 54.9577 0
      vertex 36.1584 54.9577 29
      vertex 36.2082 54.9577 29
    endloop
  endfacet
  facet normal 0 1 0
    outer loop
      vertex 36.1584 54.9577 29
      vertex 36.2082 54.9577 0
      vertex 36.1954 54.9577 0
    endloop
  endfacet
  facet normal 0 1 0
    outer loop
      vertex 33.6241 54.9577 0
      vertex 36.1584 54.9577 29
      vertex 36.1954 54.9577 0
    endloop
  endfacet
  facet normal 0 1 0
    outer loop
      vertex 36.1584 54.9577 29
      vertex 33.6241 54.9577 0
      vertex 26.1302 54.9577 29
    endloop
  endfacet
  facet normal 0 -1 0
    outer loop
      vertex 20.9166 51.4802 29
      vertex 31.1851 51.4802 21.9
      vertex 35.5072 51.4802 29
    endloop
  endfacet
  facet normal 0 -1 0
    outer loop
      vertex 20.9165 51.4802 0
      vertex 31.1851 51.4802 21.9
      vertex 20.9166 51.4802 29
    endloop
  endfacet
  facet normal 0 -1 -0
    outer loop
      vertex 31.1851 51.4802 21.9
      vertex 20.9165 51.4802 0
      vertex 31.1851 51.4802 3.8147e-07
    endloop
  endfacet
  facet normal 0 -1 0
    outer loop
      vertex 35.5072 51.4802 0
      vertex 31.1851 51.4802 3.8147e-07
      vertex 20.9165 51.4802 0
    endloop
  endfacet
  facet normal 0 -1 0
    outer loop
      vertex 31.1851 51.4802 3.8147e-07
      vertex 35.5072 51.4802 0
      vertex 35.5072 51.4802 3.8147e-07
    endloop
  endfacet
  facet normal 0 -1 0
    outer loop
      vertex 34.9231 51.4802 21.9
      vertex 35.5072 51.4802 29
      vertex 31.1851 51.4802 21.9
    endloop
  endfacet
  facet normal 0 -1 -0
    outer loop
      vertex 35.5072 51.4802 29
      vertex 34.9231 51.4802 21.9
      vertex 35.5072 51.4802 21.9
    endloop
  endfacet
  facet normal 0 1 -0
    outer loop
      vertex 20.5587 56.8943 0
      vertex 20.4945 56.8943 29
      vertex 20.5587 56.8943 29
    endloop
  endfacet
  facet normal 0 1 0
    outer loop
      vertex 20.4945 56.8943 29
      vertex 20.5587 56.8943 0
      vertex 20.5422 56.8943 0
    endloop
  endfacet
  facet normal 0 1 0
    outer loop
      vertex 20.5422 56.8943 0
      vertex 20 56.8943 29
      vertex 20.4945 56.8943 29
    endloop
  endfacet
  facet normal 0 1 0
    outer loop
      vertex 20 56.8943 29
      vertex 20.5422 56.8943 0
      vertex 20 56.8943 0
    endloop
  endfacet
  facet normal 0.877416 0.479729 -1.98682e-07
    outer loop
      vertex 21.6175 54.9577 29
      vertex 21.4211 55.3169 0
      vertex 20.8515 56.3587 29
    endloop
  endfacet
  facet normal 0.87741 0.479742 0
    outer loop
      vertex 21.4211 55.3169 0
      vertex 21.6175 54.9577 29
      vertex 21.6175 54.9577 0
    endloop
  endfacet
  facet normal 0.877444 0.479678 0
    outer loop
      vertex 20.8515 56.3587 29
      vertex 20.5587 56.8943 0
      vertex 20.5587 56.8943 29
    endloop
  endfacet
  facet normal 0.877427 0.479709 7.42689e-07
    outer loop
      vertex 20.5587 56.8943 0
      vertex 20.8515 56.3587 29
      vertex 21.4211 55.3169 0
    endloop
  endfacet
  facet normal -0.890533 -0.454919 1.56869e-06
    outer loop
      vertex 20.0919 53.0941 0
      vertex 20 53.2741 29
      vertex 20 53.274 0
    endloop
  endfacet
  facet normal -0.890493 -0.454996 2.17064e-06
    outer loop
      vertex 20 53.2741 29
      vertex 20.0919 53.0941 0
      vertex 20.5927 52.1141 29
    endloop
  endfacet
  facet normal -0.890498 -0.454988 2.5328e-06
    outer loop
      vertex 20.9165 51.4802 0
      vertex 20.5927 52.1141 29
      vertex 20.0919 53.0941 0
    endloop
  endfacet
  facet normal -0.890488 -0.455007 3.07065e-06
    outer loop
      vertex 20.5927 52.1141 29
      vertex 20.9165 51.4802 0
      vertex 20.9166 51.4802 29
    endloop
  endfacet
  facet normal -0.928117 -0.372288 0
    outer loop
      vertex 40.4328 43.4059 21.9
      vertex 37.8369 49.8775 29
      vertex 37.8369 49.8775 21.9
    endloop
  endfacet
  facet normal -0.928116 -0.372291 2.99695e-06
    outer loop
      vertex 40.4328 43.4059 21.9
      vertex 41.551 40.6183 29
      vertex 37.8369 49.8775 29
    endloop
  endfacet
  facet normal -0.928113 -0.372297 0
    outer loop
      vertex 41.551 40.6183 29
      vertex 40.4328 43.4059 21.9
      vertex 40.4328 43.4059 17.2589
    endloop
  endfacet
  facet normal -0.928126 -0.372267 0
    outer loop
      vertex 38.7891 47.5035 0
      vertex 37.8369 49.8775 3.8147e-07
      vertex 37.8369 49.8775 0
    endloop
  endfacet
  facet normal -0.928126 -0.372267 0
    outer loop
      vertex 37.8369 49.8775 3.8147e-07
      vertex 38.7891 47.5035 0
      vertex 38.7891 47.5035 3.8147e-07
    endloop
  endfacet
  facet normal -0.928115 -0.372293 0
    outer loop
      vertex 38.7891 47.5035 0
      vertex 40.4328 43.4058 3.8147e-07
      vertex 38.7891 47.5035 3.8147e-07
    endloop
  endfacet
  facet normal -0.928115 -0.372293 1.35432e-06
    outer loop
      vertex 40.4328 43.4059 17.2589
      vertex 43.3655 36.0948 29
      vertex 41.551 40.6183 29
    endloop
  endfacet
  facet normal -0.928115 -0.372293 1.28377e-06
    outer loop
      vertex 40.4328 43.4059 17.2589
      vertex 43.3655 36.0947 0
      vertex 43.3655 36.0948 29
    endloop
  endfacet
  facet normal -0.0622821 -0.0249831 -0.997746
    outer loop
      vertex 43.3655 36.0947 0
      vertex 40.4328 43.4058 3.8147e-07
      vertex 38.7891 47.5035 0
    endloop
  endfacet
  facet normal -0.928115 -0.372294 2.15712e-06
    outer loop
      vertex 43.3655 36.0947 0
      vertex 40.4328 43.4059 17.2589
      vertex 40.4328 43.4058 3.8147e-07
    endloop
  endfacet
  facet normal 0.927482 0.373869 2.72716e-06
    outer loop
      vertex 46.4604 37.8093 29
      vertex 46.4338 37.8755 0
      vertex 46.45 37.8351 29
    endloop
  endfacet
  facet normal 0.927896 0.37284 0
    outer loop
      vertex 46.4338 37.8755 0
      vertex 46.4604 37.8093 29
      vertex 46.4604 37.8093 0
    endloop
  endfacet
  facet normal 0.928116 0.372292 -6.54084e-07
    outer loop
      vertex 40.8864 51.7052 29
      vertex 41.8403 49.3271 0
      vertex 40.8723 51.7403 0
    endloop
  endfacet
  facet normal 0.928118 0.372287 -1.04907e-07
    outer loop
      vertex 41.8403 49.3271 0
      vertex 40.8864 51.7052 29
      vertex 44.6615 42.2938 29
    endloop
  endfacet
  facet normal 0.928117 0.372289 5.85857e-07
    outer loop
      vertex 44.6615 42.2938 29
      vertex 46.4338 37.8755 0
      vertex 41.8403 49.3271 0
    endloop
  endfacet
  facet normal 0.928116 0.372291 1.75571e-07
    outer loop
      vertex 46.4338 37.8755 0
      vertex 44.6615 42.2938 29
      vertex 46.45 37.8351 29
    endloop
  endfacet
  facet normal 0.929533 0.36874 0
    outer loop
      vertex 40.8675 51.7524 29
      vertex 40.8723 51.7403 0
      vertex 40.8675 51.7524 0
    endloop
  endfacet
  facet normal 0.928341 0.37173 -1.4446e-06
    outer loop
      vertex 40.8723 51.7403 0
      vertex 40.8675 51.7524 29
      vertex 40.8864 51.7052 29
    endloop
  endfacet
  facet normal -0.984452 -0.175653 -0
    outer loop
      vertex 45.4534 27.9539 21.9
      vertex 45.1128 29.8628 0
      vertex 45.4534 27.9539 3.8147e-07
    endloop
  endfacet
  facet normal -0.0100177 -0.00178764 -0.999948
    outer loop
      vertex 45.6725 26.7263 0
      vertex 45.4534 27.9539 3.8147e-07
      vertex 45.1128 29.8628 0
    endloop
  endfacet
  facet normal -0.984443 -0.175702 0
    outer loop
      vertex 45.4534 27.9539 3.8147e-07
      vertex 45.6725 26.7263 0
      vertex 45.6725 26.7263 3.8147e-07
    endloop
  endfacet
  facet normal -0.984452 -0.175653 0
    outer loop
      vertex 45.1128 29.8628 0
      vertex 45.4534 27.9539 21.9
      vertex 45.1128 29.8628 29
    endloop
  endfacet
  facet normal -0.984449 -0.175672 5.12213e-06
    outer loop
      vertex 46.9354 19.6489 21.9
      vertex 45.1128 29.8628 29
      vertex 45.4534 27.9539 21.9
    endloop
  endfacet
  facet normal -0.98445 -0.175665 -4.26815e-06
    outer loop
      vertex 45.1128 29.8628 29
      vertex 46.9354 19.6489 21.9
      vertex 47.3448 17.3544 29
    endloop
  endfacet
  facet normal 0.984363 0.176149 0
    outer loop
      vertex 51.3264 14.4849 29
      vertex 51.3298 14.4659 0
      vertex 51.3264 14.4849 0
    endloop
  endfacet
  facet normal 0.984313 0.176433 -1.92123e-07
    outer loop
      vertex 51.3298 14.4659 0
      vertex 51.3264 14.4849 29
      vertex 51.3397 14.4107 29
    endloop
  endfacet
  facet normal 0.98445 0.175665 9.86931e-07
    outer loop
      vertex 49.2392 26.1821 29
      vertex 48.3999 30.8858 0
      vertex 48.4089 30.8352 29
    endloop
  endfacet
  facet normal 0.98445 0.175667 1.17861e-06
    outer loop
      vertex 48.3999 30.8858 0
      vertex 49.2392 26.1821 29
      vertex 50.7913 17.4842 0
    endloop
  endfacet
  facet normal 0.984497 0.175399 0
    outer loop
      vertex 48.3968 30.9032 29
      vertex 48.3999 30.8858 0
      vertex 48.3968 30.9032 0
    endloop
  endfacet
  facet normal 0.984535 0.175189 1.29807e-07
    outer loop
      vertex 48.3999 30.8858 0
      vertex 48.3968 30.9032 29
      vertex 48.4089 30.8352 29
    endloop
  endfacet
  facet normal 0.984451 0.175661 2.80704e-06
    outer loop
      vertex 51.3264 14.4849 29
      vertex 50.7913 17.4842 0
      vertex 49.2392 26.1821 29
    endloop
  endfacet
  facet normal 0.984455 0.175635 0
    outer loop
      vertex 50.7913 17.4842 0
      vertex 51.3264 14.4849 29
      vertex 51.3264 14.4849 0
    endloop
  endfacet
  facet normal 0.984398 0.175955 -1.13149e-06
    outer loop
      vertex 51.3434 14.39 29
      vertex 51.3298 14.4659 0
      vertex 51.3397 14.4107 29
    endloop
  endfacet
  facet normal 0.984323 0.176374 0
    outer loop
      vertex 51.3298 14.4659 0
      vertex 51.3434 14.39 29
      vertex 51.3434 14.39 0
    endloop
  endfacet
  facet normal -0.984449 -0.175668 0
    outer loop
      vertex 45.6725 26.7263 0
      vertex 47.807 14.7645 3.8147e-07
      vertex 45.6725 26.7263 3.8147e-07
    endloop
  endfacet
  facet normal -0.984451 -0.17566 0
    outer loop
      vertex 47.807 14.7645 21.9
      vertex 48.0256 13.5394 0
      vertex 48.0256 13.5394 29
    endloop
  endfacet
  facet normal -0.0397431 -0.00709184 0.999185
    outer loop
      vertex 48.0256 13.5394 0
      vertex 47.807 14.7645 3.8147e-07
      vertex 45.6725 26.7263 0
    endloop
  endfacet
  facet normal -0.984449 -0.175671 -6.32272e-06
    outer loop
      vertex 47.2467 17.9044 21.9
      vertex 47.3448 17.3544 29
      vertex 46.9354 19.6489 21.9
    endloop
  endfacet
  facet normal -0.98445 -0.175664 -5.72145e-06
    outer loop
      vertex 47.5587 16.1559 21.9
      vertex 47.3448 17.3544 29
      vertex 47.2467 17.9044 21.9
    endloop
  endfacet
  facet normal -0.984448 -0.175678 -3.27952e-06
    outer loop
      vertex 47.807 14.7645 21.9
      vertex 47.3448 17.3544 29
      vertex 47.5587 16.1559 21.9
    endloop
  endfacet
  facet normal -0.984448 -0.175678 -3.23758e-06
    outer loop
      vertex 47.807 14.7645 21.9
      vertex 48.0256 13.5394 29
      vertex 47.3448 17.3544 29
    endloop
  endfacet
  facet normal -0.984451 -0.17566 0
    outer loop
      vertex 48.0256 13.5394 0
      vertex 47.807 14.7645 21.9
      vertex 47.807 14.7645 3.8147e-07
    endloop
  endfacet
  facet normal 1 0 0
    outer loop
      vertex 52.0115 6.7 29
      vertex 52.0115 5 17.9
      vertex 52.0115 6.7 0
    endloop
  endfacet
  facet normal 1 0 0
    outer loop
      vertex 52.0115 6.7 29
      vertex 52.0115 -1.54976 17.9
      vertex 52.0115 5 17.9
    endloop
  endfacet
  facet normal 1 0 0
    outer loop
      vertex 52.0115 -1.54976 17.9
      vertex 52.0115 -10.7 29
      vertex 52.0115 -10.7 0
    endloop
  endfacet
  facet normal 1 -0 0
    outer loop
      vertex 52.0115 -10.7 29
      vertex 52.0115 -1.54976 17.9
      vertex 52.0115 6.7 29
    endloop
  endfacet
  facet normal 1 -0 0
    outer loop
      vertex 52.0115 5 10.9
      vertex 52.0115 6.7 0
      vertex 52.0115 5 17.9
    endloop
  endfacet
  facet normal 1 -0 0
    outer loop
      vertex 52.0115 -1.54976 10.9
      vertex 52.0115 6.7 0
      vertex 52.0115 5 10.9
    endloop
  endfacet
  facet normal 1 0 0
    outer loop
      vertex 52.0115 -1.54976 10.9
      vertex 52.0115 -10.7 0
      vertex 52.0115 6.7 0
    endloop
  endfacet
  facet normal 1 0 0
    outer loop
      vertex 52.0115 -10.7 0
      vertex 52.0115 -1.54976 10.9
      vertex 52.0115 -1.54976 17.9
    endloop
  endfacet
  facet normal -1 0 0
    outer loop
      vertex 48.6285 0.4 1.4
      vertex 48.6285 6.59999 0
      vertex 48.6285 0.4 3.8147e-07
    endloop
  endfacet
  facet normal -1 0 0
    outer loop
      vertex 48.6285 6.59999 0
      vertex 48.6285 -4.4 3.8147e-07
      vertex 48.6285 0.4 3.8147e-07
    endloop
  endfacet
  facet normal -1 -0 0
    outer loop
      vertex 48.6285 -4.4 3.8147e-07
      vertex 48.6285 -10.6 0
      vertex 48.6285 -4.4 27.4
    endloop
  endfacet
  facet normal -1 0 0
    outer loop
      vertex 48.6285 -10.6 0
      vertex 48.6285 -4.4 3.8147e-07
      vertex 48.6285 6.59999 0
    endloop
  endfacet
  facet normal -1 0 0
    outer loop
      vertex 48.6285 6.06663 10.9
      vertex 48.6285 6.6 29
      vertex 48.6285 6.59999 0
    endloop
  endfacet
  facet normal -1 0 0
    outer loop
      vertex 48.6285 6.06663 17.9
      vertex 48.6285 6.6 29
      vertex 48.6285 6.06663 10.9
    endloop
  endfacet
  facet normal -1 0 0
    outer loop
      vertex 48.6285 -0.318442 27.4
      vertex 48.6285 6.06663 17.9
      vertex 48.6285 -0.318442 17.9
    endloop
  endfacet
  facet normal -1 0 0
    outer loop
      vertex 48.6285 6.06663 17.9
      vertex 48.6285 -0.318442 27.4
      vertex 48.6285 6.6 29
    endloop
  endfacet
  facet normal -1 0 0
    outer loop
      vertex 48.6285 -3 27.4
      vertex 48.6285 6.6 29
      vertex 48.6285 -0.318442 27.4
    endloop
  endfacet
  facet normal -1 0 0
    outer loop
      vertex 48.6285 -10.6 29
      vertex 48.6285 -3 27.4
      vertex 48.6285 -4.4 27.4
    endloop
  endfacet
  facet normal -1 0 0
    outer loop
      vertex 48.6285 -3 27.4
      vertex 48.6285 -10.6 29
      vertex 48.6285 6.6 29
    endloop
  endfacet
  facet normal -1 0 0
    outer loop
      vertex 48.6285 -10.6 29
      vertex 48.6285 -4.4 27.4
      vertex 48.6285 -10.6 0
    endloop
  endfacet
  facet normal -1 0 0
    outer loop
      vertex 48.6285 6.59999 0
      vertex 48.6285 0.4 1.4
      vertex 48.6285 6.06663 10.9
    endloop
  endfacet
  facet normal -1 0 0
    outer loop
      vertex 48.6285 -0.318442 10.9
      vertex 48.6285 0.4 1.4
      vertex 48.6285 -0.318441 1.4
    endloop
  endfacet
  facet normal -1 0 0
    outer loop
      vertex 48.6285 0.4 1.4
      vertex 48.6285 -0.318442 10.9
      vertex 48.6285 6.06663 10.9
    endloop
  endfacet
  facet normal -0.962883 -0.26992 9.3076e-07
    outer loop
      vertex 43.6791 34.976 0
      vertex 43.3655 36.0948 29
      vertex 43.3655 36.0947 0
    endloop
  endfacet
  facet normal -0.962869 -0.26997 3.00911e-06
    outer loop
      vertex 43.3655 36.0948 29
      vertex 43.6791 34.976 0
      vertex 44.589 31.7311 29
    endloop
  endfacet
  facet normal 0.962866 0.269978 -2.23335e-06
    outer loop
      vertex 48.3968 30.9032 29
      vertex 48.0599 32.1045 0
      vertex 47.0832 35.5881 29
    endloop
  endfacet
  facet normal 0.962852 0.270028 0
    outer loop
      vertex 48.0599 32.1045 0
      vertex 48.3968 30.9032 29
      vertex 48.3968 30.9032 0
    endloop
  endfacet
  facet normal 0.962867 0.269977 0
    outer loop
      vertex 47.0832 35.5881 29
      vertex 46.4604 37.8093 0
      vertex 46.4604 37.8093 29
    endloop
  endfacet
  facet normal 0.962869 0.269967 -8.15044e-07
    outer loop
      vertex 46.4604 37.8093 0
      vertex 47.0832 35.5881 29
      vertex 48.0599 32.1045 0
    endloop
  endfacet
  facet normal -0.962866 -0.26998 1.86719e-06
    outer loop
      vertex 45.1128 29.8628 0
      vertex 44.589 31.7311 29
      vertex 43.6791 34.976 0
    endloop
  endfacet
  facet normal -0.962874 -0.269953 0
    outer loop
      vertex 44.589 31.7311 29
      vertex 45.1128 29.8628 0
      vertex 45.1128 29.8628 29
    endloop
  endfacet
  facet normal 0.996248 0.0865461 -8.06544e-07
    outer loop
      vertex 52.0115 6.7 29
      vertex 51.8774 8.24338 0
      vertex 51.4886 12.7192 29
    endloop
  endfacet
  facet normal 0.996247 0.0865611 0
    outer loop
      vertex 51.8774 8.24338 0
      vertex 52.0115 6.7 29
      vertex 52.0115 6.7 0
    endloop
  endfacet
  facet normal 0.996245 0.0865782 0
    outer loop
      vertex 51.4886 12.7192 29
      vertex 51.3434 14.39 0
      vertex 51.3434 14.39 29
    endloop
  endfacet
  facet normal 0.996247 0.086551 -1.57623e-06
    outer loop
      vertex 51.3434 14.39 0
      vertex 51.4886 12.7192 29
      vertex 51.8774 8.24338 0
    endloop
  endfacet
  facet normal -0.996247 -0.0865614 9.94783e-07
    outer loop
      vertex 48.6285 6.59999 0
      vertex 48.4942 8.146 29
      vertex 48.1457 12.1566 0
    endloop
  endfacet
  facet normal -0.996248 -0.0865434 2.98426e-08
    outer loop
      vertex 48.4942 8.146 29
      vertex 48.6285 6.59999 0
      vertex 48.6285 6.6 29
    endloop
  endfacet
  facet normal -0.99625 -0.086527 0
    outer loop
      vertex 48.1457 12.1566 0
      vertex 48.0256 13.5394 29
      vertex 48.0256 13.5394 0
    endloop
  endfacet
  facet normal -0.996247 -0.0865579 1.48244e-06
    outer loop
      vertex 48.0256 13.5394 29
      vertex 48.1457 12.1566 0
      vertex 48.4942 8.146 29
    endloop
  endfacet
  facet normal -0.996246 0.0865694 0
    outer loop
      vertex 48.2462 -15 29
      vertex 48.4942 -12.146 29
      vertex 48.2462 -15 8.36308
    endloop
  endfacet
  facet normal 0.996247 -0.0865576 0
    outer loop
      vertex 51.6379 -15 17.8609
      vertex 52.0115 -10.7 0
      vertex 52.0115 -10.7 29
    endloop
  endfacet
  facet normal 0.996247 -0.0865576 0
    outer loop
      vertex 51.6379 -15 17.8609
      vertex 52.0115 -10.7 29
      vertex 51.6379 -15 29
    endloop
  endfacet
  facet normal 0.996247 -0.08656 -5.69562e-07
    outer loop
      vertex 52.0115 -10.7 0
      vertex 51.6379 -15 17.8609
      vertex 51.8774 -12.2434 0
    endloop
  endfacet
  facet normal 0.996247 -0.0865563 0
    outer loop
      vertex 51.8774 -12.2434 0
      vertex 51.6379 -15 17.8609
      vertex 51.6379 -15 0
    endloop
  endfacet
  facet normal -0.996247 0.0865602 0
    outer loop
      vertex 48.2462 -15 8.36308
      vertex 48.6285 -10.6 29
      vertex 48.6285 -10.6 0
    endloop
  endfacet
  facet normal -0.996247 0.0865602 0
    outer loop
      vertex 48.2462 -15 8.36308
      vertex 48.6285 -10.6 0
      vertex 48.2462 -15 0
    endloop
  endfacet
  facet normal -0.996248 0.0865434 3.61594e-06
    outer loop
      vertex 48.6285 -10.6 29
      vertex 48.2462 -15 8.36308
      vertex 48.4942 -12.146 29
    endloop
  endfacet
  facet normal 0.566732 0.823902 0
    outer loop
      vertex 40.163 52.237 0
      vertex 40.8675 51.7524 29
      vertex 40.8675 51.7524 0
    endloop
  endfacet
  facet normal 0.566766 0.823879 -1.18875e-06
    outer loop
      vertex 40.8675 51.7524 29
      vertex 40.163 52.237 0
      vertex 38.1201 53.6424 29
    endloop
  endfacet
  facet normal 0.56678 0.823869 3.02497e-07
    outer loop
      vertex 36.2082 54.9577 0
      vertex 38.1201 53.6424 29
      vertex 40.163 52.237 0
    endloop
  endfacet
  facet normal 0.566783 0.823867 0
    outer loop
      vertex 38.1201 53.6424 29
      vertex 36.2082 54.9577 0
      vertex 36.2082 54.9577 29
    endloop
  endfacet
  facet normal -0.566792 -0.823861 -2.58963e-06
    outer loop
      vertex 36.7286 50.64 21.9
      vertex 37.8369 49.8775 29
      vertex 36.4819 50.8097 29
    endloop
  endfacet
  facet normal -0.566803 -0.823853 -0
    outer loop
      vertex 37.8369 49.8775 29
      vertex 36.7286 50.64 21.9
      vertex 37.8369 49.8775 21.9
    endloop
  endfacet
  facet normal -0.56679 -0.823862 0
    outer loop
      vertex 37.4895 50.1165 0
      vertex 37.8369 49.8775 3.8147e-07
      vertex 37.4895 50.1165 3.8147e-07
    endloop
  endfacet
  facet normal -0.56679 -0.823862 -0
    outer loop
      vertex 37.8369 49.8775 3.8147e-07
      vertex 37.4895 50.1165 0
      vertex 37.8369 49.8775 0
    endloop
  endfacet
  facet normal -0.566755 -0.823887 0
    outer loop
      vertex 35.5072 51.4802 21.9
      vertex 36.4819 50.8097 29
      vertex 35.5072 51.4802 29
    endloop
  endfacet
  facet normal -0.566771 -0.823875 3.24344e-06
    outer loop
      vertex 36.5762 50.7448 21.9
      vertex 36.4819 50.8097 29
      vertex 35.5072 51.4802 21.9
    endloop
  endfacet
  facet normal -0.566621 -0.823979 6.18342e-06
    outer loop
      vertex 36.4819 50.8097 29
      vertex 36.5762 50.7448 21.9
      vertex 36.7286 50.64 21.9
    endloop
  endfacet
  facet normal -0.566774 -0.823873 0
    outer loop
      vertex 35.5072 51.4802 0
      vertex 37.4895 50.1165 3.8147e-07
      vertex 35.5072 51.4802 3.8147e-07
    endloop
  endfacet
  facet normal -0.566774 -0.823873 -0
    outer loop
      vertex 37.4895 50.1165 3.8147e-07
      vertex 35.5072 51.4802 0
      vertex 37.4895 50.1165 0
    endloop
  endfacet
  facet normal 0 0 -1
    outer loop
      vertex 48.6285 -10.6 0
      vertex 52.0115 -10.7 0
      vertex 51.8774 -12.2434 0
    endloop
  endfacet
  facet normal 0 0 -1
    outer loop
      vertex 52.0115 -10.7 0
      vertex 48.6285 -10.6 0
      vertex 52.0115 6.7 0
    endloop
  endfacet
  facet normal 0 0 -1
    outer loop
      vertex 48.2462 -15 0
      vertex 51.8774 -12.2434 0
      vertex 51.6379 -15 0
    endloop
  endfacet
  facet normal 0 0 -1
    outer loop
      vertex 48.6285 6.59999 0
      vertex 52.0115 6.7 0
      vertex 48.6285 -10.6 0
    endloop
  endfacet
  facet normal 0 0 -1
    outer loop
      vertex 48.1457 12.1566 0
      vertex 51.8774 8.24338 0
      vertex 48.6285 6.59999 0
    endloop
  endfacet
  facet normal 0 0 -1
    outer loop
      vertex 51.8774 8.24338 0
      vertex 48.1457 12.1566 0
      vertex 51.3434 14.39 0
    endloop
  endfacet
  facet normal 0 0 -1
    outer loop
      vertex 48.0256 13.5394 0
      vertex 51.3434 14.39 0
      vertex 48.1457 12.1566 0
    endloop
  endfacet
  facet normal -0 0 -1
    outer loop
      vertex 52.0115 6.7 0
      vertex 48.6285 6.59999 0
      vertex 51.8774 8.24338 0
    endloop
  endfacet
  facet normal -0 0 -1
    outer loop
      vertex 51.8774 -12.2434 0
      vertex 48.2462 -15 0
      vertex 48.6285 -10.6 0
    endloop
  endfacet
  facet normal -0 0 -1
    outer loop
      vertex 51.3434 14.39 0
      vertex 48.0256 13.5394 0
      vertex 51.3298 14.4659 0
    endloop
  endfacet
  facet normal -0 0 -1
    outer loop
      vertex 51.3298 14.4659 0
      vertex 48.0256 13.5394 0
      vertex 51.3264 14.4849 0
    endloop
  endfacet
  facet normal -0 0 -1
    outer loop
      vertex 51.3264 14.4849 0
      vertex 48.0256 13.5394 0
      vertex 50.7913 17.4842 0
    endloop
  endfacet
  facet normal 0 0 -1
    outer loop
      vertex 45.6725 26.7263 0
      vertex 50.7913 17.4842 0
      vertex 48.0256 13.5394 0
    endloop
  endfacet
  facet normal 0 0 -1
    outer loop
      vertex 50.7913 17.4842 0
      vertex 45.6725 26.7263 0
      vertex 48.3999 30.8858 0
    endloop
  endfacet
  facet normal 0 0 -1
    outer loop
      vertex 45.1128 29.8628 0
      vertex 48.3999 30.8858 0
      vertex 45.6725 26.7263 0
    endloop
  endfacet
  facet normal -0 0 -1
    outer loop
      vertex 48.3999 30.8858 0
      vertex 45.1128 29.8628 0
      vertex 48.3968 30.9032 0
    endloop
  endfacet
  facet normal -0 0 -1
    outer loop
      vertex 48.3968 30.9032 0
      vertex 45.1128 29.8628 0
      vertex 48.0599 32.1045 0
    endloop
  endfacet
  facet normal 0 0 -1
    outer loop
      vertex 43.6791 34.976 0
      vertex 48.0599 32.1045 0
      vertex 45.1128 29.8628 0
    endloop
  endfacet
  facet normal 0 0 -1
    outer loop
      vertex 48.0599 32.1045 0
      vertex 43.6791 34.976 0
      vertex 46.4604 37.8093 0
    endloop
  endfacet
  facet normal 0 0 -1
    outer loop
      vertex 43.3655 36.0947 0
      vertex 46.4604 37.8093 0
      vertex 43.6791 34.976 0
    endloop
  endfacet
  facet normal -0 0 -1
    outer loop
      vertex 46.4604 37.8093 0
      vertex 43.3655 36.0947 0
      vertex 46.4338 37.8755 0
    endloop
  endfacet
  facet normal 0 0 -1
    outer loop
      vertex 38.7891 47.5035 0
      vertex 46.4338 37.8755 0
      vertex 43.3655 36.0947 0
    endloop
  endfacet
  facet normal 0 0 -1
    outer loop
      vertex 46.4338 37.8755 0
      vertex 38.7891 47.5035 0
      vertex 41.8403 49.3271 0
    endloop
  endfacet
  facet normal 0 0 -1
    outer loop
      vertex 37.8369 49.8775 0
      vertex 41.8403 49.3271 0
      vertex 38.7891 47.5035 0
    endloop
  endfacet
  facet normal 0 0 -1
    outer loop
      vertex 41.8403 49.3271 0
      vertex 37.8369 49.8775 0
      vertex 40.8723 51.7403 0
    endloop
  endfacet
  facet normal 0 -0 -1
    outer loop
      vertex 40.163 52.237 0
      vertex 40.8723 51.7403 0
      vertex 37.8369 49.8775 0
    endloop
  endfacet
  facet normal 0 0 -1
    outer loop
      vertex 40.8723 51.7403 0
      vertex 40.163 52.237 0
      vertex 40.8675 51.7524 0
    endloop
  endfacet
  facet normal 0 0 -1
    outer loop
      vertex 37.4895 50.1165 0
      vertex 40.163 52.237 0
      vertex 37.8369 49.8775 0
    endloop
  endfacet
  facet normal 0 0 -1
    outer loop
      vertex 35.5072 51.4802 0
      vertex 40.163 52.237 0
      vertex 37.4895 50.1165 0
    endloop
  endfacet
  facet normal -0 0 -1
    outer loop
      vertex 40.163 52.237 0
      vertex 35.5072 51.4802 0
      vertex 36.2082 54.9577 0
    endloop
  endfacet
  facet normal -0 0 -1
    outer loop
      vertex 36.2082 54.9577 0
      vertex 35.5072 51.4802 0
      vertex 36.1954 54.9577 0
    endloop
  endfacet
  facet normal 0 0 -1
    outer loop
      vertex 35.5072 51.4802 0
      vertex 33.6241 54.9577 0
      vertex 36.1954 54.9577 0
    endloop
  endfacet
  facet normal 0 0 -1
    outer loop
      vertex 20.9165 51.4802 0
      vertex 33.6241 54.9577 0
      vertex 35.5072 51.4802 0
    endloop
  endfacet
  facet normal -0 0 -1
    outer loop
      vertex 33.6241 54.9577 0
      vertex 20.9165 51.4802 0
      vertex 21.6175 54.9577 0
    endloop
  endfacet
  facet normal 0 0 -1
    outer loop
      vertex 20.0919 53.0941 0
      vertex 21.6175 54.9577 0
      vertex 20.9165 51.4802 0
    endloop
  endfacet
  facet normal 0 0 -1
    outer loop
      vertex 20 53.274 0
      vertex 21.6175 54.9577 0
      vertex 20.0919 53.0941 0
    endloop
  endfacet
  facet normal -0 0 -1
    outer loop
      vertex 21.6175 54.9577 0
      vertex 20 53.274 0
      vertex 21.4211 55.3169 0
    endloop
  endfacet
  facet normal 0 0 -1
    outer loop
      vertex 20 56.8943 0
      vertex 21.4211 55.3169 0
      vertex 20 53.274 0
    endloop
  endfacet
  facet normal 0 0 -1
    outer loop
      vertex 21.4211 55.3169 0
      vertex 20.5422 56.8943 0
      vertex 20.5587 56.8943 0
    endloop
  endfacet
  facet normal 0 0 -1
    outer loop
      vertex 21.4211 55.3169 0
      vertex 20 56.8943 0
      vertex 20.5422 56.8943 0
    endloop
  endfacet
  facet normal 0 0 1
    outer loop
      vertex 52.0115 6.7 29
      vertex 48.4942 8.146 29
      vertex 48.6285 6.6 29
    endloop
  endfacet
  facet normal -0 0 1
    outer loop
      vertex 45.1128 29.8628 29
      vertex 49.2392 26.1821 29
      vertex 48.4089 30.8352 29
    endloop
  endfacet
  facet normal 0 0 1
    outer loop
      vertex 45.1128 29.8628 29
      vertex 48.4089 30.8352 29
      vertex 48.3968 30.9032 29
    endloop
  endfacet
  facet normal 0 0 1
    outer loop
      vertex 51.3264 14.4849 29
      vertex 48.0256 13.5394 29
      vertex 48.4942 8.146 29
    endloop
  endfacet
  facet normal 0 0 1
    outer loop
      vertex 51.3264 14.4849 29
      vertex 47.3448 17.3544 29
      vertex 48.0256 13.5394 29
    endloop
  endfacet
  facet normal -0 0 1
    outer loop
      vertex 44.589 31.7311 29
      vertex 48.3968 30.9032 29
      vertex 47.0832 35.5881 29
    endloop
  endfacet
  facet normal -0 0 1
    outer loop
      vertex 43.3655 36.0948 29
      vertex 47.0832 35.5881 29
      vertex 46.4604 37.8093 29
    endloop
  endfacet
  facet normal 0 0 1
    outer loop
      vertex 43.3655 36.0948 29
      vertex 46.4604 37.8093 29
      vertex 46.45 37.8351 29
    endloop
  endfacet
  facet normal 0 0 1
    outer loop
      vertex 49.2392 26.1821 29
      vertex 45.1128 29.8628 29
      vertex 47.3448 17.3544 29
    endloop
  endfacet
  facet normal -0 0 1
    outer loop
      vertex 41.551 40.6183 29
      vertex 46.45 37.8351 29
      vertex 44.6615 42.2938 29
    endloop
  endfacet
  facet normal 0 0 1
    outer loop
      vertex 48.3968 30.9032 29
      vertex 44.589 31.7311 29
      vertex 45.1128 29.8628 29
    endloop
  endfacet
  facet normal 0 0 1
    outer loop
      vertex 47.0832 35.5881 29
      vertex 43.3655 36.0948 29
      vertex 44.589 31.7311 29
    endloop
  endfacet
  facet normal 0 0 1
    outer loop
      vertex 46.45 37.8351 29
      vertex 41.551 40.6183 29
      vertex 43.3655 36.0948 29
    endloop
  endfacet
  facet normal -0 0 1
    outer loop
      vertex 37.8369 49.8775 29
      vertex 44.6615 42.2938 29
      vertex 40.8864 51.7052 29
    endloop
  endfacet
  facet normal 0 0 1
    outer loop
      vertex 37.8369 49.8775 29
      vertex 40.8864 51.7052 29
      vertex 40.8675 51.7524 29
    endloop
  endfacet
  facet normal 0 0 1
    outer loop
      vertex 37.8369 49.8775 29
      vertex 40.8675 51.7524 29
      vertex 38.1201 53.6424 29
    endloop
  endfacet
  facet normal 0 0 1
    outer loop
      vertex 44.6615 42.2938 29
      vertex 37.8369 49.8775 29
      vertex 41.551 40.6183 29
    endloop
  endfacet
  facet normal 0 0 1
    outer loop
      vertex 38.1201 53.6424 29
      vertex 36.4819 50.8097 29
      vertex 37.8369 49.8775 29
    endloop
  endfacet
  facet normal 0 0 1
    outer loop
      vertex 35.5072 51.4802 29
      vertex 38.1201 53.6424 29
      vertex 36.2082 54.9577 29
    endloop
  endfacet
  facet normal 0 0 1
    outer loop
      vertex 35.5072 51.4802 29
      vertex 36.2082 54.9577 29
      vertex 36.1584 54.9577 29
    endloop
  endfacet
  facet normal 0 0 1
    outer loop
      vertex 38.1201 53.6424 29
      vertex 35.5072 51.4802 29
      vertex 36.4819 50.8097 29
    endloop
  endfacet
  facet normal -0 0 1
    outer loop
      vertex 26.1302 54.9577 29
      vertex 35.5072 51.4802 29
      vertex 36.1584 54.9577 29
    endloop
  endfacet
  facet normal 0 0 1
    outer loop
      vertex 20.9166 51.4802 29
      vertex 26.1302 54.9577 29
      vertex 21.6175 54.9577 29
    endloop
  endfacet
  facet normal 0 0 1
    outer loop
      vertex 26.1302 54.9577 29
      vertex 20.9166 51.4802 29
      vertex 35.5072 51.4802 29
    endloop
  endfacet
  facet normal 0 0 1
    outer loop
      vertex 20 53.2741 29
      vertex 21.6175 54.9577 29
      vertex 20.8515 56.3587 29
    endloop
  endfacet
  facet normal 0 0 1
    outer loop
      vertex 21.6175 54.9577 29
      vertex 20.5927 52.1141 29
      vertex 20.9166 51.4802 29
    endloop
  endfacet
  facet normal -0 0 1
    outer loop
      vertex 20.4945 56.8943 29
      vertex 20.8515 56.3587 29
      vertex 20.5587 56.8943 29
    endloop
  endfacet
  facet normal -0 0 1
    outer loop
      vertex 20 56.8943 29
      vertex 20.8515 56.3587 29
      vertex 20.4945 56.8943 29
    endloop
  endfacet
  facet normal 0 0 1
    outer loop
      vertex 20.8515 56.3587 29
      vertex 20 56.8943 29
      vertex 20 53.2741 29
    endloop
  endfacet
  facet normal 0 0 1
    outer loop
      vertex 21.6175 54.9577 29
      vertex 20 53.2741 29
      vertex 20.5927 52.1141 29
    endloop
  endfacet
  facet normal -0 0 1
    outer loop
      vertex 48.6285 -10.6 29
      vertex 52.0115 -10.7 29
      vertex 52.0115 6.7 29
    endloop
  endfacet
  facet normal -0 0 1
    outer loop
      vertex 48.4942 8.146 29
      vertex 52.0115 6.7 29
      vertex 51.4886 12.7192 29
    endloop
  endfacet
  facet normal 0 0 1
    outer loop
      vertex 48.4942 8.146 29
      vertex 51.4886 12.7192 29
      vertex 51.3434 14.39 29
    endloop
  endfacet
  facet normal 0 0 1
    outer loop
      vertex 48.4942 8.146 29
      vertex 51.3434 14.39 29
      vertex 51.3397 14.4107 29
    endloop
  endfacet
  facet normal 0 0 1
    outer loop
      vertex 48.4942 8.146 29
      vertex 51.3397 14.4107 29
      vertex 51.3264 14.4849 29
    endloop
  endfacet
  facet normal -0 0 1
    outer loop
      vertex 47.3448 17.3544 29
      vertex 51.3264 14.4849 29
      vertex 49.2392 26.1821 29
    endloop
  endfacet
  facet normal 0 0 1
    outer loop
      vertex 48.6285 -10.6 29
      vertex 52.0115 6.7 29
      vertex 48.6285 6.6 29
    endloop
  endfacet
  facet normal 0 0 1
    outer loop
      vertex 48.4942 -12.146 29
      vertex 52.0115 -10.7 29
      vertex 48.6285 -10.6 29
    endloop
  endfacet
  facet normal 0 0 1
    outer loop
      vertex 52.0115 -10.7 29
      vertex 48.4942 -12.146 29
      vertex 51.6379 -15 29
    endloop
  endfacet
  facet normal 0 0 1
    outer loop
      vertex 51.6379 -15 29
      vertex 48.4942 -12.146 29
      vertex 48.2462 -15 29
    endloop
  endfacet
  facet normal -1 0 0
    outer loop
      vertex 20 56.8943 0
      vertex 20 53.2741 29
      vertex 20 56.8943 29
    endloop
  endfacet
  facet normal -1 0 -0
    outer loop
      vertex 20 53.2741 29
      vertex 20 56.8943 0
      vertex 20 53.274 0
    endloop
  endfacet
  facet normal 0 -1 0
    outer loop
      vertex 48.2462 -15 29
      vertex 51.6379 -15 17.8609
      vertex 51.6379 -15 29
    endloop
  endfacet
  facet normal 0 -1 0
    outer loop
      vertex 48.2462 -15 8.36308
      vertex 51.6379 -15 17.8609
      vertex 48.2462 -15 29
    endloop
  endfacet
  facet normal 0 -1 0
    outer loop
      vertex 51.6379 -15 0
      vertex 48.2462 -15 8.36308
      vertex 48.2462 -15 0
    endloop
  endfacet
  facet normal 0 -1 0
    outer loop
      vertex 48.2462 -15 8.36308
      vertex 51.6379 -15 0
      vertex 51.6379 -15 17.8609
    endloop
  endfacet
endsolid OpenSCAD_Model
