solid OpenSCAD_Model
  facet normal 0 1 0
    outer loop
      vertex 48.6285 0.65 1.4
      vertex 48.6285 0.65 3.8147e-07
      vertex 37.3248 0.65 1.4
    endloop
  endfacet
  facet normal 0 1 0
    outer loop
      vertex 37.6748 0.65 18.7333
      vertex 37.6748 0.65 10.0667
      vertex 37.3248 0.65 18.7333
    endloop
  endfacet
  facet normal 0 1 -0
    outer loop
      vertex 37.3248 0.65 18.7333
      vertex 35.9248 0.65 27.4
      vertex 37.3248 0.65 27.4
    endloop
  endfacet
  facet normal 0 1 0
    outer loop
      vertex 37.3248 0.65 10.0667
      vertex 37.3248 0.65 18.7333
      vertex 37.6748 0.65 10.0667
    endloop
  endfacet
  facet normal 0 1 0
    outer loop
      vertex 37.3248 0.65 18.7333
      vertex 37.3248 0.65 10.0667
      vertex 35.9248 0.65 27.4
    endloop
  endfacet
  facet normal 0 1 0
    outer loop
      vertex 35.9248 0.65 3.8147e-07
      vertex 37.3248 0.65 10.0667
      vertex 37.3248 0.65 1.4
    endloop
  endfacet
  facet normal 0 1 0
    outer loop
      vertex 37.3248 0.65 10.0667
      vertex 35.9248 0.65 3.8147e-07
      vertex 35.9248 0.65 27.4
    endloop
  endfacet
  facet normal 0 1 0
    outer loop
      vertex 35.9248 0.65 3.8147e-07
      vertex 37.3248 0.65 1.4
      vertex 48.6285 0.65 3.8147e-07
    endloop
  endfacet
  facet normal 0 0 1
    outer loop
      vertex 37.3248 0.65 27.4
      vertex 35.9248 0.65 27.4
      vertex 37.3248 -3.25 27.4
    endloop
  endfacet
  facet normal -0 0 1
    outer loop
      vertex 37.3248 -3.25 27.4
      vertex 48.6285 -4.65 27.4
      vertex 48.6285 -3.25 27.4
    endloop
  endfacet
  facet normal 0 0 1
    outer loop
      vertex 37.3248 -3.25 27.4
      vertex 35.9248 -4.65 27.4
      vertex 48.6285 -4.65 27.4
    endloop
  endfacet
  facet normal 0 0 1
    outer loop
      vertex 35.9248 -4.65 27.4
      vertex 37.3248 -3.25 27.4
      vertex 35.9248 0.65 27.4
    endloop
  endfacet
  facet normal 0 0 -1
    outer loop
      vertex 35.9248 -4.65 3.8147e-07
      vertex 48.6285 0.65 3.8147e-07
      vertex 48.6285 -4.65 3.8147e-07
    endloop
  endfacet
  facet normal -0 0 -1
    outer loop
      vertex 48.6285 0.65 3.8147e-07
      vertex 35.9248 -4.65 3.8147e-07
      vertex 35.9248 0.65 3.8147e-07
    endloop
  endfacet
  facet normal 0 -1 0
    outer loop
      vertex 35.9248 -4.65 3.8147e-07
      vertex 48.6285 -4.65 27.4
      vertex 35.9248 -4.65 27.4
    endloop
  endfacet
  facet normal 0 -1 -0
    outer loop
      vertex 48.6285 -4.65 27.4
      vertex 35.9248 -4.65 3.8147e-07
      vertex 48.6285 -4.65 3.8147e-07
    endloop
  endfacet
  facet normal -1 0 0
    outer loop
      vertex 35.9248 -4.65 3.8147e-07
      vertex 35.9248 0.65 27.4
      vertex 35.9248 0.65 3.8147e-07
    endloop
  endfacet
  facet normal -1 -0 0
    outer loop
      vertex 35.9248 0.65 27.4
      vertex 35.9248 -4.65 3.8147e-07
      vertex 35.9248 -4.65 27.4
    endloop
  endfacet
  facet normal 0 0 1
    outer loop
      vertex 48.6285 0.65 1.4
      vertex 37.3248 0.65 1.4
      vertex 48.6285 -0.052397 1.4
    endloop
  endfacet
  facet normal 0 0 1
    outer loop
      vertex 48.6285 -0.052397 1.4
      vertex 50.3248 -2 1.4
      vertex 50.7523 -0.825384 1.4
    endloop
  endfacet
  facet normal 0 0 1
    outer loop
      vertex 48.6285 -0.052397 1.4
      vertex 50.3248 -3.25 1.4
      vertex 50.3248 -2 1.4
    endloop
  endfacet
  facet normal 0 0 1
    outer loop
      vertex 37.3248 -3.25 1.4
      vertex 48.6285 -0.052397 1.4
      vertex 37.3248 0.65 1.4
    endloop
  endfacet
  facet normal 0 0 1
    outer loop
      vertex 48.6285 -0.052397 1.4
      vertex 37.3248 -3.25 1.4
      vertex 50.3248 -3.25 1.4
    endloop
  endfacet
  facet normal 0 -1 0
    outer loop
      vertex 37.3248 -0.75 10.0667
      vertex 37.6748 -0.75 18.7333
      vertex 37.3248 -0.75 18.7333
    endloop
  endfacet
  facet normal 0 -1 -0
    outer loop
      vertex 37.6748 -0.75 18.7333
      vertex 37.3248 -0.75 10.0667
      vertex 37.6748 -0.75 10.0667
    endloop
  endfacet
  facet normal 1 -0 0
    outer loop
      vertex 37.6748 -0.75 18.7333
      vertex 37.6748 0.65 10.0667
      vertex 37.6748 0.65 18.7333
    endloop
  endfacet
  facet normal 1 0 0
    outer loop
      vertex 37.6748 0.65 10.0667
      vertex 37.6748 -0.75 18.7333
      vertex 37.6748 -0.75 10.0667
    endloop
  endfacet
  facet normal -0 0 1
    outer loop
      vertex 37.3248 0.65 18.7333
      vertex 37.6748 -0.75 18.7333
      vertex 37.6748 0.65 18.7333
    endloop
  endfacet
  facet normal 0 0 1
    outer loop
      vertex 37.6748 -0.75 18.7333
      vertex 37.3248 0.65 18.7333
      vertex 37.3248 -0.75 18.7333
    endloop
  endfacet
  facet normal 1 0 0
    outer loop
      vertex 37.3248 0.65 27.4
      vertex 37.3248 -0.75 18.7333
      vertex 37.3248 0.65 18.7333
    endloop
  endfacet
  facet normal 1 0 0
    outer loop
      vertex 37.3248 -0.75 18.7333
      vertex 37.3248 -3.25 27.4
      vertex 37.3248 -0.75 10.0667
    endloop
  endfacet
  facet normal 1 -0 0
    outer loop
      vertex 37.3248 -3.25 27.4
      vertex 37.3248 -0.75 18.7333
      vertex 37.3248 0.65 27.4
    endloop
  endfacet
  facet normal 1 -0 0
    outer loop
      vertex 37.3248 -0.75 10.0667
      vertex 37.3248 0.65 1.4
      vertex 37.3248 0.65 10.0667
    endloop
  endfacet
  facet normal 1 0 0
    outer loop
      vertex 37.3248 -0.75 10.0667
      vertex 37.3248 -3.25 1.4
      vertex 37.3248 0.65 1.4
    endloop
  endfacet
  facet normal 1 0 0
    outer loop
      vertex 37.3248 -3.25 1.4
      vertex 37.3248 -0.75 10.0667
      vertex 37.3248 -3.25 27.4
    endloop
  endfacet
  facet normal 0 0 -1
    outer loop
      vertex 37.3248 -0.75 10.0667
      vertex 37.6748 0.65 10.0667
      vertex 37.6748 -0.75 10.0667
    endloop
  endfacet
  facet normal -0 0 -1
    outer loop
      vertex 37.6748 0.65 10.0667
      vertex 37.3248 -0.75 10.0667
      vertex 37.3248 0.65 10.0667
    endloop
  endfacet
  facet normal 0 0 -1
    outer loop
      vertex 50.3248 -3.25 27.4
      vertex 48.6285 -3.25 27.4
      vertex 50.3248 -2 27.4
    endloop
  endfacet
  facet normal 0 0 -1
    outer loop
      vertex 48.6285 -0.0523974 27.4
      vertex 50.3248 -2 27.4
      vertex 48.6285 -3.25 27.4
    endloop
  endfacet
  facet normal 0 0 -1
    outer loop
      vertex 50.3248 -2 27.4
      vertex 48.6285 -0.0523974 27.4
      vertex 50.7523 -0.825384 27.4
    endloop
  endfacet
  facet normal 0 1 -0
    outer loop
      vertex 50.3248 -3.25 1.4
      vertex 48.6285 -3.25 27.4
      vertex 50.3248 -3.25 27.4
    endloop
  endfacet
  facet normal 0 1 0
    outer loop
      vertex 37.3248 -3.25 1.4
      vertex 48.6285 -3.25 27.4
      vertex 50.3248 -3.25 1.4
    endloop
  endfacet
  facet normal 0 1 0
    outer loop
      vertex 48.6285 -3.25 27.4
      vertex 37.3248 -3.25 1.4
      vertex 37.3248 -3.25 27.4
    endloop
  endfacet
  facet normal -1 0 0
    outer loop
      vertex 50.3248 -3.25 1.4
      vertex 50.3248 -2 27.4
      vertex 50.3248 -2 1.4
    endloop
  endfacet
  facet normal -1 -0 0
    outer loop
      vertex 50.3248 -2 27.4
      vertex 50.3248 -3.25 1.4
      vertex 50.3248 -3.25 27.4
    endloop
  endfacet
  facet normal 0 -1 0
    outer loop
      vertex 51.6031 5.25 10.9
      vertex 52.0115 5.25 17.9
      vertex 51.6031 5.25 17.9
    endloop
  endfacet
  facet normal 0 -1 -0
    outer loop
      vertex 52.0115 5.25 17.9
      vertex 51.6031 5.25 10.9
      vertex 52.0115 5.25 10.9
    endloop
  endfacet
  facet normal 0 0 -1
    outer loop
      vertex 50.7523 -0.825384 17.9
      vertex 52.0115 5.25 17.9
      vertex 52.0115 -1.28371 17.9
    endloop
  endfacet
  facet normal -0 0 -1
    outer loop
      vertex 52.0115 5.25 17.9
      vertex 50.7523 -0.825384 17.9
      vertex 51.6031 5.25 17.9
    endloop
  endfacet
  facet normal 0 0 -1
    outer loop
      vertex 48.6285 -0.0523973 17.9
      vertex 51.6031 5.25 17.9
      vertex 50.7523 -0.825384 17.9
    endloop
  endfacet
  facet normal -0 0 -1
    outer loop
      vertex 51.6031 5.25 17.9
      vertex 48.6285 -0.0523973 17.9
      vertex 48.6285 6.33267 17.9
    endloop
  endfacet
  facet normal 0 0 1
    outer loop
      vertex 50.7523 -0.825384 10.9
      vertex 52.0115 5.25 10.9
      vertex 51.6031 5.25 10.9
    endloop
  endfacet
  facet normal 0 0 1
    outer loop
      vertex 52.0115 5.25 10.9
      vertex 50.7523 -0.825384 10.9
      vertex 52.0115 -1.28371 10.9
    endloop
  endfacet
  facet normal 0 0 1
    outer loop
      vertex 48.6285 -0.0523972 10.9
      vertex 51.6031 5.25 10.9
      vertex 48.6285 6.33267 10.9
    endloop
  endfacet
  facet normal 0 0 1
    outer loop
      vertex 51.6031 5.25 10.9
      vertex 48.6285 -0.0523972 10.9
      vertex 50.7523 -0.825384 10.9
    endloop
  endfacet
  facet normal 0.34203 0.939689 -0
    outer loop
      vertex 52.0115 -1.28371 10.9
      vertex 50.7523 -0.825384 17.9
      vertex 52.0115 -1.28371 17.9
    endloop
  endfacet
  facet normal 0.34203 0.939689 0
    outer loop
      vertex 50.7523 -0.825384 17.9
      vertex 52.0115 -1.28371 10.9
      vertex 50.7523 -0.825384 10.9
    endloop
  endfacet
  facet normal -0.342015 -0.939695 -9.89152e-09
    outer loop
      vertex 48.6285 -0.0523973 17.9
      vertex 50.7523 -0.825384 27.4
      vertex 48.6285 -0.0523974 27.4
    endloop
  endfacet
  facet normal -0.342015 -0.939695 -0
    outer loop
      vertex 50.7523 -0.825384 27.4
      vertex 48.6285 -0.0523973 17.9
      vertex 50.7523 -0.825384 17.9
    endloop
  endfacet
  facet normal -0.342015 -0.939694 -1.9783e-08
    outer loop
      vertex 48.6285 -0.052397 1.4
      vertex 50.7523 -0.825384 10.9
      vertex 48.6285 -0.0523972 10.9
    endloop
  endfacet
  facet normal -0.342015 -0.939694 -0
    outer loop
      vertex 50.7523 -0.825384 10.9
      vertex 48.6285 -0.052397 1.4
      vertex 50.7523 -0.825384 1.4
    endloop
  endfacet
  facet normal -0.939699 0.342002 0
    outer loop
      vertex 50.3248 -2 1.4
      vertex 50.7523 -0.825384 10.9
      vertex 50.7523 -0.825384 1.4
    endloop
  endfacet
  facet normal -0.939699 0.342002 0
    outer loop
      vertex 50.7523 -0.825384 10.9
      vertex 50.3248 -2 1.4
      vertex 50.7523 -0.825384 17.9
    endloop
  endfacet
  facet normal -0.939699 0.342002 0
    outer loop
      vertex 50.3248 -2 27.4
      vertex 50.7523 -0.825384 17.9
      vertex 50.3248 -2 1.4
    endloop
  endfacet
  facet normal -0.939699 0.342002 0
    outer loop
      vertex 50.7523 -0.825384 17.9
      vertex 50.3248 -2 27.4
      vertex 50.7523 -0.825384 27.4
    endloop
  endfacet
  facet normal -0.342021 -0.939692 0
    outer loop
      vertex 48.6285 6.33267 10.9
      vertex 51.6031 5.25 17.9
      vertex 48.6285 6.33267 17.9
    endloop
  endfacet
  facet normal -0.342021 -0.939692 -0
    outer loop
      vertex 51.6031 5.25 17.9
      vertex 48.6285 6.33267 10.9
      vertex 51.6031 5.25 10.9
    endloop
  endfacet
  facet normal -0.951028 -0.309105 0
    outer loop
      vertex 32.8675 49.6464 8.23333
      vertex 32.7593 49.9793 15.0667
      vertex 32.7593 49.9793 8.23333
    endloop
  endfacet
  facet normal -0.951028 -0.309105 0
    outer loop
      vertex 32.7593 49.9793 15.0667
      vertex 32.8675 49.6464 8.23333
      vertex 32.8675 49.6464 15.0667
    endloop
  endfacet
  facet normal -0.951056 -0.309019 -4.60629e-05
    outer loop
      vertex 32.3564 51.2195 3.8147e-07
      vertex 44.3475 14.3147 1.4
      vertex 32.7593 49.9793 1.4
    endloop
  endfacet
  facet normal -0.951063 -0.308997 0
    outer loop
      vertex 44.7801 12.9832 3.8147e-07
      vertex 44.3475 14.3147 8.23333
      vertex 44.3475 14.3147 1.4
    endloop
  endfacet
  facet normal -0.951063 -0.308997 -0
    outer loop
      vertex 44.7801 12.9832 21.9
      vertex 44.3475 14.3147 8.23333
      vertex 44.7801 12.9832 3.8147e-07
    endloop
  endfacet
  facet normal -0.951057 -0.309016 2.01325e-05
    outer loop
      vertex 44.7801 12.9832 3.8147e-07
      vertex 44.3475 14.3147 1.4
      vertex 32.3564 51.2195 3.8147e-07
    endloop
  endfacet
  facet normal -0.951063 -0.308997 0
    outer loop
      vertex 44.3475 14.3147 8.23333
      vertex 44.7801 12.9832 21.9
      vertex 44.3475 14.3147 15.0667
    endloop
  endfacet
  facet normal -0.951063 -0.308997 0
    outer loop
      vertex 44.3475 14.3147 15.0667
      vertex 44.7801 12.9832 21.9
      vertex 44.3475 14.3147 21.9
    endloop
  endfacet
  facet normal -0.951071 -0.308972 -0
    outer loop
      vertex 32.7593 49.9793 8.23333
      vertex 32.3564 51.2195 3.8147e-07
      vertex 32.7593 49.9793 1.4
    endloop
  endfacet
  facet normal -0.951071 -0.308972 0
    outer loop
      vertex 32.3564 51.2195 3.8147e-07
      vertex 32.7593 49.9793 8.23333
      vertex 32.3564 51.2195 21.9
    endloop
  endfacet
  facet normal -0.951071 -0.308972 -0
    outer loop
      vertex 32.7593 49.9793 15.0667
      vertex 32.3564 51.2195 21.9
      vertex 32.7593 49.9793 8.23333
    endloop
  endfacet
  facet normal -0.951071 -0.308972 0
    outer loop
      vertex 32.3564 51.2195 21.9
      vertex 32.7593 49.9793 15.0667
      vertex 32.7593 49.9793 21.9
    endloop
  endfacet
  facet normal -0.951028 -0.309105 0
    outer loop
      vertex 44.3475 14.3147 8.23333
      vertex 44.2393 14.6476 15.0667
      vertex 44.2393 14.6476 8.23333
    endloop
  endfacet
  facet normal -0.951028 -0.309105 0
    outer loop
      vertex 44.2393 14.6476 15.0667
      vertex 44.3475 14.3147 8.23333
      vertex 44.3475 14.3147 15.0667
    endloop
  endfacet
  facet normal -0 0 1
    outer loop
      vertex 44.3475 14.3147 21.9
      vertex 47.9544 14.0146 21.9
      vertex 47.7292 15.4135 21.9
    endloop
  endfacet
  facet normal 0 0 1
    outer loop
      vertex 47.9544 14.0146 21.9
      vertex 44.3475 14.3147 21.9
      vertex 44.7801 12.9832 21.9
    endloop
  endfacet
  facet normal 0 0 1
    outer loop
      vertex 36.5762 51.2195 21.9
      vertex 34.0062 51.0138 21.9
      vertex 35.7552 50.9527 21.9
    endloop
  endfacet
  facet normal 0 0 1
    outer loop
      vertex 34.0062 51.0138 21.9
      vertex 32.7593 49.9793 21.9
      vertex 33.984 50.3772 21.9
    endloop
  endfacet
  facet normal 0 0 1
    outer loop
      vertex 34.0062 51.0138 21.9
      vertex 32.3564 51.2195 21.9
      vertex 32.7593 49.9793 21.9
    endloop
  endfacet
  facet normal -0 0 1
    outer loop
      vertex 32.3564 51.2195 21.9
      vertex 34.0062 51.0138 21.9
      vertex 36.5762 51.2195 21.9
    endloop
  endfacet
  facet normal 0 0 1
    outer loop
      vertex 44.6717 32.6118 21.9
      vertex 46.3411 24.0356 21.9
      vertex 45.4782 29.3955 21.9
    endloop
  endfacet
  facet normal 0 0 1
    outer loop
      vertex 41.7878 41.5126 21.9
      vertex 44.6717 32.6118 21.9
      vertex 44.0269 35.183 21.9
    endloop
  endfacet
  facet normal 0 0 1
    outer loop
      vertex 44.6717 32.6118 21.9
      vertex 41.7878 41.5126 21.9
      vertex 46.3411 24.0356 21.9
    endloop
  endfacet
  facet normal 0 0 1
    outer loop
      vertex 37.8312 50.3659 21.9
      vertex 41.7878 41.5126 21.9
      vertex 38.945 49.549 21.9
    endloop
  endfacet
  facet normal 0 0 1
    outer loop
      vertex 37.7717 50.4095 21.9
      vertex 41.7878 41.5126 21.9
      vertex 37.8312 50.3659 21.9
    endloop
  endfacet
  facet normal 0 0 1
    outer loop
      vertex 41.7878 41.5126 21.9
      vertex 37.7717 50.4095 21.9
      vertex 46.3411 24.0356 21.9
    endloop
  endfacet
  facet normal 0 0 -1
    outer loop
      vertex 46.002 26.1423 3.8147e-07
      vertex 45.2254 30.4037 3.8147e-07
      vertex 45.4782 29.3955 3.8147e-07
    endloop
  endfacet
  facet normal 0 0 -1
    outer loop
      vertex 44.7801 12.9832 3.8147e-07
      vertex 46.002 26.1423 3.8147e-07
      vertex 47.9544 14.0146 3.8147e-07
    endloop
  endfacet
  facet normal -0 0 -1
    outer loop
      vertex 46.002 26.1423 3.8147e-07
      vertex 44.7801 12.9832 3.8147e-07
      vertex 45.2254 30.4037 3.8147e-07
    endloop
  endfacet
  facet normal 0 0 -1
    outer loop
      vertex 32.3564 51.2195 3.8147e-07
      vertex 45.2254 30.4037 3.8147e-07
      vertex 44.7801 12.9832 3.8147e-07
    endloop
  endfacet
  facet normal 0 0 -1
    outer loop
      vertex 45.2254 30.4037 3.8147e-07
      vertex 32.3564 51.2195 3.8147e-07
      vertex 44.0269 35.183 3.8147e-07
    endloop
  endfacet
  facet normal 0 0 -1
    outer loop
      vertex 44.0269 35.183 3.8147e-07
      vertex 32.3564 51.2195 3.8147e-07
      vertex 39.8361 47.03 3.8147e-07
    endloop
  endfacet
  facet normal -0 -0 -1
    outer loop
      vertex 38.5958 49.8051 3.8147e-07
      vertex 39.8361 47.03 3.8147e-07
      vertex 32.3564 51.2195 3.8147e-07
    endloop
  endfacet
  facet normal 0 0 -1
    outer loop
      vertex 39.8361 47.03 3.8147e-07
      vertex 38.5958 49.8051 3.8147e-07
      vertex 38.945 49.549 3.8147e-07
    endloop
  endfacet
  facet normal 0 0 -1
    outer loop
      vertex 38.5958 49.8051 3.8147e-07
      vertex 32.3564 51.2195 3.8147e-07
      vertex 36.6673 51.2195 3.8147e-07
    endloop
  endfacet
  facet normal 0.309019 -0.951056 0
    outer loop
      vertex 44.7801 12.9832 3.8147e-07
      vertex 47.9544 14.0146 21.9
      vertex 44.7801 12.9832 21.9
    endloop
  endfacet
  facet normal 0.309019 -0.951056 0
    outer loop
      vertex 47.9544 14.0146 21.9
      vertex 44.7801 12.9832 3.8147e-07
      vertex 47.9544 14.0146 3.8147e-07
    endloop
  endfacet
  facet normal -0 0 1
    outer loop
      vertex 35.7552 50.9527 1.4
      vertex 49.0077 15.8289 1.4
      vertex 37.4195 51.4935 1.4
    endloop
  endfacet
  facet normal 0 0 1
    outer loop
      vertex 49.0077 15.8289 1.4
      vertex 35.7552 50.9527 1.4
      vertex 44.3475 14.3147 1.4
    endloop
  endfacet
  facet normal 0 0 1
    outer loop
      vertex 33.984 50.3772 1.4
      vertex 35.7552 50.9527 1.4
      vertex 34.0062 51.0138 1.4
    endloop
  endfacet
  facet normal 0 0 1
    outer loop
      vertex 35.7552 50.9527 1.4
      vertex 33.984 50.3772 1.4
      vertex 44.3475 14.3147 1.4
    endloop
  endfacet
  facet normal 0 0 1
    outer loop
      vertex 44.3475 14.3147 1.4
      vertex 33.984 50.3772 1.4
      vertex 32.7593 49.9793 1.4
    endloop
  endfacet
  facet normal 0.951028 0.309105 0
    outer loop
      vertex 45.679 14.7473 15.0667
      vertex 45.5708 15.0802 8.23333
      vertex 45.5708 15.0802 15.0667
    endloop
  endfacet
  facet normal 0.951028 0.309105 0
    outer loop
      vertex 45.5708 15.0802 8.23333
      vertex 45.679 14.7473 15.0667
      vertex 45.679 14.7473 8.23333
    endloop
  endfacet
  facet normal 0.309057 -0.951044 0
    outer loop
      vertex 32.8675 49.6464 8.23333
      vertex 33.971 50.005 15.0667
      vertex 32.8675 49.6464 15.0667
    endloop
  endfacet
  facet normal 0.309057 -0.951044 0
    outer loop
      vertex 33.971 50.005 15.0667
      vertex 32.8675 49.6464 8.23333
      vertex 33.971 50.005 8.23333
    endloop
  endfacet
  facet normal -0.308997 0.951063 0
    outer loop
      vertex 45.5708 15.0802 8.23333
      vertex 44.2393 14.6476 15.0667
      vertex 45.5708 15.0802 15.0667
    endloop
  endfacet
  facet normal -0.308997 0.951063 0
    outer loop
      vertex 44.2393 14.6476 15.0667
      vertex 45.5708 15.0802 8.23333
      vertex 44.2393 14.6476 8.23333
    endloop
  endfacet
  facet normal 0 0 1
    outer loop
      vertex 32.7593 49.9793 15.0667
      vertex 33.971 50.005 15.0667
      vertex 33.984 50.3772 15.0667
    endloop
  endfacet
  facet normal 0 0 1
    outer loop
      vertex 33.971 50.005 15.0667
      vertex 32.7593 49.9793 15.0667
      vertex 32.8675 49.6464 15.0667
    endloop
  endfacet
  facet normal 0 0 1
    outer loop
      vertex 45.5708 15.0802 15.0667
      vertex 44.3475 14.3147 15.0667
      vertex 45.679 14.7473 15.0667
    endloop
  endfacet
  facet normal 0 -0 1
    outer loop
      vertex 44.3475 14.3147 15.0667
      vertex 45.5708 15.0802 15.0667
      vertex 44.2393 14.6476 15.0667
    endloop
  endfacet
  facet normal 0.308997 -0.951063 0
    outer loop
      vertex 32.7593 49.9793 15.0667
      vertex 33.984 50.3772 21.9
      vertex 32.7593 49.9793 21.9
    endloop
  endfacet
  facet normal 0.308997 -0.951063 0
    outer loop
      vertex 33.984 50.3772 21.9
      vertex 32.7593 49.9793 15.0667
      vertex 33.984 50.3772 15.0667
    endloop
  endfacet
  facet normal -0.30901 0.951059 -9.10304e-06
    outer loop
      vertex 45.679 14.7473 15.0667
      vertex 47.7292 15.4135 21.9
      vertex 49.0077 15.8289 21.9
    endloop
  endfacet
  facet normal -0.309022 0.951055 -5.30015e-06
    outer loop
      vertex 47.7292 15.4135 21.9
      vertex 45.679 14.7473 15.0667
      vertex 44.3475 14.3147 21.9
    endloop
  endfacet
  facet normal -0.309027 0.951053 0
    outer loop
      vertex 49.0077 15.8289 21.9
      vertex 45.679 14.7473 8.23333
      vertex 45.679 14.7473 15.0667
    endloop
  endfacet
  facet normal -0.309027 0.951053 0
    outer loop
      vertex 49.0077 15.8289 1.4
      vertex 45.679 14.7473 8.23333
      vertex 49.0077 15.8289 21.9
    endloop
  endfacet
  facet normal -0.309019 0.951056 4.62257e-06
    outer loop
      vertex 44.3475 14.3147 1.4
      vertex 45.679 14.7473 8.23333
      vertex 49.0077 15.8289 1.4
    endloop
  endfacet
  facet normal -0.308997 0.951063 0
    outer loop
      vertex 45.679 14.7473 8.23333
      vertex 44.3475 14.3147 1.4
      vertex 44.3475 14.3147 8.23333
    endloop
  endfacet
  facet normal -0.308997 0.951063 0
    outer loop
      vertex 44.3475 14.3147 21.9
      vertex 45.679 14.7473 15.0667
      vertex 44.3475 14.3147 15.0667
    endloop
  endfacet
  facet normal 0 0 -1
    outer loop
      vertex 32.7593 49.9793 8.23333
      vertex 33.971 50.005 8.23333
      vertex 32.8675 49.6464 8.23333
    endloop
  endfacet
  facet normal -0 0 -1
    outer loop
      vertex 33.971 50.005 8.23333
      vertex 32.7593 49.9793 8.23333
      vertex 33.984 50.3772 8.23333
    endloop
  endfacet
  facet normal 0 0 -1
    outer loop
      vertex 44.3475 14.3147 8.23333
      vertex 45.5708 15.0802 8.23333
      vertex 45.679 14.7473 8.23333
    endloop
  endfacet
  facet normal 0 0 -1
    outer loop
      vertex 45.5708 15.0802 8.23333
      vertex 44.3475 14.3147 8.23333
      vertex 44.2393 14.6476 8.23333
    endloop
  endfacet
  facet normal 0.308997 -0.951063 0
    outer loop
      vertex 32.7593 49.9793 1.4
      vertex 33.984 50.3772 8.23333
      vertex 32.7593 49.9793 8.23333
    endloop
  endfacet
  facet normal 0.308997 -0.951063 0
    outer loop
      vertex 33.984 50.3772 8.23333
      vertex 32.7593 49.9793 1.4
      vertex 33.984 50.3772 1.4
    endloop
  endfacet
  facet normal 0 0 -1
    outer loop
      vertex 47.1491 19.017 21.9
      vertex 49.0077 15.8289 21.9
      vertex 47.7292 15.4135 21.9
    endloop
  endfacet
  facet normal 0 0 -1
    outer loop
      vertex 49.0077 15.8289 21.9
      vertex 47.1491 19.017 21.9
      vertex 46.3411 24.0356 21.9
    endloop
  endfacet
  facet normal 0 0 -1
    outer loop
      vertex 36.6673 51.2195 21.9
      vertex 37.4195 51.4935 21.9
      vertex 37.7717 50.4095 21.9
    endloop
  endfacet
  facet normal 0 0 -1
    outer loop
      vertex 37.4195 51.4935 21.9
      vertex 36.6673 51.2195 21.9
      vertex 36.5762 51.2195 21.9
    endloop
  endfacet
  facet normal -0.95106 -0.309007 0
    outer loop
      vertex 37.4195 51.4935 1.4
      vertex 37.7717 50.4095 21.9
      vertex 37.4195 51.4935 21.9
    endloop
  endfacet
  facet normal -0.951057 -0.309017 -6.0163e-07
    outer loop
      vertex 37.4195 51.4935 1.4
      vertex 46.3411 24.0356 21.9
      vertex 37.7717 50.4095 21.9
    endloop
  endfacet
  facet normal -0.951056 -0.309019 -3.04575e-06
    outer loop
      vertex 49.0077 15.8289 1.4
      vertex 46.3411 24.0356 21.9
      vertex 37.4195 51.4935 1.4
    endloop
  endfacet
  facet normal -0.951054 -0.309026 0
    outer loop
      vertex 46.3411 24.0356 21.9
      vertex 49.0077 15.8289 1.4
      vertex 49.0077 15.8289 21.9
    endloop
  endfacet
  facet normal 0.30906 -0.951043 0
    outer loop
      vertex 35.7552 50.9527 1.4
      vertex 36.5762 51.2195 21.9
      vertex 35.7552 50.9527 21.9
    endloop
  endfacet
  facet normal 0.309036 -0.95105 1.07152e-06
    outer loop
      vertex 37.4195 51.4935 1.4
      vertex 36.5762 51.2195 21.9
      vertex 35.7552 50.9527 1.4
    endloop
  endfacet
  facet normal 0.309012 -0.951058 0
    outer loop
      vertex 36.5762 51.2195 21.9
      vertex 37.4195 51.4935 1.4
      vertex 37.4195 51.4935 21.9
    endloop
  endfacet
  facet normal 0.999391 -0.0349062 0
    outer loop
      vertex 33.971 50.005 15.0667
      vertex 33.984 50.3772 8.23333
      vertex 33.984 50.3772 15.0667
    endloop
  endfacet
  facet normal 0.999391 -0.0349062 0
    outer loop
      vertex 33.984 50.3772 8.23333
      vertex 33.971 50.005 15.0667
      vertex 33.971 50.005 8.23333
    endloop
  endfacet
  facet normal 0.999392 -0.0348516 0
    outer loop
      vertex 33.984 50.3772 15.0667
      vertex 34.0062 51.0138 21.9
      vertex 33.984 50.3772 21.9
    endloop
  endfacet
  facet normal 0.999392 -0.0348516 0
    outer loop
      vertex 34.0062 51.0138 21.9
      vertex 33.984 50.3772 15.0667
      vertex 34.0062 51.0138 1.4
    endloop
  endfacet
  facet normal 0.999392 -0.0348516 0
    outer loop
      vertex 33.984 50.3772 8.23333
      vertex 34.0062 51.0138 1.4
      vertex 33.984 50.3772 15.0667
    endloop
  endfacet
  facet normal 0.999392 -0.0348516 0
    outer loop
      vertex 34.0062 51.0138 1.4
      vertex 33.984 50.3772 8.23333
      vertex 33.984 50.3772 1.4
    endloop
  endfacet
  facet normal -0.034913 -0.99939 0
    outer loop
      vertex 34.0062 51.0138 1.4
      vertex 35.7552 50.9527 21.9
      vertex 34.0062 51.0138 21.9
    endloop
  endfacet
  facet normal -0.034913 -0.99939 -0
    outer loop
      vertex 35.7552 50.9527 21.9
      vertex 34.0062 51.0138 1.4
      vertex 35.7552 50.9527 1.4
    endloop
  endfacet
  facet normal 0 -1 0
    outer loop
      vertex 24.3242 51.2195 0
      vertex 22.1354 51.2195 29
      vertex 22.0917 51.2195 0
    endloop
  endfacet
  facet normal 0 -1 0
    outer loop
      vertex 22.1354 51.2195 29
      vertex 24.3242 51.2195 0
      vertex 30.843 51.2195 29
    endloop
  endfacet
  facet normal 0 1 0
    outer loop
      vertex 22.8868 54.6232 0
      vertex 27.0331 54.6232 29
      vertex 34.7994 54.6232 0
    endloop
  endfacet
  facet normal 0 1 0
    outer loop
      vertex 27.0331 54.6232 29
      vertex 22.8868 54.6232 0
      vertex 22.8868 54.6232 29
    endloop
  endfacet
  facet normal 0 1 -0
    outer loop
      vertex 37.4775 54.6232 0
      vertex 37.4261 54.6232 29
      vertex 37.4775 54.6232 29
    endloop
  endfacet
  facet normal 0 1 0
    outer loop
      vertex 37.4261 54.6232 29
      vertex 37.4775 54.6232 0
      vertex 37.4643 54.6232 0
    endloop
  endfacet
  facet normal 0 1 0
    outer loop
      vertex 34.7994 54.6232 0
      vertex 37.4261 54.6232 29
      vertex 37.4643 54.6232 0
    endloop
  endfacet
  facet normal 0 1 0
    outer loop
      vertex 37.4261 54.6232 29
      vertex 34.7994 54.6232 0
      vertex 27.0331 54.6232 29
    endloop
  endfacet
  facet normal 0 -1 0
    outer loop
      vertex 30.843 51.2195 29
      vertex 32.3564 51.2195 21.9
      vertex 36.6673 51.2195 29
    endloop
  endfacet
  facet normal 0 -1 0
    outer loop
      vertex 24.3242 51.2195 0
      vertex 32.3564 51.2195 21.9
      vertex 30.843 51.2195 29
    endloop
  endfacet
  facet normal 0 -1 -0
    outer loop
      vertex 32.3564 51.2195 21.9
      vertex 24.3242 51.2195 0
      vertex 32.3564 51.2195 3.8147e-07
    endloop
  endfacet
  facet normal 0 -1 0
    outer loop
      vertex 36.6673 51.2195 0
      vertex 32.3564 51.2195 3.8147e-07
      vertex 24.3242 51.2195 0
    endloop
  endfacet
  facet normal 0 -1 0
    outer loop
      vertex 32.3564 51.2195 3.8147e-07
      vertex 36.6673 51.2195 0
      vertex 36.6673 51.2195 3.8147e-07
    endloop
  endfacet
  facet normal 0 -1 0
    outer loop
      vertex 36.5762 51.2195 21.9
      vertex 36.6673 51.2195 29
      vertex 32.3564 51.2195 21.9
    endloop
  endfacet
  facet normal 0 -1 -0
    outer loop
      vertex 36.6673 51.2195 29
      vertex 36.5762 51.2195 21.9
      vertex 36.6673 51.2195 21.9
    endloop
  endfacet
  facet normal 0 1 -0
    outer loop
      vertex 21.6113 56.5476 0
      vertex 21.5446 56.5476 29
      vertex 21.6113 56.5476 29
    endloop
  endfacet
  facet normal 0 1 0
    outer loop
      vertex 21.5446 56.5476 29
      vertex 21.6113 56.5476 0
      vertex 21.5942 56.5476 0
    endloop
  endfacet
  facet normal 0 1 0
    outer loop
      vertex 21.5942 56.5476 0
      vertex 20 56.5476 29
      vertex 21.5446 56.5476 29
    endloop
  endfacet
  facet normal 0 1 0
    outer loop
      vertex 20 56.5476 29
      vertex 21.5942 56.5476 0
      vertex 20 56.5476 0
    endloop
  endfacet
  facet normal 0 -1 0
    outer loop
      vertex 20 53.159 0
      vertex 20.8815 53.159 29
      vertex 20 53.159 29
    endloop
  endfacet
  facet normal 0 -1 -0
    outer loop
      vertex 20.8815 53.159 29
      vertex 20 53.159 0
      vertex 20.8815 53.159 0
    endloop
  endfacet
  facet normal -0.851279 -0.524714 0
    outer loop
      vertex 21.0952 52.8123 0
      vertex 20.8815 53.159 29
      vertex 20.8815 53.159 0
    endloop
  endfacet
  facet normal -0.851327 -0.524635 -1.30324e-06
    outer loop
      vertex 20.8815 53.159 29
      vertex 21.0952 52.8123 0
      vertex 21.7148 51.8068 29
    endloop
  endfacet
  facet normal 0.83355 0.552445 0
    outer loop
      vertex 21.9281 56.0696 29
      vertex 21.6113 56.5476 0
      vertex 21.6113 56.5476 29
    endloop
  endfacet
  facet normal 0.833525 0.552482 8.84377e-07
    outer loop
      vertex 21.6113 56.5476 0
      vertex 21.9281 56.0696 29
      vertex 22.641 54.9941 0
    endloop
  endfacet
  facet normal 0.833528 0.552477 1.12692e-06
    outer loop
      vertex 22.8868 54.6232 29
      vertex 22.641 54.9941 0
      vertex 21.9281 56.0696 29
    endloop
  endfacet
  facet normal 0.833568 0.552416 0
    outer loop
      vertex 22.641 54.9941 0
      vertex 22.8868 54.6232 29
      vertex 22.8868 54.6232 0
    endloop
  endfacet
  facet normal -0.851368 -0.524569 1.86489e-06
    outer loop
      vertex 22.0766 51.2195 0
      vertex 21.7148 51.8068 29
      vertex 21.0952 52.8123 0
    endloop
  endfacet
  facet normal -0.851409 -0.524502 0
    outer loop
      vertex 21.7148 51.8068 29
      vertex 22.0766 51.2195 0
      vertex 22.0766 51.2195 29
    endloop
  endfacet
  facet normal 0 -1 0
    outer loop
      vertex 22.0766 51.2195 0
      vertex 22.1354 51.2195 29
      vertex 22.0766 51.2195 29
    endloop
  endfacet
  facet normal 0 -1 0
    outer loop
      vertex 22.1354 51.2195 29
      vertex 22.0766 51.2195 0
      vertex 22.0917 51.2195 0
    endloop
  endfacet
  facet normal -0.942751 -0.333499 6.14044e-06
    outer loop
      vertex 44.0269 35.183 21.9
      vertex 42.4206 39.7239 29
      vertex 41.7878 41.5126 21.9
    endloop
  endfacet
  facet normal -0.942754 -0.33349 0
    outer loop
      vertex 42.4206 39.7239 29
      vertex 44.0269 35.183 21.9
      vertex 44.0269 35.183 29
    endloop
  endfacet
  facet normal -0.942753 -0.333493 0
    outer loop
      vertex 44.0269 35.183 0
      vertex 39.8361 47.03 3.8147e-07
      vertex 39.8361 47.03 0
    endloop
  endfacet
  facet normal -0.942753 -0.333493 0
    outer loop
      vertex 39.8361 47.03 3.8147e-07
      vertex 44.0269 35.183 0
      vertex 44.0269 35.183 3.8147e-07
    endloop
  endfacet
  facet normal 0.942747 0.333508 4.45867e-07
    outer loop
      vertex 42.051 51.2309 29
      vertex 42.9449 48.7041 0
      vertex 42.0375 51.2691 0
    endloop
  endfacet
  facet normal 0.942753 0.333492 1.99989e-06
    outer loop
      vertex 42.9449 48.7041 0
      vertex 42.051 51.2309 29
      vertex 45.5896 41.2276 29
    endloop
  endfacet
  facet normal -0.942754 -0.33349 0
    outer loop
      vertex 41.7878 41.5126 21.9
      vertex 38.945 49.549 29
      vertex 38.945 49.549 21.9
    endloop
  endfacet
  facet normal -0.942752 -0.333496 6.9946e-06
    outer loop
      vertex 38.945 49.549 29
      vertex 41.7878 41.5126 21.9
      vertex 42.4206 39.7239 29
    endloop
  endfacet
  facet normal -0.94275 -0.333499 0
    outer loop
      vertex 39.8361 47.03 0
      vertex 38.945 49.549 3.8147e-07
      vertex 38.945 49.549 0
    endloop
  endfacet
  facet normal -0.94275 -0.333499 0
    outer loop
      vertex 38.945 49.549 3.8147e-07
      vertex 39.8361 47.03 0
      vertex 39.8361 47.03 3.8147e-07
    endloop
  endfacet
  facet normal 0.942754 0.333488 7.07709e-07
    outer loop
      vertex 45.5896 41.2276 29
      vertex 47.1495 36.8179 0
      vertex 42.9449 48.7041 0
    endloop
  endfacet
  facet normal 0.942754 0.33349 3.52342e-07
    outer loop
      vertex 47.1495 36.8179 0
      vertex 45.5896 41.2276 29
      vertex 47.1647 36.7749 29
    endloop
  endfacet
  facet normal 0.941493 0.337033 6.26567e-06
    outer loop
      vertex 47.1739 36.7492 29
      vertex 47.1495 36.8179 0
      vertex 47.1647 36.7749 29
    endloop
  endfacet
  facet normal 0.942762 0.333466 -3.2509e-06
    outer loop
      vertex 47.1495 36.8179 0
      vertex 47.1739 36.7492 29
      vertex 47.1738 36.7492 0
    endloop
  endfacet
  facet normal -0.987287 -0.158945 0
    outer loop
      vertex 46.3411 24.0356 21.9
      vertex 45.4782 29.3955 29
      vertex 45.4782 29.3955 21.9
    endloop
  endfacet
  facet normal -0.987286 -0.158954 -3.97496e-06
    outer loop
      vertex 47.521 16.7069 29
      vertex 46.3411 24.0356 21.9
      vertex 47.1491 19.017 21.9
    endloop
  endfacet
  facet normal -0.987287 -0.158948 2.30994e-06
    outer loop
      vertex 46.3411 24.0356 21.9
      vertex 47.521 16.7069 29
      vertex 45.4782 29.3955 29
    endloop
  endfacet
  facet normal -0.987284 -0.158963 0
    outer loop
      vertex 46.002 26.1423 0
      vertex 45.4782 29.3955 3.8147e-07
      vertex 45.4782 29.3955 0
    endloop
  endfacet
  facet normal -0.987284 -0.158963 0
    outer loop
      vertex 45.4782 29.3955 3.8147e-07
      vertex 46.002 26.1423 0
      vertex 46.002 26.1423 3.8147e-07
    endloop
  endfacet
  facet normal 0.987288 0.158941 2.03505e-07
    outer loop
      vertex 51.4491 13.7607 29
      vertex 50.9631 16.7796 0
      vertex 49.5181 25.7554 29
    endloop
  endfacet
  facet normal 0.987284 0.158967 2.94759e-06
    outer loop
      vertex 50.9631 16.7796 0
      vertex 51.4491 13.7607 29
      vertex 51.4583 13.7041 0
    endloop
  endfacet
  facet normal 0.98758 0.157115 0
    outer loop
      vertex 48.7822 30.326 29
      vertex 48.778 30.3524 0
      vertex 48.778 30.3524 29
    endloop
  endfacet
  facet normal 0.987203 0.159471 2.1996e-06
    outer loop
      vertex 48.778 30.3524 0
      vertex 48.7822 30.326 29
      vertex 48.7906 30.2744 0
    endloop
  endfacet
  facet normal 0.987285 0.15896 3.13286e-06
    outer loop
      vertex 49.5181 25.7554 29
      vertex 48.7906 30.2744 0
      vertex 48.7822 30.326 29
    endloop
  endfacet
  facet normal 0.987288 0.158941 1.52628e-07
    outer loop
      vertex 48.7906 30.2744 0
      vertex 49.5181 25.7554 29
      vertex 50.9631 16.7796 0
    endloop
  endfacet
  facet normal -0.987288 -0.15894 0
    outer loop
      vertex 46.002 26.1423 0
      vertex 47.9544 14.0146 3.8147e-07
      vertex 46.002 26.1423 3.8147e-07
    endloop
  endfacet
  facet normal -0.00584781 -0.000941452 -0.999982
    outer loop
      vertex 47.9544 14.0146 3.8147e-07
      vertex 46.002 26.1423 0
      vertex 48.1308 12.9193 0
    endloop
  endfacet
  facet normal -0.987289 -0.158936 2.03131e-06
    outer loop
      vertex 47.7292 15.4135 21.9
      vertex 47.521 16.7069 29
      vertex 47.1491 19.017 21.9
    endloop
  endfacet
  facet normal -0.987289 -0.158937 1.03777e-05
    outer loop
      vertex 48.1308 12.9193 29
      vertex 47.7292 15.4135 21.9
      vertex 47.9544 14.0146 21.9
    endloop
  endfacet
  facet normal -0.987278 -0.159003 0
    outer loop
      vertex 48.1308 12.9193 0
      vertex 47.9544 14.0146 21.9
      vertex 47.9544 14.0146 3.8147e-07
    endloop
  endfacet
  facet normal -0.987286 -0.158952 5.02969e-06
    outer loop
      vertex 47.7292 15.4135 21.9
      vertex 48.1308 12.9193 29
      vertex 47.521 16.7069 29
    endloop
  endfacet
  facet normal -0.987278 -0.159003 -0
    outer loop
      vertex 48.1308 12.9193 29
      vertex 47.9544 14.0146 21.9
      vertex 48.1308 12.9193 0
    endloop
  endfacet
  facet normal 1 0 0
    outer loop
      vertex 52.0115 6.7 29
      vertex 52.0115 5.25 17.9
      vertex 52.0115 6.7 0
    endloop
  endfacet
  facet normal 1 0 0
    outer loop
      vertex 52.0115 6.7 29
      vertex 52.0115 -1.28371 17.9
      vertex 52.0115 5.25 17.9
    endloop
  endfacet
  facet normal 1 0 0
    outer loop
      vertex 52.0115 -1.28371 17.9
      vertex 52.0115 -10.7 29
      vertex 52.0115 -10.7 0
    endloop
  endfacet
  facet normal 1 -0 0
    outer loop
      vertex 52.0115 -10.7 29
      vertex 52.0115 -1.28371 17.9
      vertex 52.0115 6.7 29
    endloop
  endfacet
  facet normal 1 -0 0
    outer loop
      vertex 52.0115 5.25 10.9
      vertex 52.0115 6.7 0
      vertex 52.0115 5.25 17.9
    endloop
  endfacet
  facet normal 1 -0 0
    outer loop
      vertex 52.0115 -1.28371 10.9
      vertex 52.0115 6.7 0
      vertex 52.0115 5.25 10.9
    endloop
  endfacet
  facet normal 1 0 0
    outer loop
      vertex 52.0115 -1.28371 10.9
      vertex 52.0115 -10.7 0
      vertex 52.0115 6.7 0
    endloop
  endfacet
  facet normal 1 0 0
    outer loop
      vertex 52.0115 -10.7 0
      vertex 52.0115 -1.28371 10.9
      vertex 52.0115 -1.28371 17.9
    endloop
  endfacet
  facet normal -1 0 0
    outer loop
      vertex 48.6285 0.65 1.4
      vertex 48.6285 6.59999 0
      vertex 48.6285 0.65 3.8147e-07
    endloop
  endfacet
  facet normal -1 0 0
    outer loop
      vertex 48.6285 6.59999 0
      vertex 48.6285 -4.65 3.8147e-07
      vertex 48.6285 0.65 3.8147e-07
    endloop
  endfacet
  facet normal -1 -0 0
    outer loop
      vertex 48.6285 -4.65 3.8147e-07
      vertex 48.6285 -10.6 0
      vertex 48.6285 -4.65 27.4
    endloop
  endfacet
  facet normal -1 0 0
    outer loop
      vertex 48.6285 -10.6 0
      vertex 48.6285 -4.65 3.8147e-07
      vertex 48.6285 6.59999 0
    endloop
  endfacet
  facet normal -1 0 0
    outer loop
      vertex 48.6285 6.33267 10.9
      vertex 48.6285 6.6 29
      vertex 48.6285 6.59999 0
    endloop
  endfacet
  facet normal -1 0 0
    outer loop
      vertex 48.6285 6.33267 17.9
      vertex 48.6285 6.6 29
      vertex 48.6285 6.33267 10.9
    endloop
  endfacet
  facet normal -1 0 0
    outer loop
      vertex 48.6285 -0.0523974 27.4
      vertex 48.6285 6.33267 17.9
      vertex 48.6285 -0.0523973 17.9
    endloop
  endfacet
  facet normal -1 0 0
    outer loop
      vertex 48.6285 6.33267 17.9
      vertex 48.6285 -0.0523974 27.4
      vertex 48.6285 6.6 29
    endloop
  endfacet
  facet normal -1 0 0
    outer loop
      vertex 48.6285 -3.25 27.4
      vertex 48.6285 6.6 29
      vertex 48.6285 -0.0523974 27.4
    endloop
  endfacet
  facet normal -1 0 0
    outer loop
      vertex 48.6285 -10.6 29
      vertex 48.6285 -3.25 27.4
      vertex 48.6285 -4.65 27.4
    endloop
  endfacet
  facet normal -1 0 0
    outer loop
      vertex 48.6285 -3.25 27.4
      vertex 48.6285 -10.6 29
      vertex 48.6285 6.6 29
    endloop
  endfacet
  facet normal -1 0 0
    outer loop
      vertex 48.6285 -10.6 29
      vertex 48.6285 -4.65 27.4
      vertex 48.6285 -10.6 0
    endloop
  endfacet
  facet normal -1 0 0
    outer loop
      vertex 48.6285 6.59999 0
      vertex 48.6285 0.65 1.4
      vertex 48.6285 6.33267 10.9
    endloop
  endfacet
  facet normal -1 0 0
    outer loop
      vertex 48.6285 -0.0523972 10.9
      vertex 48.6285 0.65 1.4
      vertex 48.6285 -0.052397 1.4
    endloop
  endfacet
  facet normal -1 0 0
    outer loop
      vertex 48.6285 0.65 1.4
      vertex 48.6285 -0.0523972 10.9
      vertex 48.6285 6.33267 10.9
    endloop
  endfacet
  facet normal 0.969971 0.243221 -0
    outer loop
      vertex 48.778 30.3524 0
      vertex 48.3356 32.1167 29
      vertex 48.778 30.3524 29
    endloop
  endfacet
  facet normal 0.969965 0.243245 -1.56345e-06
    outer loop
      vertex 48.3356 32.1167 29
      vertex 48.778 30.3524 0
      vertex 47.4717 35.5614 0
    endloop
  endfacet
  facet normal -0.969964 -0.243249 0
    outer loop
      vertex 44.0269 35.183 21.9
      vertex 44.4922 33.3276 29
      vertex 44.0269 35.183 29
    endloop
  endfacet
  facet normal -0.969965 -0.243246 9.26634e-07
    outer loop
      vertex 44.4922 33.3276 29
      vertex 44.0269 35.183 21.9
      vertex 44.6717 32.6118 21.9
    endloop
  endfacet
  facet normal -0.969967 -0.243238 0
    outer loop
      vertex 45.2254 30.4037 0
      vertex 44.0269 35.183 3.8147e-07
      vertex 44.0269 35.183 0
    endloop
  endfacet
  facet normal -0.969967 -0.243238 0
    outer loop
      vertex 44.0269 35.183 3.8147e-07
      vertex 45.2254 30.4037 0
      vertex 45.2254 30.4037 3.8147e-07
    endloop
  endfacet
  facet normal -0.96997 -0.243226 -1.15175e-06
    outer loop
      vertex 44.6717 32.6118 21.9
      vertex 45.4782 29.3955 29
      vertex 44.4922 33.3276 29
    endloop
  endfacet
  facet normal -0.96997 -0.243224 -0
    outer loop
      vertex 45.4782 29.3955 29
      vertex 44.6717 32.6118 21.9
      vertex 45.4782 29.3955 21.9
    endloop
  endfacet
  facet normal -0.969972 -0.243215 0
    outer loop
      vertex 45.4782 29.3955 0
      vertex 45.2254 30.4037 3.8147e-07
      vertex 45.2254 30.4037 0
    endloop
  endfacet
  facet normal -0.969972 -0.243215 0
    outer loop
      vertex 45.2254 30.4037 3.8147e-07
      vertex 45.4782 29.3955 0
      vertex 45.4782 29.3955 3.8147e-07
    endloop
  endfacet
  facet normal 0.96996 0.243266 -3.34469e-06
    outer loop
      vertex 47.1739 36.7492 29
      vertex 47.4717 35.5614 0
      vertex 47.1738 36.7492 0
    endloop
  endfacet
  facet normal 0.969966 0.24324 -2.22928e-06
    outer loop
      vertex 47.4717 35.5614 0
      vertex 47.1739 36.7492 29
      vertex 48.3356 32.1167 29
    endloop
  endfacet
  facet normal -0.996912 -0.0785306 0
    outer loop
      vertex 48.23 11.66 0
      vertex 48.1308 12.9193 29
      vertex 48.1308 12.9193 0
    endloop
  endfacet
  facet normal -0.996913 -0.0785115 -8.37049e-07
    outer loop
      vertex 48.1308 12.9193 29
      vertex 48.23 11.66 0
      vertex 48.5176 8.00784 29
    endloop
  endfacet
  facet normal 0.996912 0.0785332 -2.70804e-07
    outer loop
      vertex 51.4614 13.6846 29
      vertex 51.5742 12.2526 0
      vertex 51.4614 13.6845 0
    endloop
  endfacet
  facet normal 0.996912 0.0785271 3.04823e-08
    outer loop
      vertex 51.5742 12.2526 0
      vertex 51.4614 13.6846 29
      vertex 51.9013 8.10001 29
    endloop
  endfacet
  facet normal -0.996913 -0.0785117 -8.62015e-07
    outer loop
      vertex 48.6285 6.59999 0
      vertex 48.5176 8.00784 29
      vertex 48.23 11.66 0
    endloop
  endfacet
  facet normal -0.996912 -0.0785299 2.70793e-08
    outer loop
      vertex 48.5176 8.00784 29
      vertex 48.6285 6.59999 0
      vertex 48.6285 6.6 29
    endloop
  endfacet
  facet normal 0.987301 0.158861 -3.62179e-07
    outer loop
      vertex 51.4614 13.6846 29
      vertex 51.4583 13.7038 0
      vertex 51.4493 13.7598 29
    endloop
  endfacet
  facet normal 0.987345 0.158589 -5.46859e-07
    outer loop
      vertex 51.4583 13.7038 0
      vertex 51.4614 13.6846 29
      vertex 51.4614 13.6845 0
    endloop
  endfacet
  facet normal 0.976187 0.21693 -0.000113701
    outer loop
      vertex 51.4493 13.7598 29
      vertex 51.4583 13.7041 0
      vertex 51.4491 13.7607 29
    endloop
  endfacet
  facet normal 1 0 0.000310345
    outer loop
      vertex 51.4583 13.7041 0
      vertex 51.4493 13.7598 29
      vertex 51.4583 13.7038 0
    endloop
  endfacet
  facet normal 0.996916 0.078471 -0
    outer loop
      vertex 52.0115 6.7 0
      vertex 51.9013 8.10001 29
      vertex 52.0115 6.7 29
    endloop
  endfacet
  facet normal 0.996913 0.0785128 -2.02975e-06
    outer loop
      vertex 51.9013 8.10001 29
      vertex 52.0115 6.7 0
      vertex 51.5742 12.2526 0
    endloop
  endfacet
  facet normal -0.996912 0.0785295 0
    outer loop
      vertex 48.2819 -15 5.24087
      vertex 48.6285 -10.6 29
      vertex 48.6285 -10.6 0
    endloop
  endfacet
  facet normal -0.996912 0.0785295 0
    outer loop
      vertex 48.2819 -15 5.24087
      vertex 48.6285 -10.6 0
      vertex 48.2819 -15 0
    endloop
  endfacet
  facet normal -0.996912 0.0785321 -4.92374e-07
    outer loop
      vertex 48.6285 -10.6 29
      vertex 48.2819 -15 5.24087
      vertex 48.5176 -12.0078 29
    endloop
  endfacet
  facet normal 0.996916 -0.0784716 -1.12514e-05
    outer loop
      vertex 51.6728 -15 8.7477
      vertex 52.0115 -10.7 29
      vertex 51.9013 -12.1 29
    endloop
  endfacet
  facet normal 0.996912 -0.0785242 0
    outer loop
      vertex 52.0115 -10.7 29
      vertex 51.6728 -15 8.7477
      vertex 52.0115 -10.7 0
    endloop
  endfacet
  facet normal 0.996912 -0.0785242 0
    outer loop
      vertex 52.0115 -10.7 0
      vertex 51.6728 -15 8.7477
      vertex 51.6728 -15 0
    endloop
  endfacet
  facet normal -0.996914 0.0784951 4.19592e-06
    outer loop
      vertex 48.282 -15 29
      vertex 48.5176 -12.0078 29
      vertex 48.2819 -15 5.24087
    endloop
  endfacet
  facet normal 0.996913 -0.0785155 -4.92247e-06
    outer loop
      vertex 51.9013 -12.1 29
      vertex 51.6729 -15 29
      vertex 51.6728 -15 8.7477
    endloop
  endfacet
  facet normal 0.941907 0.335874 0
    outer loop
      vertex 42.0329 51.2822 29
      vertex 42.0375 51.2693 0
      vertex 42.0329 51.2822 0
    endloop
  endfacet
  facet normal 0.942542 0.334089 8.94594e-07
    outer loop
      vertex 42.0375 51.2693 0
      vertex 42.0329 51.2822 29
      vertex 42.0508 51.2317 29
    endloop
  endfacet
  facet normal 0.591393 0.806384 -0
    outer loop
      vertex 42.0329 51.2822 0
      vertex 40.2344 52.6012 29
      vertex 42.0329 51.2822 29
    endloop
  endfacet
  facet normal 0.5914 0.806378 6.84587e-07
    outer loop
      vertex 40.2344 52.6012 29
      vertex 42.0329 51.2822 0
      vertex 38.1844 54.1047 0
    endloop
  endfacet
  facet normal -0.591444 -0.806346 0
    outer loop
      vertex 36.6673 51.2195 21.9
      vertex 37.5832 50.5477 29
      vertex 36.6673 51.2195 29
    endloop
  endfacet
  facet normal -0.591414 -0.806368 -5.85347e-06
    outer loop
      vertex 37.7717 50.4095 21.9
      vertex 37.5832 50.5477 29
      vertex 36.6673 51.2195 21.9
    endloop
  endfacet
  facet normal -0.59107 -0.80662 8.21036e-06
    outer loop
      vertex 37.5832 50.5477 29
      vertex 37.7717 50.4095 21.9
      vertex 37.8312 50.3659 21.9
    endloop
  endfacet
  facet normal -0.591409 -0.806372 0
    outer loop
      vertex 36.6673 51.2195 0
      vertex 38.5958 49.8051 3.8147e-07
      vertex 36.6673 51.2195 3.8147e-07
    endloop
  endfacet
  facet normal -0.591409 -0.806372 -0
    outer loop
      vertex 38.5958 49.8051 3.8147e-07
      vertex 36.6673 51.2195 0
      vertex 38.5958 49.8051 0
    endloop
  endfacet
  facet normal 0.591416 0.806367 -1.01716e-06
    outer loop
      vertex 38.1844 54.1047 0
      vertex 37.4775 54.6232 29
      vertex 40.2344 52.6012 29
    endloop
  endfacet
  facet normal 0.591443 0.806347 0
    outer loop
      vertex 37.4775 54.6232 29
      vertex 38.1844 54.1047 0
      vertex 37.4775 54.6232 0
    endloop
  endfacet
  facet normal 1 0 -0.000458621
    outer loop
      vertex 42.0508 51.2317 29
      vertex 42.0375 51.2691 0
      vertex 42.0375 51.2693 0
    endloop
  endfacet
  facet normal 0.970142 0.242536 -0.00013214
    outer loop
      vertex 42.0375 51.2691 0
      vertex 42.0508 51.2317 29
      vertex 42.051 51.2309 29
    endloop
  endfacet
  facet normal -0.591382 -0.806392 -8.53699e-06
    outer loop
      vertex 37.8312 50.3659 21.9
      vertex 38.945 49.549 29
      vertex 37.5832 50.5477 29
    endloop
  endfacet
  facet normal -0.591417 -0.806366 -0
    outer loop
      vertex 38.945 49.549 29
      vertex 37.8312 50.3659 21.9
      vertex 38.945 49.549 21.9
    endloop
  endfacet
  facet normal -0.591394 -0.806383 0
    outer loop
      vertex 38.5958 49.8051 0
      vertex 38.945 49.549 3.8147e-07
      vertex 38.5958 49.8051 3.8147e-07
    endloop
  endfacet
  facet normal -0.591394 -0.806383 -0
    outer loop
      vertex 38.945 49.549 3.8147e-07
      vertex 38.5958 49.8051 0
      vertex 38.945 49.549 0
    endloop
  endfacet
  facet normal 0 0 -1
    outer loop
      vertex 48.6285 -10.6 0
      vertex 52.0115 -10.7 0
      vertex 51.6728 -15 0
    endloop
  endfacet
  facet normal 0 0 -1
    outer loop
      vertex 52.0115 -10.7 0
      vertex 48.6285 -10.6 0
      vertex 52.0115 6.7 0
    endloop
  endfacet
  facet normal 0 0 -1
    outer loop
      vertex 48.23 11.66 0
      vertex 52.0115 6.7 0
      vertex 48.6285 6.59999 0
    endloop
  endfacet
  facet normal 0 0 -1
    outer loop
      vertex 52.0115 6.7 0
      vertex 48.23 11.66 0
      vertex 51.5742 12.2526 0
    endloop
  endfacet
  facet normal 0 0 -1
    outer loop
      vertex 48.1308 12.9193 0
      vertex 51.5742 12.2526 0
      vertex 48.23 11.66 0
    endloop
  endfacet
  facet normal 0 0 -1
    outer loop
      vertex 51.5742 12.2526 0
      vertex 48.1308 12.9193 0
      vertex 51.4614 13.6845 0
    endloop
  endfacet
  facet normal -0 0 -1
    outer loop
      vertex 51.4614 13.6845 0
      vertex 48.1308 12.9193 0
      vertex 51.4583 13.7038 0
    endloop
  endfacet
  facet normal -0 0 -1
    outer loop
      vertex 51.4583 13.7038 0
      vertex 48.1308 12.9193 0
      vertex 51.4583 13.7041 0
    endloop
  endfacet
  facet normal 0 0 -1
    outer loop
      vertex 52.0115 6.7 0
      vertex 48.6285 -10.6 0
      vertex 48.6285 6.59999 0
    endloop
  endfacet
  facet normal 0 -0 -1
    outer loop
      vertex 48.6285 -10.6 0
      vertex 51.6728 -15 0
      vertex 48.2819 -15 0
    endloop
  endfacet
  facet normal -0 0 -1
    outer loop
      vertex 51.4583 13.7041 0
      vertex 48.1308 12.9193 0
      vertex 50.9631 16.7796 0
    endloop
  endfacet
  facet normal 0 0 -1
    outer loop
      vertex 46.002 26.1423 0
      vertex 50.9631 16.7796 0
      vertex 48.1308 12.9193 0
    endloop
  endfacet
  facet normal 0 0 -1
    outer loop
      vertex 50.9631 16.7796 0
      vertex 46.002 26.1423 0
      vertex 48.7906 30.2744 0
    endloop
  endfacet
  facet normal 0 0 -1
    outer loop
      vertex 45.4782 29.3955 0
      vertex 48.7906 30.2744 0
      vertex 46.002 26.1423 0
    endloop
  endfacet
  facet normal -0 0 -1
    outer loop
      vertex 48.7906 30.2744 0
      vertex 45.4782 29.3955 0
      vertex 48.778 30.3524 0
    endloop
  endfacet
  facet normal 0 0 -1
    outer loop
      vertex 45.2254 30.4037 0
      vertex 48.778 30.3524 0
      vertex 45.4782 29.3955 0
    endloop
  endfacet
  facet normal 0 0 -1
    outer loop
      vertex 48.778 30.3524 0
      vertex 45.2254 30.4037 0
      vertex 47.4717 35.5614 0
    endloop
  endfacet
  facet normal 0 0 -1
    outer loop
      vertex 44.0269 35.183 0
      vertex 47.4717 35.5614 0
      vertex 45.2254 30.4037 0
    endloop
  endfacet
  facet normal -0 0 -1
    outer loop
      vertex 47.4717 35.5614 0
      vertex 44.0269 35.183 0
      vertex 47.1738 36.7492 0
    endloop
  endfacet
  facet normal -0 0 -1
    outer loop
      vertex 47.1738 36.7492 0
      vertex 44.0269 35.183 0
      vertex 47.1495 36.8179 0
    endloop
  endfacet
  facet normal 0 0 -1
    outer loop
      vertex 39.8361 47.03 0
      vertex 47.1495 36.8179 0
      vertex 44.0269 35.183 0
    endloop
  endfacet
  facet normal 0 0 -1
    outer loop
      vertex 47.1495 36.8179 0
      vertex 39.8361 47.03 0
      vertex 42.9449 48.7041 0
    endloop
  endfacet
  facet normal 0 0 -1
    outer loop
      vertex 38.945 49.549 0
      vertex 42.9449 48.7041 0
      vertex 39.8361 47.03 0
    endloop
  endfacet
  facet normal 0 0 -1
    outer loop
      vertex 42.9449 48.7041 0
      vertex 38.945 49.549 0
      vertex 42.0375 51.2691 0
    endloop
  endfacet
  facet normal -0 0 -1
    outer loop
      vertex 42.0375 51.2691 0
      vertex 38.945 49.549 0
      vertex 42.0375 51.2693 0
    endloop
  endfacet
  facet normal -0 0 -1
    outer loop
      vertex 42.0375 51.2693 0
      vertex 38.945 49.549 0
      vertex 42.0329 51.2822 0
    endloop
  endfacet
  facet normal 0 0 -1
    outer loop
      vertex 38.5958 49.8051 0
      vertex 42.0329 51.2822 0
      vertex 38.945 49.549 0
    endloop
  endfacet
  facet normal 0 0 -1
    outer loop
      vertex 38.5958 49.8051 0
      vertex 38.1844 54.1047 0
      vertex 42.0329 51.2822 0
    endloop
  endfacet
  facet normal 0 0 -1
    outer loop
      vertex 36.6673 51.2195 0
      vertex 38.1844 54.1047 0
      vertex 38.5958 49.8051 0
    endloop
  endfacet
  facet normal 0 -0 -1
    outer loop
      vertex 37.4643 54.6232 0
      vertex 38.1844 54.1047 0
      vertex 36.6673 51.2195 0
    endloop
  endfacet
  facet normal 0 0 -1
    outer loop
      vertex 38.1844 54.1047 0
      vertex 37.4643 54.6232 0
      vertex 37.4775 54.6232 0
    endloop
  endfacet
  facet normal 0 0 -1
    outer loop
      vertex 36.6673 51.2195 0
      vertex 34.7994 54.6232 0
      vertex 37.4643 54.6232 0
    endloop
  endfacet
  facet normal 0 0 -1
    outer loop
      vertex 24.3242 51.2195 0
      vertex 34.7994 54.6232 0
      vertex 36.6673 51.2195 0
    endloop
  endfacet
  facet normal 0 0 -1
    outer loop
      vertex 24.3242 51.2195 0
      vertex 22.8868 54.6232 0
      vertex 34.7994 54.6232 0
    endloop
  endfacet
  facet normal 0 0 -1
    outer loop
      vertex 22.0917 51.2195 0
      vertex 22.8868 54.6232 0
      vertex 24.3242 51.2195 0
    endloop
  endfacet
  facet normal 0 0 -1
    outer loop
      vertex 21.0952 52.8123 0
      vertex 22.8868 54.6232 0
      vertex 22.0917 51.2195 0
    endloop
  endfacet
  facet normal 0 0 -1
    outer loop
      vertex 21.0952 52.8123 0
      vertex 22.0917 51.2195 0
      vertex 22.0766 51.2195 0
    endloop
  endfacet
  facet normal 0 0 -1
    outer loop
      vertex 20.8815 53.159 0
      vertex 22.8868 54.6232 0
      vertex 21.0952 52.8123 0
    endloop
  endfacet
  facet normal -0 0 -1
    outer loop
      vertex 22.8868 54.6232 0
      vertex 20.8815 53.159 0
      vertex 22.641 54.9941 0
    endloop
  endfacet
  facet normal 0 -0 -1
    outer loop
      vertex 21.5942 56.5476 0
      vertex 22.641 54.9941 0
      vertex 20.8815 53.159 0
    endloop
  endfacet
  facet normal 0 0 -1
    outer loop
      vertex 22.641 54.9941 0
      vertex 21.5942 56.5476 0
      vertex 21.6113 56.5476 0
    endloop
  endfacet
  facet normal 0 0 -1
    outer loop
      vertex 20 56.5476 0
      vertex 20.8815 53.159 0
      vertex 20 53.159 0
    endloop
  endfacet
  facet normal 0 0 -1
    outer loop
      vertex 20.8815 53.159 0
      vertex 20 56.5476 0
      vertex 21.5942 56.5476 0
    endloop
  endfacet
  facet normal 0 0 1
    outer loop
      vertex 51.9013 8.10001 29
      vertex 48.5176 8.00784 29
      vertex 48.6285 6.6 29
    endloop
  endfacet
  facet normal 0 0 1
    outer loop
      vertex 45.4782 29.3955 29
      vertex 48.778 30.3524 29
      vertex 48.3356 32.1167 29
    endloop
  endfacet
  facet normal 0 0 1
    outer loop
      vertex 48.7822 30.326 29
      vertex 48.1308 12.9193 29
      vertex 48.5176 8.00784 29
    endloop
  endfacet
  facet normal 0 0 1
    outer loop
      vertex 48.7822 30.326 29
      vertex 47.521 16.7069 29
      vertex 48.1308 12.9193 29
    endloop
  endfacet
  facet normal -0 0 1
    outer loop
      vertex 44.4922 33.3276 29
      vertex 48.3356 32.1167 29
      vertex 47.1739 36.7492 29
    endloop
  endfacet
  facet normal 0 0 1
    outer loop
      vertex 44.0269 35.183 29
      vertex 47.1739 36.7492 29
      vertex 47.1647 36.7749 29
    endloop
  endfacet
  facet normal -0 0 1
    outer loop
      vertex 42.4206 39.7239 29
      vertex 47.1647 36.7749 29
      vertex 45.5896 41.2276 29
    endloop
  endfacet
  facet normal 0 0 1
    outer loop
      vertex 48.7822 30.326 29
      vertex 45.4782 29.3955 29
      vertex 47.521 16.7069 29
    endloop
  endfacet
  facet normal 0 0 1
    outer loop
      vertex 48.3356 32.1167 29
      vertex 44.4922 33.3276 29
      vertex 45.4782 29.3955 29
    endloop
  endfacet
  facet normal 0 0 1
    outer loop
      vertex 47.1739 36.7492 29
      vertex 44.0269 35.183 29
      vertex 44.4922 33.3276 29
    endloop
  endfacet
  facet normal 0 0 1
    outer loop
      vertex 47.1647 36.7749 29
      vertex 42.4206 39.7239 29
      vertex 44.0269 35.183 29
    endloop
  endfacet
  facet normal -0 0 1
    outer loop
      vertex 38.945 49.549 29
      vertex 45.5896 41.2276 29
      vertex 42.051 51.2309 29
    endloop
  endfacet
  facet normal 0 0 1
    outer loop
      vertex 38.945 49.549 29
      vertex 42.051 51.2309 29
      vertex 42.0508 51.2317 29
    endloop
  endfacet
  facet normal 0 0 1
    outer loop
      vertex 38.945 49.549 29
      vertex 42.0508 51.2317 29
      vertex 42.0329 51.2822 29
    endloop
  endfacet
  facet normal 0 0 1
    outer loop
      vertex 38.945 49.549 29
      vertex 42.0329 51.2822 29
      vertex 40.2344 52.6012 29
    endloop
  endfacet
  facet normal 0 0 1
    outer loop
      vertex 45.5896 41.2276 29
      vertex 38.945 49.549 29
      vertex 42.4206 39.7239 29
    endloop
  endfacet
  facet normal 0 0 1
    outer loop
      vertex 40.2344 52.6012 29
      vertex 37.5832 50.5477 29
      vertex 38.945 49.549 29
    endloop
  endfacet
  facet normal 0 0 1
    outer loop
      vertex 36.6673 51.2195 29
      vertex 40.2344 52.6012 29
      vertex 37.4775 54.6232 29
    endloop
  endfacet
  facet normal 0 0 1
    outer loop
      vertex 36.6673 51.2195 29
      vertex 37.4775 54.6232 29
      vertex 37.4261 54.6232 29
    endloop
  endfacet
  facet normal 0 0 1
    outer loop
      vertex 40.2344 52.6012 29
      vertex 36.6673 51.2195 29
      vertex 37.5832 50.5477 29
    endloop
  endfacet
  facet normal 0 0 1
    outer loop
      vertex 37.4261 54.6232 29
      vertex 30.843 51.2195 29
      vertex 36.6673 51.2195 29
    endloop
  endfacet
  facet normal -0 0 1
    outer loop
      vertex 27.0331 54.6232 29
      vertex 30.843 51.2195 29
      vertex 37.4261 54.6232 29
    endloop
  endfacet
  facet normal 0 0 1
    outer loop
      vertex 22.1354 51.2195 29
      vertex 27.0331 54.6232 29
      vertex 22.8868 54.6232 29
    endloop
  endfacet
  facet normal 0 0 1
    outer loop
      vertex 27.0331 54.6232 29
      vertex 22.1354 51.2195 29
      vertex 30.843 51.2195 29
    endloop
  endfacet
  facet normal -0 0 1
    outer loop
      vertex 21.7148 51.8068 29
      vertex 22.1354 51.2195 29
      vertex 22.8868 54.6232 29
    endloop
  endfacet
  facet normal 0 0 1
    outer loop
      vertex 20.8815 53.159 29
      vertex 22.8868 54.6232 29
      vertex 21.9281 56.0696 29
    endloop
  endfacet
  facet normal 0 0 1
    outer loop
      vertex 22.1354 51.2195 29
      vertex 21.7148 51.8068 29
      vertex 22.0766 51.2195 29
    endloop
  endfacet
  facet normal -0 0 1
    outer loop
      vertex 21.5446 56.5476 29
      vertex 21.9281 56.0696 29
      vertex 21.6113 56.5476 29
    endloop
  endfacet
  facet normal -0 0 1
    outer loop
      vertex 20 56.5476 29
      vertex 21.9281 56.0696 29
      vertex 21.5446 56.5476 29
    endloop
  endfacet
  facet normal 0 0 1
    outer loop
      vertex 22.8868 54.6232 29
      vertex 20.8815 53.159 29
      vertex 21.7148 51.8068 29
    endloop
  endfacet
  facet normal 0 0 1
    outer loop
      vertex 21.9281 56.0696 29
      vertex 20 56.5476 29
      vertex 20.8815 53.159 29
    endloop
  endfacet
  facet normal 0 0 1
    outer loop
      vertex 20.8815 53.159 29
      vertex 20 56.5476 29
      vertex 20 53.159 29
    endloop
  endfacet
  facet normal 0 0 1
    outer loop
      vertex 48.6285 6.6 29
      vertex 52.0115 6.7 29
      vertex 51.9013 8.10001 29
    endloop
  endfacet
  facet normal 0 0 1
    outer loop
      vertex 52.0115 6.7 29
      vertex 48.6285 6.6 29
      vertex 52.0115 -10.7 29
    endloop
  endfacet
  facet normal 0 0 1
    outer loop
      vertex 52.0115 -10.7 29
      vertex 48.6285 -10.6 29
      vertex 51.9013 -12.1 29
    endloop
  endfacet
  facet normal 0 0 1
    outer loop
      vertex 48.5176 8.00784 29
      vertex 51.9013 8.10001 29
      vertex 51.4614 13.6846 29
    endloop
  endfacet
  facet normal 0 0 1
    outer loop
      vertex 48.5176 8.00784 29
      vertex 51.4614 13.6846 29
      vertex 51.4493 13.7598 29
    endloop
  endfacet
  facet normal 0 0 1
    outer loop
      vertex 48.5176 8.00784 29
      vertex 51.4493 13.7598 29
      vertex 51.4491 13.7607 29
    endloop
  endfacet
  facet normal 0 0 1
    outer loop
      vertex 48.5176 8.00784 29
      vertex 51.4491 13.7607 29
      vertex 49.5181 25.7554 29
    endloop
  endfacet
  facet normal 0 0 1
    outer loop
      vertex 48.5176 8.00784 29
      vertex 49.5181 25.7554 29
      vertex 48.7822 30.326 29
    endloop
  endfacet
  facet normal 0 0 1
    outer loop
      vertex 45.4782 29.3955 29
      vertex 48.7822 30.326 29
      vertex 48.778 30.3524 29
    endloop
  endfacet
  facet normal 0 0 1
    outer loop
      vertex 52.0115 -10.7 29
      vertex 48.6285 6.6 29
      vertex 48.6285 -10.6 29
    endloop
  endfacet
  facet normal -0 0 1
    outer loop
      vertex 48.5176 -12.0078 29
      vertex 51.9013 -12.1 29
      vertex 48.6285 -10.6 29
    endloop
  endfacet
  facet normal 0 0 1
    outer loop
      vertex 51.9013 -12.1 29
      vertex 48.5176 -12.0078 29
      vertex 51.6729 -15 29
    endloop
  endfacet
  facet normal 0 0 1
    outer loop
      vertex 51.6729 -15 29
      vertex 48.5176 -12.0078 29
      vertex 48.282 -15 29
    endloop
  endfacet
  facet normal -1 0 0
    outer loop
      vertex 20 56.5476 0
      vertex 20 53.159 29
      vertex 20 56.5476 29
    endloop
  endfacet
  facet normal -1 0 0
    outer loop
      vertex 20 53.159 29
      vertex 20 56.5476 0
      vertex 20 53.159 0
    endloop
  endfacet
  facet normal 0 -1 0
    outer loop
      vertex 48.282 -15 29
      vertex 51.6728 -15 8.7477
      vertex 51.6729 -15 29
    endloop
  endfacet
  facet normal 0 -1 0
    outer loop
      vertex 48.2819 -15 5.24087
      vertex 51.6728 -15 8.7477
      vertex 48.282 -15 29
    endloop
  endfacet
  facet normal 0 -1 0
    outer loop
      vertex 51.6728 -15 0
      vertex 48.2819 -15 5.24087
      vertex 48.2819 -15 0
    endloop
  endfacet
  facet normal 0 -1 0
    outer loop
      vertex 48.2819 -15 5.24087
      vertex 51.6728 -15 0
      vertex 51.6728 -15 8.7477
    endloop
  endfacet
endsolid OpenSCAD_Model
