solid OpenSCAD_Model
  facet normal 0 -1 0
    outer loop
      vertex -48.6285 -4.65 1.4
      vertex -48.6285 -4.65 3.8147e-07
      vertex -37.3248 -4.65 1.4
    endloop
  endfacet
  facet normal 0 -1 0
    outer loop
      vertex -37.6748 -4.65 18.7333
      vertex -37.6748 -4.65 10.0667
      vertex -37.3248 -4.65 18.7333
    endloop
  endfacet
  facet normal 0 -1 0
    outer loop
      vertex -37.3248 -4.65 18.7333
      vertex -35.9248 -4.65 27.4
      vertex -37.3248 -4.65 27.4
    endloop
  endfacet
  facet normal 0 -1 0
    outer loop
      vertex -37.3248 -4.65 10.0667
      vertex -37.3248 -4.65 18.7333
      vertex -37.6748 -4.65 10.0667
    endloop
  endfacet
  facet normal 0 -1 0
    outer loop
      vertex -37.3248 -4.65 18.7333
      vertex -37.3248 -4.65 10.0667
      vertex -35.9248 -4.65 27.4
    endloop
  endfacet
  facet normal 0 -1 0
    outer loop
      vertex -35.9248 -4.65 3.8147e-07
      vertex -37.3248 -4.65 10.0667
      vertex -37.3248 -4.65 1.4
    endloop
  endfacet
  facet normal 0 -1 0
    outer loop
      vertex -37.3248 -4.65 10.0667
      vertex -35.9248 -4.65 3.8147e-07
      vertex -35.9248 -4.65 27.4
    endloop
  endfacet
  facet normal 0 -1 0
    outer loop
      vertex -35.9248 -4.65 3.8147e-07
      vertex -37.3248 -4.65 1.4
      vertex -48.6285 -4.65 3.8147e-07
    endloop
  endfacet
  facet normal 0 0 1
    outer loop
      vertex -35.9248 0.65 27.4
      vertex -37.3248 -0.75 27.4
      vertex -35.9248 -4.65 27.4
    endloop
  endfacet
  facet normal -0 0 1
    outer loop
      vertex -48.6285 0.65 27.4
      vertex -37.3248 -0.75 27.4
      vertex -35.9248 0.65 27.4
    endloop
  endfacet
  facet normal 0 0 1
    outer loop
      vertex -37.3248 -0.75 27.4
      vertex -48.6285 0.65 27.4
      vertex -48.6285 -0.75 27.4
    endloop
  endfacet
  facet normal 0 0 1
    outer loop
      vertex -35.9248 -4.65 27.4
      vertex -37.3248 -0.75 27.4
      vertex -37.3248 -4.65 27.4
    endloop
  endfacet
  facet normal 0 0 -1
    outer loop
      vertex -48.6285 -4.65 3.8147e-07
      vertex -35.9248 0.65 3.8147e-07
      vertex -35.9248 -4.65 3.8147e-07
    endloop
  endfacet
  facet normal -0 0 -1
    outer loop
      vertex -35.9248 0.65 3.8147e-07
      vertex -48.6285 -4.65 3.8147e-07
      vertex -48.6285 0.65 3.8147e-07
    endloop
  endfacet
  facet normal 0 1 -0
    outer loop
      vertex -35.9248 0.65 3.8147e-07
      vertex -48.6285 0.65 27.4
      vertex -35.9248 0.65 27.4
    endloop
  endfacet
  facet normal 0 1 0
    outer loop
      vertex -48.6285 0.65 27.4
      vertex -35.9248 0.65 3.8147e-07
      vertex -48.6285 0.65 3.8147e-07
    endloop
  endfacet
  facet normal 1 -0 0
    outer loop
      vertex -35.9248 -4.65 27.4
      vertex -35.9248 0.65 3.8147e-07
      vertex -35.9248 0.65 27.4
    endloop
  endfacet
  facet normal 1 0 0
    outer loop
      vertex -35.9248 0.65 3.8147e-07
      vertex -35.9248 -4.65 27.4
      vertex -35.9248 -4.65 3.8147e-07
    endloop
  endfacet
  facet normal 0 0 1
    outer loop
      vertex -37.3248 -0.75 1.4
      vertex -48.6285 -3.9476 1.4
      vertex -37.3248 -4.65 1.4
    endloop
  endfacet
  facet normal -0 0 1
    outer loop
      vertex -50.3248 -0.75 1.4
      vertex -48.6285 -3.9476 1.4
      vertex -37.3248 -0.75 1.4
    endloop
  endfacet
  facet normal -0 0 1
    outer loop
      vertex -50.3248 -2 1.4
      vertex -48.6285 -3.9476 1.4
      vertex -50.3248 -0.75 1.4
    endloop
  endfacet
  facet normal 0 0 1
    outer loop
      vertex -48.6285 -3.9476 1.4
      vertex -50.3248 -2 1.4
      vertex -50.7523 -3.17462 1.4
    endloop
  endfacet
  facet normal 0 0 1
    outer loop
      vertex -37.3248 -4.65 1.4
      vertex -48.6285 -3.9476 1.4
      vertex -48.6285 -4.65 1.4
    endloop
  endfacet
  facet normal 0 1 -0
    outer loop
      vertex -37.3248 -3.25 10.0667
      vertex -37.6748 -3.25 18.7333
      vertex -37.3248 -3.25 18.7333
    endloop
  endfacet
  facet normal 0 1 0
    outer loop
      vertex -37.6748 -3.25 18.7333
      vertex -37.3248 -3.25 10.0667
      vertex -37.6748 -3.25 10.0667
    endloop
  endfacet
  facet normal -1 0 0
    outer loop
      vertex -37.6748 -4.65 10.0667
      vertex -37.6748 -3.25 18.7333
      vertex -37.6748 -3.25 10.0667
    endloop
  endfacet
  facet normal -1 -0 0
    outer loop
      vertex -37.6748 -3.25 18.7333
      vertex -37.6748 -4.65 10.0667
      vertex -37.6748 -4.65 18.7333
    endloop
  endfacet
  facet normal -0 0 1
    outer loop
      vertex -37.6748 -3.25 18.7333
      vertex -37.3248 -4.65 18.7333
      vertex -37.3248 -3.25 18.7333
    endloop
  endfacet
  facet normal 0 0 1
    outer loop
      vertex -37.3248 -4.65 18.7333
      vertex -37.6748 -3.25 18.7333
      vertex -37.6748 -4.65 18.7333
    endloop
  endfacet
  facet normal -1 0 0
    outer loop
      vertex -37.3248 -0.75 1.4
      vertex -37.3248 -3.25 10.0667
      vertex -37.3248 -0.75 27.4
    endloop
  endfacet
  facet normal -1 0 0
    outer loop
      vertex -37.3248 -4.65 1.4
      vertex -37.3248 -3.25 10.0667
      vertex -37.3248 -0.75 1.4
    endloop
  endfacet
  facet normal -1 -0 0
    outer loop
      vertex -37.3248 -3.25 10.0667
      vertex -37.3248 -4.65 1.4
      vertex -37.3248 -4.65 10.0667
    endloop
  endfacet
  facet normal -1 0 0
    outer loop
      vertex -37.3248 -3.25 18.7333
      vertex -37.3248 -0.75 27.4
      vertex -37.3248 -3.25 10.0667
    endloop
  endfacet
  facet normal -1 0 0
    outer loop
      vertex -37.3248 -4.65 27.4
      vertex -37.3248 -3.25 18.7333
      vertex -37.3248 -4.65 18.7333
    endloop
  endfacet
  facet normal -1 0 0
    outer loop
      vertex -37.3248 -3.25 18.7333
      vertex -37.3248 -4.65 27.4
      vertex -37.3248 -0.75 27.4
    endloop
  endfacet
  facet normal 0 0 -1
    outer loop
      vertex -37.6748 -4.65 10.0667
      vertex -37.3248 -3.25 10.0667
      vertex -37.3248 -4.65 10.0667
    endloop
  endfacet
  facet normal -0 0 -1
    outer loop
      vertex -37.3248 -3.25 10.0667
      vertex -37.6748 -4.65 10.0667
      vertex -37.6748 -3.25 10.0667
    endloop
  endfacet
  facet normal 0 0 -1
    outer loop
      vertex -48.6285 -3.9476 27.4
      vertex -50.3248 -2 27.4
      vertex -48.6285 -0.75 27.4
    endloop
  endfacet
  facet normal 0 -0 -1
    outer loop
      vertex -50.3248 -2 27.4
      vertex -48.6285 -3.9476 27.4
      vertex -50.7523 -3.17462 27.4
    endloop
  endfacet
  facet normal -0 0 -1
    outer loop
      vertex -48.6285 -0.75 27.4
      vertex -50.3248 -2 27.4
      vertex -50.3248 -0.75 27.4
    endloop
  endfacet
  facet normal 0 -1 0
    outer loop
      vertex -50.3248 -0.75 1.4
      vertex -48.6285 -0.75 27.4
      vertex -50.3248 -0.75 27.4
    endloop
  endfacet
  facet normal 0 -1 0
    outer loop
      vertex -37.3248 -0.75 1.4
      vertex -48.6285 -0.75 27.4
      vertex -50.3248 -0.75 1.4
    endloop
  endfacet
  facet normal 0 -1 0
    outer loop
      vertex -48.6285 -0.75 27.4
      vertex -37.3248 -0.75 1.4
      vertex -37.3248 -0.75 27.4
    endloop
  endfacet
  facet normal 1 -0 0
    outer loop
      vertex -50.3248 -2 27.4
      vertex -50.3248 -0.75 1.4
      vertex -50.3248 -0.75 27.4
    endloop
  endfacet
  facet normal 1 0 0
    outer loop
      vertex -50.3248 -0.75 1.4
      vertex -50.3248 -2 27.4
      vertex -50.3248 -2 1.4
    endloop
  endfacet
  facet normal 0 1 -0
    outer loop
      vertex -51.6031 -9.25 10.9
      vertex -52.0115 -9.25 17.9
      vertex -51.6031 -9.25 17.9
    endloop
  endfacet
  facet normal 0 1 0
    outer loop
      vertex -52.0115 -9.25 17.9
      vertex -51.6031 -9.25 10.9
      vertex -52.0115 -9.25 10.9
    endloop
  endfacet
  facet normal 0 0 -1
    outer loop
      vertex -51.6031 -9.25 17.9
      vertex -48.6285 -3.9476 17.9
      vertex -48.6285 -10.3327 17.9
    endloop
  endfacet
  facet normal -0 0 -1
    outer loop
      vertex -48.6285 -3.9476 17.9
      vertex -51.6031 -9.25 17.9
      vertex -50.7523 -3.17462 17.9
    endloop
  endfacet
  facet normal 0 0 -1
    outer loop
      vertex -52.0115 -9.25 17.9
      vertex -50.7523 -3.17462 17.9
      vertex -51.6031 -9.25 17.9
    endloop
  endfacet
  facet normal -0 0 -1
    outer loop
      vertex -50.7523 -3.17462 17.9
      vertex -52.0115 -9.25 17.9
      vertex -52.0115 -2.71629 17.9
    endloop
  endfacet
  facet normal 0 0 1
    outer loop
      vertex -51.6031 -9.25 10.9
      vertex -48.6285 -3.9476 10.9
      vertex -50.7523 -3.17462 10.9
    endloop
  endfacet
  facet normal 0 0 1
    outer loop
      vertex -48.6285 -3.9476 10.9
      vertex -51.6031 -9.25 10.9
      vertex -48.6285 -10.3327 10.9
    endloop
  endfacet
  facet normal 0 0 1
    outer loop
      vertex -52.0115 -9.25 10.9
      vertex -50.7523 -3.17462 10.9
      vertex -52.0115 -2.71629 10.9
    endloop
  endfacet
  facet normal 0 0 1
    outer loop
      vertex -50.7523 -3.17462 10.9
      vertex -52.0115 -9.25 10.9
      vertex -51.6031 -9.25 10.9
    endloop
  endfacet
  facet normal -0.342032 -0.939688 0
    outer loop
      vertex -52.0115 -2.71629 10.9
      vertex -50.7523 -3.17462 17.9
      vertex -52.0115 -2.71629 17.9
    endloop
  endfacet
  facet normal -0.342032 -0.939688 -0
    outer loop
      vertex -50.7523 -3.17462 17.9
      vertex -52.0115 -2.71629 10.9
      vertex -50.7523 -3.17462 10.9
    endloop
  endfacet
  facet normal 0.342012 0.939695 -0
    outer loop
      vertex -48.6285 -3.9476 17.9
      vertex -50.7523 -3.17462 27.4
      vertex -48.6285 -3.9476 27.4
    endloop
  endfacet
  facet normal 0.342012 0.939695 0
    outer loop
      vertex -50.7523 -3.17462 27.4
      vertex -48.6285 -3.9476 17.9
      vertex -50.7523 -3.17462 17.9
    endloop
  endfacet
  facet normal 0.342012 0.939695 -0
    outer loop
      vertex -48.6285 -3.9476 1.4
      vertex -50.7523 -3.17462 10.9
      vertex -48.6285 -3.9476 10.9
    endloop
  endfacet
  facet normal 0.342012 0.939695 0
    outer loop
      vertex -50.7523 -3.17462 10.9
      vertex -48.6285 -3.9476 1.4
      vertex -50.7523 -3.17462 1.4
    endloop
  endfacet
  facet normal 0.939699 -0.342001 0
    outer loop
      vertex -50.7523 -3.17462 17.9
      vertex -50.3248 -2 27.4
      vertex -50.7523 -3.17462 27.4
    endloop
  endfacet
  facet normal 0.939699 -0.342001 0
    outer loop
      vertex -50.3248 -2 27.4
      vertex -50.7523 -3.17462 17.9
      vertex -50.3248 -2 1.4
    endloop
  endfacet
  facet normal 0.939699 -0.342001 0
    outer loop
      vertex -50.7523 -3.17462 10.9
      vertex -50.3248 -2 1.4
      vertex -50.7523 -3.17462 17.9
    endloop
  endfacet
  facet normal 0.939699 -0.342001 0
    outer loop
      vertex -50.3248 -2 1.4
      vertex -50.7523 -3.17462 10.9
      vertex -50.7523 -3.17462 1.4
    endloop
  endfacet
  facet normal 0.34203 0.939689 -0
    outer loop
      vertex -48.6285 -10.3327 10.9
      vertex -51.6031 -9.25 17.9
      vertex -48.6285 -10.3327 17.9
    endloop
  endfacet
  facet normal 0.34203 0.939689 0
    outer loop
      vertex -51.6031 -9.25 17.9
      vertex -48.6285 -10.3327 10.9
      vertex -51.6031 -9.25 10.9
    endloop
  endfacet
  facet normal 1 -0 0
    outer loop
      vertex -35.0503 17.5527 20.7
      vertex -35.0503 18.9527 14.2667
      vertex -35.0503 18.9527 20.7
    endloop
  endfacet
  facet normal 1 0 0
    outer loop
      vertex -35.0503 18.9527 14.2667
      vertex -35.0503 17.5527 20.7
      vertex -35.0503 18.9527 7.83333
    endloop
  endfacet
  facet normal 1 0 0
    outer loop
      vertex -35.0503 17.5527 7.62939e-07
      vertex -35.0503 18.9527 7.83333
      vertex -35.0503 17.5527 20.7
    endloop
  endfacet
  facet normal 1 -0 0
    outer loop
      vertex -35.0503 18.9527 14.2667
      vertex -35.0503 19.3027 7.83333
      vertex -35.0503 19.3027 14.2667
    endloop
  endfacet
  facet normal 1 0 0
    outer loop
      vertex -35.0503 19.3027 7.83333
      vertex -35.0503 18.9527 14.2667
      vertex -35.0503 18.9527 7.83333
    endloop
  endfacet
  facet normal 1 -0 0
    outer loop
      vertex -35.0503 18.9527 1.4
      vertex -35.0503 51.2195 7.62939e-07
      vertex -35.0503 51.2195 1.4
    endloop
  endfacet
  facet normal 1 0 0
    outer loop
      vertex -35.0503 18.9527 1.4
      vertex -35.0503 17.5527 7.62939e-07
      vertex -35.0503 51.2195 7.62939e-07
    endloop
  endfacet
  facet normal 1 0 0
    outer loop
      vertex -35.0503 18.9527 7.83333
      vertex -35.0503 17.5527 7.62939e-07
      vertex -35.0503 18.9527 1.4
    endloop
  endfacet
  facet normal -0 0 1
    outer loop
      vertex -40.8503 54.3527 20.7
      vertex -39.6477 53.0315 20.7
      vertex -37.8462 54.3527 20.7
    endloop
  endfacet
  facet normal 0 0 1
    outer loop
      vertex -39.6477 53.0315 20.7
      vertex -40.8503 54.3527 20.7
      vertex -40.8503 52.1495 20.7
    endloop
  endfacet
  facet normal 0 0 1
    outer loop
      vertex -39.4503 48.1205 20.7
      vertex -40.8503 44.1628 20.7
      vertex -39.4503 18.9527 20.7
    endloop
  endfacet
  facet normal -0 0 1
    outer loop
      vertex -39.4503 18.9527 20.7
      vertex -35.0503 17.5527 20.7
      vertex -35.0503 18.9527 20.7
    endloop
  endfacet
  facet normal 0 0 1
    outer loop
      vertex -39.4503 18.9527 20.7
      vertex -40.8503 17.5527 20.7
      vertex -35.0503 17.5527 20.7
    endloop
  endfacet
  facet normal 0 0 1
    outer loop
      vertex -40.8503 17.5527 20.7
      vertex -39.4503 18.9527 20.7
      vertex -40.8503 44.1628 20.7
    endloop
  endfacet
  facet normal 0 0 -1
    outer loop
      vertex -40.8503 44.1628 7.62939e-07
      vertex -35.0503 51.2195 7.62939e-07
      vertex -35.0503 17.5527 7.62939e-07
    endloop
  endfacet
  facet normal 0 -0 -1
    outer loop
      vertex -39.8361 47.03 7.62939e-07
      vertex -35.0503 51.2195 7.62939e-07
      vertex -40.8503 44.1628 7.62939e-07
    endloop
  endfacet
  facet normal -0 0 -1
    outer loop
      vertex -35.0503 51.2195 7.62939e-07
      vertex -38.5958 49.8051 7.62939e-07
      vertex -36.6673 51.2195 7.62939e-07
    endloop
  endfacet
  facet normal 0 0 -1
    outer loop
      vertex -38.5958 49.8051 7.62939e-07
      vertex -39.8361 47.03 7.62939e-07
      vertex -38.945 49.549 7.62939e-07
    endloop
  endfacet
  facet normal 0 0 -1
    outer loop
      vertex -40.8503 44.1628 7.62939e-07
      vertex -35.0503 17.5527 7.62939e-07
      vertex -40.8503 17.5527 7.62939e-07
    endloop
  endfacet
  facet normal 0 -0 -1
    outer loop
      vertex -38.5958 49.8051 7.62939e-07
      vertex -35.0503 51.2195 7.62939e-07
      vertex -39.8361 47.03 7.62939e-07
    endloop
  endfacet
  facet normal 0 0 -1
    outer loop
      vertex -38.1844 54.1047 7.62939e-07
      vertex -40.8503 54.3527 7.62939e-07
      vertex -37.8462 54.3527 7.62939e-07
    endloop
  endfacet
  facet normal 0 0 -1
    outer loop
      vertex -40.8503 54.3527 7.62939e-07
      vertex -38.1844 54.1047 7.62939e-07
      vertex -40.8503 52.1495 7.62939e-07
    endloop
  endfacet
  facet normal -1 0 0
    outer loop
      vertex -40.8503 54.3527 7.62939e-07
      vertex -40.8503 52.1495 20.7
      vertex -40.8503 54.3527 20.7
    endloop
  endfacet
  facet normal -1 0 0
    outer loop
      vertex -40.8503 52.1495 20.7
      vertex -40.8503 54.3527 7.62939e-07
      vertex -40.8503 52.1495 7.62939e-07
    endloop
  endfacet
  facet normal -1 0 0
    outer loop
      vertex -40.8503 17.5527 7.62939e-07
      vertex -40.8503 44.1628 11.3805
      vertex -40.8503 44.1628 7.62939e-07
    endloop
  endfacet
  facet normal -1 0 0
    outer loop
      vertex -40.8503 17.5527 20.7
      vertex -40.8503 44.1628 11.3805
      vertex -40.8503 17.5527 7.62939e-07
    endloop
  endfacet
  facet normal -1 0 0
    outer loop
      vertex -40.8503 44.1628 11.3805
      vertex -40.8503 17.5527 20.7
      vertex -40.8503 44.1628 20.7
    endloop
  endfacet
  facet normal 0 1 -0
    outer loop
      vertex -37.8462 54.3527 7.62939e-07
      vertex -40.8503 54.3527 20.7
      vertex -37.8462 54.3527 20.7
    endloop
  endfacet
  facet normal 0 1 0
    outer loop
      vertex -40.8503 54.3527 20.7
      vertex -37.8462 54.3527 7.62939e-07
      vertex -40.8503 54.3527 7.62939e-07
    endloop
  endfacet
  facet normal 0 -1 0
    outer loop
      vertex -40.8503 17.5527 7.62939e-07
      vertex -35.0503 17.5527 20.7
      vertex -40.8503 17.5527 20.7
    endloop
  endfacet
  facet normal 0 -1 -0
    outer loop
      vertex -35.0503 17.5527 20.7
      vertex -40.8503 17.5527 7.62939e-07
      vertex -35.0503 17.5527 7.62939e-07
    endloop
  endfacet
  facet normal -0 0 1
    outer loop
      vertex -35.7232 51.2195 1.4
      vertex -35.0503 18.9527 1.4
      vertex -35.0503 51.2195 1.4
    endloop
  endfacet
  facet normal -0 0 1
    outer loop
      vertex -37.9503 52.9527 1.4
      vertex -35.7232 51.2195 1.4
      vertex -36.5408 53.4657 1.4
    endloop
  endfacet
  facet normal -0 0 1
    outer loop
      vertex -39.4503 52.9527 1.4
      vertex -35.7232 51.2195 1.4
      vertex -37.9503 52.9527 1.4
    endloop
  endfacet
  facet normal 0 0 1
    outer loop
      vertex -35.7232 51.2195 1.4
      vertex -39.4503 52.9527 1.4
      vertex -39.4503 18.9527 1.4
    endloop
  endfacet
  facet normal 0 0 1
    outer loop
      vertex -35.7232 51.2195 1.4
      vertex -39.4503 18.9527 1.4
      vertex -35.0503 18.9527 1.4
    endloop
  endfacet
  facet normal -1 0 0
    outer loop
      vertex -36.4503 18.9527 7.83333
      vertex -36.4503 19.3027 14.2667
      vertex -36.4503 19.3027 7.83333
    endloop
  endfacet
  facet normal -1 -0 0
    outer loop
      vertex -36.4503 19.3027 14.2667
      vertex -36.4503 18.9527 7.83333
      vertex -36.4503 18.9527 14.2667
    endloop
  endfacet
  facet normal 0 1 -0
    outer loop
      vertex -35.0503 19.3027 7.83333
      vertex -36.4503 19.3027 14.2667
      vertex -35.0503 19.3027 14.2667
    endloop
  endfacet
  facet normal 0 1 0
    outer loop
      vertex -36.4503 19.3027 14.2667
      vertex -35.0503 19.3027 7.83333
      vertex -36.4503 19.3027 7.83333
    endloop
  endfacet
  facet normal -0 0 1
    outer loop
      vertex -36.4503 19.3027 14.2667
      vertex -35.0503 18.9527 14.2667
      vertex -35.0503 19.3027 14.2667
    endloop
  endfacet
  facet normal 0 0 1
    outer loop
      vertex -35.0503 18.9527 14.2667
      vertex -36.4503 19.3027 14.2667
      vertex -36.4503 18.9527 14.2667
    endloop
  endfacet
  facet normal 0 1 0
    outer loop
      vertex -35.0503 18.9527 7.83333
      vertex -35.0503 18.9527 1.4
      vertex -36.4503 18.9527 7.83333
    endloop
  endfacet
  facet normal 0 1 0
    outer loop
      vertex -36.4503 18.9527 14.2667
      vertex -35.0503 18.9527 20.7
      vertex -35.0503 18.9527 14.2667
    endloop
  endfacet
  facet normal 0 1 0
    outer loop
      vertex -35.0503 18.9527 20.7
      vertex -36.4503 18.9527 14.2667
      vertex -39.4503 18.9527 20.7
    endloop
  endfacet
  facet normal 0 1 -0
    outer loop
      vertex -36.4503 18.9527 7.83333
      vertex -39.4503 18.9527 20.7
      vertex -36.4503 18.9527 14.2667
    endloop
  endfacet
  facet normal 0 1 0
    outer loop
      vertex -39.4503 18.9527 1.4
      vertex -36.4503 18.9527 7.83333
      vertex -35.0503 18.9527 1.4
    endloop
  endfacet
  facet normal 0 1 0
    outer loop
      vertex -36.4503 18.9527 7.83333
      vertex -39.4503 18.9527 1.4
      vertex -39.4503 18.9527 20.7
    endloop
  endfacet
  facet normal 0 0 -1
    outer loop
      vertex -36.4503 18.9527 7.83333
      vertex -35.0503 19.3027 7.83333
      vertex -35.0503 18.9527 7.83333
    endloop
  endfacet
  facet normal -0 0 -1
    outer loop
      vertex -35.0503 19.3027 7.83333
      vertex -36.4503 18.9527 7.83333
      vertex -36.4503 19.3027 7.83333
    endloop
  endfacet
  facet normal 0 0 -1
    outer loop
      vertex -36.6673 51.2195 20.7
      vertex -36.5408 53.4657 20.7
      vertex -35.7232 51.2195 20.7
    endloop
  endfacet
  facet normal 0 0 -1
    outer loop
      vertex -37.9503 52.9527 20.7
      vertex -36.6673 51.2195 20.7
      vertex -37.8731 50.3352 20.7
    endloop
  endfacet
  facet normal 0 0 -1
    outer loop
      vertex -36.6673 51.2195 20.7
      vertex -37.9503 52.9527 20.7
      vertex -36.5408 53.4657 20.7
    endloop
  endfacet
  facet normal 0 0 -1
    outer loop
      vertex -39.4503 52.9527 20.7
      vertex -37.8731 50.3352 20.7
      vertex -38.945 49.549 20.7
    endloop
  endfacet
  facet normal 0 0 -1
    outer loop
      vertex -39.4503 52.9527 20.7
      vertex -38.945 49.549 20.7
      vertex -39.4503 48.1205 20.7
    endloop
  endfacet
  facet normal 0 0 -1
    outer loop
      vertex -37.8731 50.3352 20.7
      vertex -39.4503 52.9527 20.7
      vertex -37.9503 52.9527 20.7
    endloop
  endfacet
  facet normal 1 -0 0
    outer loop
      vertex -39.4503 48.1205 20.7
      vertex -39.4503 52.9527 1.4
      vertex -39.4503 52.9527 20.7
    endloop
  endfacet
  facet normal 1 0 0
    outer loop
      vertex -39.4503 18.9527 1.4
      vertex -39.4503 48.1205 20.7
      vertex -39.4503 18.9527 20.7
    endloop
  endfacet
  facet normal 1 0 0
    outer loop
      vertex -39.4503 48.1205 20.7
      vertex -39.4503 18.9527 1.4
      vertex -39.4503 52.9527 1.4
    endloop
  endfacet
  facet normal 0 -1 0
    outer loop
      vertex -39.4503 52.9527 1.4
      vertex -37.9503 52.9527 20.7
      vertex -39.4503 52.9527 20.7
    endloop
  endfacet
  facet normal 0 -1 -0
    outer loop
      vertex -37.9503 52.9527 20.7
      vertex -39.4503 52.9527 1.4
      vertex -37.9503 52.9527 1.4
    endloop
  endfacet
  facet normal -1 0 0
    outer loop
      vertex -33.2503 53.7815 6.55
      vertex -33.2503 54.6232 15.55
      vertex -33.2503 54.6232 6.55
    endloop
  endfacet
  facet normal -1 -0 0
    outer loop
      vertex -33.2503 54.6232 15.55
      vertex -33.2503 53.7815 6.55
      vertex -33.2503 53.7815 15.55
    endloop
  endfacet
  facet normal 0 0 -1
    outer loop
      vertex -35.7232 51.2195 15.55
      vertex -33.2503 53.7815 15.55
      vertex -32.3178 51.2195 15.55
    endloop
  endfacet
  facet normal 0 0 -1
    outer loop
      vertex -36.5408 53.4657 15.55
      vertex -33.2503 53.7815 15.55
      vertex -35.7232 51.2195 15.55
    endloop
  endfacet
  facet normal -0 0 -1
    outer loop
      vertex -33.2503 53.7815 15.55
      vertex -36.5408 53.4657 15.55
      vertex -33.2503 54.6232 15.55
    endloop
  endfacet
  facet normal -0 0 -1
    outer loop
      vertex -33.2503 54.6232 15.55
      vertex -36.5408 53.4657 15.55
      vertex -36.962 54.6232 15.55
    endloop
  endfacet
  facet normal 0 0 1
    outer loop
      vertex -36.5408 53.4657 6.55
      vertex -33.2503 53.7815 6.55
      vertex -33.2503 54.6232 6.55
    endloop
  endfacet
  facet normal 0 0 1
    outer loop
      vertex -33.2503 53.7815 6.55
      vertex -36.5408 53.4657 6.55
      vertex -35.7232 51.2195 6.55
    endloop
  endfacet
  facet normal 0 -0 1
    outer loop
      vertex -36.5408 53.4657 6.55
      vertex -33.2503 54.6232 6.55
      vertex -36.962 54.6232 6.55
    endloop
  endfacet
  facet normal 0 0 1
    outer loop
      vertex -32.3178 51.2195 6.55
      vertex -33.2503 53.7815 6.55
      vertex -35.7232 51.2195 6.55
    endloop
  endfacet
  facet normal 0.939718 0.341952 0
    outer loop
      vertex -36.5408 53.4657 15.55
      vertex -36.962 54.6232 6.55
      vertex -36.962 54.6232 15.55
    endloop
  endfacet
  facet normal 0.939718 0.341952 0
    outer loop
      vertex -36.962 54.6232 6.55
      vertex -36.5408 53.4657 15.55
      vertex -36.5408 53.4657 6.55
    endloop
  endfacet
  facet normal -0.939686 -0.342039 0
    outer loop
      vertex -35.7232 51.2195 15.55
      vertex -36.5408 53.4657 20.7
      vertex -36.5408 53.4657 15.55
    endloop
  endfacet
  facet normal -0.939686 -0.342039 0
    outer loop
      vertex -36.5408 53.4657 20.7
      vertex -35.7232 51.2195 15.55
      vertex -35.7232 51.2195 20.7
    endloop
  endfacet
  facet normal -0.939686 -0.342039 0
    outer loop
      vertex -36.5408 53.4657 1.4
      vertex -35.7232 51.2195 6.55
      vertex -36.5408 53.4657 6.55
    endloop
  endfacet
  facet normal -0.939686 -0.342039 -0
    outer loop
      vertex -35.7232 51.2195 6.55
      vertex -36.5408 53.4657 1.4
      vertex -35.7232 51.2195 1.4
    endloop
  endfacet
  facet normal 0.342011 -0.939696 0
    outer loop
      vertex -37.9503 52.9527 20.7
      vertex -36.5408 53.4657 15.55
      vertex -36.5408 53.4657 20.7
    endloop
  endfacet
  facet normal 0.342011 -0.939696 0
    outer loop
      vertex -37.9503 52.9527 20.7
      vertex -36.5408 53.4657 6.55
      vertex -36.5408 53.4657 15.55
    endloop
  endfacet
  facet normal 0.342011 -0.939696 0
    outer loop
      vertex -37.9503 52.9527 1.4
      vertex -36.5408 53.4657 6.55
      vertex -37.9503 52.9527 20.7
    endloop
  endfacet
  facet normal 0.342011 -0.939696 0
    outer loop
      vertex -36.5408 53.4657 6.55
      vertex -37.9503 52.9527 1.4
      vertex -36.5408 53.4657 1.4
    endloop
  endfacet
  facet normal -0.939692 -0.342023 0
    outer loop
      vertex -32.3178 51.2195 6.55
      vertex -33.2503 53.7815 15.55
      vertex -33.2503 53.7815 6.55
    endloop
  endfacet
  facet normal -0.939692 -0.342023 0
    outer loop
      vertex -33.2503 53.7815 15.55
      vertex -32.3178 51.2195 6.55
      vertex -32.3178 51.2195 15.55
    endloop
  endfacet
  facet normal 0 -1 0
    outer loop
      vertex -24.3242 51.2195 0
      vertex -22.1354 51.2195 29
      vertex -30.843 51.2195 29
    endloop
  endfacet
  facet normal 0 -1 -0
    outer loop
      vertex -22.1354 51.2195 29
      vertex -24.3242 51.2195 0
      vertex -22.0917 51.2195 0
    endloop
  endfacet
  facet normal 0 1 -0
    outer loop
      vertex -22.8868 54.6232 0
      vertex -27.0331 54.6232 29
      vertex -22.8868 54.6232 29
    endloop
  endfacet
  facet normal 0 1 0
    outer loop
      vertex -27.0331 54.6232 29
      vertex -22.8868 54.6232 0
      vertex -34.7994 54.6232 0
    endloop
  endfacet
  facet normal 0 1 -0
    outer loop
      vertex -37.4643 54.6232 0
      vertex -37.4775 54.6232 29
      vertex -37.4261 54.6232 29
    endloop
  endfacet
  facet normal 0 1 0
    outer loop
      vertex -37.4775 54.6232 29
      vertex -37.4643 54.6232 0
      vertex -37.4775 54.6232 0
    endloop
  endfacet
  facet normal 0 1 0
    outer loop
      vertex -27.0331 54.6232 29
      vertex -33.2503 54.6232 15.55
      vertex -37.4261 54.6232 29
    endloop
  endfacet
  facet normal 0 1 0
    outer loop
      vertex -27.0331 54.6232 29
      vertex -33.2503 54.6232 6.55
      vertex -33.2503 54.6232 15.55
    endloop
  endfacet
  facet normal 0 1 0
    outer loop
      vertex -33.2503 54.6232 6.55
      vertex -34.7994 54.6232 0
      vertex -36.962 54.6232 6.55
    endloop
  endfacet
  facet normal 0 1 0
    outer loop
      vertex -34.7994 54.6232 0
      vertex -33.2503 54.6232 6.55
      vertex -27.0331 54.6232 29
    endloop
  endfacet
  facet normal 0 1 -0
    outer loop
      vertex -36.962 54.6232 15.55
      vertex -37.4261 54.6232 29
      vertex -33.2503 54.6232 15.55
    endloop
  endfacet
  facet normal 0 1 0
    outer loop
      vertex -37.4643 54.6232 0
      vertex -36.962 54.6232 15.55
      vertex -36.962 54.6232 6.55
    endloop
  endfacet
  facet normal 0 1 0
    outer loop
      vertex -36.962 54.6232 15.55
      vertex -37.4643 54.6232 0
      vertex -37.4261 54.6232 29
    endloop
  endfacet
  facet normal 0 1 0
    outer loop
      vertex -37.4643 54.6232 0
      vertex -36.962 54.6232 6.55
      vertex -34.7994 54.6232 0
    endloop
  endfacet
  facet normal 0 -1 0
    outer loop
      vertex -36.6673 51.2195 7.62939e-07
      vertex -36.6673 51.2195 0
      vertex -35.0503 51.2195 7.62939e-07
    endloop
  endfacet
  facet normal 0 -1 0
    outer loop
      vertex -35.0503 51.2195 1.4
      vertex -35.7232 51.2195 6.55
      vertex -35.7232 51.2195 1.4
    endloop
  endfacet
  facet normal 0 -1 0
    outer loop
      vertex -35.7232 51.2195 20.7
      vertex -36.6673 51.2195 29
      vertex -36.6673 51.2195 20.7
    endloop
  endfacet
  facet normal 0 -1 0
    outer loop
      vertex -36.6673 51.2195 29
      vertex -35.7232 51.2195 20.7
      vertex -30.843 51.2195 29
    endloop
  endfacet
  facet normal 0 -1 0
    outer loop
      vertex -32.3178 51.2195 15.55
      vertex -35.7232 51.2195 20.7
      vertex -35.7232 51.2195 15.55
    endloop
  endfacet
  facet normal 0 -1 0
    outer loop
      vertex -35.7232 51.2195 20.7
      vertex -32.3178 51.2195 15.55
      vertex -30.843 51.2195 29
    endloop
  endfacet
  facet normal 0 -1 0
    outer loop
      vertex -24.3242 51.2195 0
      vertex -32.3178 51.2195 15.55
      vertex -32.3178 51.2195 6.55
    endloop
  endfacet
  facet normal 0 -1 0
    outer loop
      vertex -35.7232 51.2195 6.55
      vertex -35.0503 51.2195 1.4
      vertex -32.3178 51.2195 6.55
    endloop
  endfacet
  facet normal 0 -1 0
    outer loop
      vertex -24.3242 51.2195 0
      vertex -35.0503 51.2195 1.4
      vertex -35.0503 51.2195 7.62939e-07
    endloop
  endfacet
  facet normal 0 -1 0
    outer loop
      vertex -32.3178 51.2195 15.55
      vertex -24.3242 51.2195 0
      vertex -30.843 51.2195 29
    endloop
  endfacet
  facet normal 0 -1 0
    outer loop
      vertex -35.0503 51.2195 1.4
      vertex -24.3242 51.2195 0
      vertex -32.3178 51.2195 6.55
    endloop
  endfacet
  facet normal 0 -1 0
    outer loop
      vertex -24.3242 51.2195 0
      vertex -35.0503 51.2195 7.62939e-07
      vertex -36.6673 51.2195 0
    endloop
  endfacet
  facet normal 0 1 -0
    outer loop
      vertex -21.5942 56.5476 0
      vertex -21.6113 56.5476 29
      vertex -21.5446 56.5476 29
    endloop
  endfacet
  facet normal 0 1 0
    outer loop
      vertex -21.6113 56.5476 29
      vertex -21.5942 56.5476 0
      vertex -21.6113 56.5476 0
    endloop
  endfacet
  facet normal 0 1 -0
    outer loop
      vertex -20 56.5476 0
      vertex -21.5446 56.5476 29
      vertex -20 56.5476 29
    endloop
  endfacet
  facet normal 0 1 0
    outer loop
      vertex -21.5446 56.5476 29
      vertex -20 56.5476 0
      vertex -21.5942 56.5476 0
    endloop
  endfacet
  facet normal 0 -1 0
    outer loop
      vertex -20.8815 53.159 0
      vertex -20 53.159 29
      vertex -20.8815 53.159 29
    endloop
  endfacet
  facet normal 0 -1 -0
    outer loop
      vertex -20 53.159 29
      vertex -20.8815 53.159 0
      vertex -20 53.159 0
    endloop
  endfacet
  facet normal 0.851279 -0.524714 0
    outer loop
      vertex -20.8815 53.159 29
      vertex -21.0952 52.8123 0
      vertex -20.8815 53.159 0
    endloop
  endfacet
  facet normal 0.851327 -0.524635 -1.30324e-06
    outer loop
      vertex -21.0952 52.8123 0
      vertex -20.8815 53.159 29
      vertex -21.7148 51.8068 29
    endloop
  endfacet
  facet normal -0.83355 0.552445 0
    outer loop
      vertex -21.6113 56.5476 0
      vertex -21.9281 56.0696 29
      vertex -21.6113 56.5476 29
    endloop
  endfacet
  facet normal -0.833525 0.552482 8.84377e-07
    outer loop
      vertex -21.9281 56.0696 29
      vertex -21.6113 56.5476 0
      vertex -22.641 54.9941 0
    endloop
  endfacet
  facet normal -0.833568 0.552416 0
    outer loop
      vertex -22.8868 54.6232 29
      vertex -22.641 54.9941 0
      vertex -22.8868 54.6232 0
    endloop
  endfacet
  facet normal -0.833528 0.552477 1.12692e-06
    outer loop
      vertex -22.641 54.9941 0
      vertex -22.8868 54.6232 29
      vertex -21.9281 56.0696 29
    endloop
  endfacet
  facet normal 0.851409 -0.524502 0
    outer loop
      vertex -22.0766 51.2195 0
      vertex -21.7148 51.8068 29
      vertex -22.0766 51.2195 29
    endloop
  endfacet
  facet normal 0.851368 -0.524569 1.86489e-06
    outer loop
      vertex -21.7148 51.8068 29
      vertex -22.0766 51.2195 0
      vertex -21.0952 52.8123 0
    endloop
  endfacet
  facet normal 0 -1 0
    outer loop
      vertex -22.0917 51.2195 0
      vertex -22.0766 51.2195 29
      vertex -22.1354 51.2195 29
    endloop
  endfacet
  facet normal 0 -1 -0
    outer loop
      vertex -22.0766 51.2195 29
      vertex -22.0917 51.2195 0
      vertex -22.0766 51.2195 0
    endloop
  endfacet
  facet normal 0.942754 -0.33349 4.36213e-06
    outer loop
      vertex -44.0269 35.183 29
      vertex -40.8503 44.1628 11.3805
      vertex -42.4206 39.7239 29
    endloop
  endfacet
  facet normal 0.942758 -0.333477 0
    outer loop
      vertex -40.8503 44.1628 7.62939e-07
      vertex -39.8361 47.03 0
      vertex -39.8361 47.03 7.62939e-07
    endloop
  endfacet
  facet normal 0.942751 -0.333498 0
    outer loop
      vertex -40.8503 44.1628 11.3805
      vertex -44.0269 35.183 29
      vertex -44.0269 35.183 0
    endloop
  endfacet
  facet normal 0.0142467 -0.00503966 -0.999886
    outer loop
      vertex -40.8503 44.1628 7.62939e-07
      vertex -44.0269 35.183 0
      vertex -39.8361 47.03 0
    endloop
  endfacet
  facet normal 0.942751 -0.333498 0
    outer loop
      vertex -40.8503 44.1628 11.3805
      vertex -44.0269 35.183 0
      vertex -40.8503 44.1628 7.62939e-07
    endloop
  endfacet
  facet normal -0.942747 0.333508 4.45867e-07
    outer loop
      vertex -42.9449 48.7041 0
      vertex -42.051 51.2309 29
      vertex -42.0375 51.2691 0
    endloop
  endfacet
  facet normal -0.942753 0.333492 1.99989e-06
    outer loop
      vertex -42.051 51.2309 29
      vertex -42.9449 48.7041 0
      vertex -45.5896 41.2276 29
    endloop
  endfacet
  facet normal 0.94275 -0.333499 0
    outer loop
      vertex -39.8361 47.03 7.62939e-07
      vertex -38.945 49.549 0
      vertex -38.945 49.549 7.62939e-07
    endloop
  endfacet
  facet normal 0.94275 -0.333499 0
    outer loop
      vertex -38.945 49.549 0
      vertex -39.8361 47.03 7.62939e-07
      vertex -39.8361 47.03 0
    endloop
  endfacet
  facet normal 0.942757 -0.333479 0
    outer loop
      vertex -38.945 49.549 29
      vertex -39.4503 48.1205 20.7
      vertex -38.945 49.549 20.7
    endloop
  endfacet
  facet normal 0.942754 -0.33349 2.12923e-06
    outer loop
      vertex -38.945 49.549 29
      vertex -40.8503 44.1628 20.7
      vertex -39.4503 48.1205 20.7
    endloop
  endfacet
  facet normal 0.942748 -0.333505 0
    outer loop
      vertex -40.8503 44.1628 20.7
      vertex -42.4206 39.7239 29
      vertex -40.8503 44.1628 11.3805
    endloop
  endfacet
  facet normal 0.942752 -0.333496 5.93859e-06
    outer loop
      vertex -42.4206 39.7239 29
      vertex -40.8503 44.1628 20.7
      vertex -38.945 49.549 29
    endloop
  endfacet
  facet normal -0.942754 0.333488 7.07709e-07
    outer loop
      vertex -47.1495 36.8179 0
      vertex -45.5896 41.2276 29
      vertex -42.9449 48.7041 0
    endloop
  endfacet
  facet normal -0.942754 0.33349 3.52342e-07
    outer loop
      vertex -45.5896 41.2276 29
      vertex -47.1495 36.8179 0
      vertex -47.1647 36.7749 29
    endloop
  endfacet
  facet normal -0.942762 0.333466 3.12314e-07
    outer loop
      vertex -47.1738 36.7492 0
      vertex -47.1647 36.7749 29
      vertex -47.1495 36.8179 0
    endloop
  endfacet
  facet normal -0.941493 0.337033 -3.24653e-06
    outer loop
      vertex -47.1647 36.7749 29
      vertex -47.1738 36.7492 0
      vertex -47.1739 36.7492 29
    endloop
  endfacet
  facet normal 0.987284 -0.158963 0
    outer loop
      vertex -45.4782 29.3955 29
      vertex -46.002 26.1423 0
      vertex -45.4782 29.3955 0
    endloop
  endfacet
  facet normal 0.987287 -0.158948 -1.74861e-06
    outer loop
      vertex -46.002 26.1423 0
      vertex -45.4782 29.3955 29
      vertex -47.521 16.7069 29
    endloop
  endfacet
  facet normal -0.987288 0.158941 2.03505e-07
    outer loop
      vertex -50.9631 16.7796 0
      vertex -51.4491 13.7607 29
      vertex -49.5181 25.7554 29
    endloop
  endfacet
  facet normal -0.987284 0.158967 2.94759e-06
    outer loop
      vertex -51.4491 13.7607 29
      vertex -50.9631 16.7796 0
      vertex -51.4583 13.7041 0
    endloop
  endfacet
  facet normal -0.98758 0.157115 0
    outer loop
      vertex -48.778 30.3524 0
      vertex -48.7822 30.326 29
      vertex -48.778 30.3524 29
    endloop
  endfacet
  facet normal -0.987203 0.159471 2.1996e-06
    outer loop
      vertex -48.7822 30.326 29
      vertex -48.778 30.3524 0
      vertex -48.7906 30.2744 0
    endloop
  endfacet
  facet normal -0.987285 0.15896 3.13286e-06
    outer loop
      vertex -48.7906 30.2744 0
      vertex -49.5181 25.7554 29
      vertex -48.7822 30.326 29
    endloop
  endfacet
  facet normal -0.987288 0.158941 1.52628e-07
    outer loop
      vertex -49.5181 25.7554 29
      vertex -48.7906 30.2744 0
      vertex -50.9631 16.7796 0
    endloop
  endfacet
  facet normal 0.987287 -0.158946 -8.81864e-07
    outer loop
      vertex -47.521 16.7069 29
      vertex -48.1308 12.9193 0
      vertex -46.002 26.1423 0
    endloop
  endfacet
  facet normal 0.987286 -0.158952 0
    outer loop
      vertex -48.1308 12.9193 0
      vertex -47.521 16.7069 29
      vertex -48.1308 12.9193 29
    endloop
  endfacet
  facet normal -1 0 0
    outer loop
      vertex -52.0115 6.7 0
      vertex -52.0115 -2.71629 10.9
      vertex -52.0115 -2.71629 17.9
    endloop
  endfacet
  facet normal -1 0 0
    outer loop
      vertex -52.0115 -10.7 0
      vertex -52.0115 -2.71629 10.9
      vertex -52.0115 6.7 0
    endloop
  endfacet
  facet normal -1 -0 0
    outer loop
      vertex -52.0115 -9.25 10.9
      vertex -52.0115 -10.7 0
      vertex -52.0115 -9.25 17.9
    endloop
  endfacet
  facet normal -1 -0 0
    outer loop
      vertex -52.0115 -2.71629 10.9
      vertex -52.0115 -10.7 0
      vertex -52.0115 -9.25 10.9
    endloop
  endfacet
  facet normal -1 0 0
    outer loop
      vertex -52.0115 -2.71629 17.9
      vertex -52.0115 6.7 29
      vertex -52.0115 6.7 0
    endloop
  endfacet
  facet normal -1 0 0
    outer loop
      vertex -52.0115 -10.7 29
      vertex -52.0115 -2.71629 17.9
      vertex -52.0115 -9.25 17.9
    endloop
  endfacet
  facet normal -1 0 0
    outer loop
      vertex -52.0115 -2.71629 17.9
      vertex -52.0115 -10.7 29
      vertex -52.0115 6.7 29
    endloop
  endfacet
  facet normal -1 0 0
    outer loop
      vertex -52.0115 -10.7 29
      vertex -52.0115 -9.25 17.9
      vertex -52.0115 -10.7 0
    endloop
  endfacet
  facet normal 1 0 0
    outer loop
      vertex -48.6285 -3.9476 10.9
      vertex -48.6285 -4.65 1.4
      vertex -48.6285 -3.9476 1.4
    endloop
  endfacet
  facet normal 1 0 0
    outer loop
      vertex -48.6285 -10.6 0
      vertex -48.6285 -4.65 1.4
      vertex -48.6285 -10.3327 10.9
    endloop
  endfacet
  facet normal 1 -0 0
    outer loop
      vertex -48.6285 -10.3327 10.9
      vertex -48.6285 -4.65 1.4
      vertex -48.6285 -3.9476 10.9
    endloop
  endfacet
  facet normal 1 0 0
    outer loop
      vertex -48.6285 6.6 29
      vertex -48.6285 0.65 27.4
      vertex -48.6285 6.59999 0
    endloop
  endfacet
  facet normal 1 0 0
    outer loop
      vertex -48.6285 6.6 29
      vertex -48.6285 -0.75 27.4
      vertex -48.6285 0.65 27.4
    endloop
  endfacet
  facet normal 1 -0 0
    outer loop
      vertex -48.6285 -10.6 29
      vertex -48.6285 -0.75 27.4
      vertex -48.6285 6.6 29
    endloop
  endfacet
  facet normal 1 0 0
    outer loop
      vertex -48.6285 -3.9476 27.4
      vertex -48.6285 -10.3327 17.9
      vertex -48.6285 -3.9476 17.9
    endloop
  endfacet
  facet normal 1 0 0
    outer loop
      vertex -48.6285 -10.3327 17.9
      vertex -48.6285 -10.6 0
      vertex -48.6285 -10.3327 10.9
    endloop
  endfacet
  facet normal 1 0 0
    outer loop
      vertex -48.6285 -10.3327 17.9
      vertex -48.6285 -10.6 29
      vertex -48.6285 -10.6 0
    endloop
  endfacet
  facet normal 1 0 0
    outer loop
      vertex -48.6285 -3.9476 27.4
      vertex -48.6285 -10.6 29
      vertex -48.6285 -10.3327 17.9
    endloop
  endfacet
  facet normal 1 0 0
    outer loop
      vertex -48.6285 -0.75 27.4
      vertex -48.6285 -10.6 29
      vertex -48.6285 -3.9476 27.4
    endloop
  endfacet
  facet normal 1 -0 0
    outer loop
      vertex -48.6285 0.65 3.8147e-07
      vertex -48.6285 6.59999 0
      vertex -48.6285 0.65 27.4
    endloop
  endfacet
  facet normal 1 -0 0
    outer loop
      vertex -48.6285 -4.65 3.8147e-07
      vertex -48.6285 6.59999 0
      vertex -48.6285 0.65 3.8147e-07
    endloop
  endfacet
  facet normal 1 0 0
    outer loop
      vertex -48.6285 -4.65 3.8147e-07
      vertex -48.6285 -10.6 0
      vertex -48.6285 6.59999 0
    endloop
  endfacet
  facet normal 1 0 0
    outer loop
      vertex -48.6285 -4.65 1.4
      vertex -48.6285 -10.6 0
      vertex -48.6285 -4.65 3.8147e-07
    endloop
  endfacet
  facet normal 0.987286 0.158955 0
    outer loop
      vertex -47.6348 -20 29
      vertex -48.1308 -16.9193 0
      vertex -48.1308 -16.9193 29
    endloop
  endfacet
  facet normal 0.987286 0.158955 0
    outer loop
      vertex -48.1308 -16.9193 0
      vertex -47.6348 -20 29
      vertex -47.6348 -20 0
    endloop
  endfacet
  facet normal -0.987282 -0.158978 2.92502e-06
    outer loop
      vertex -51.0886 -20 0
      vertex -51.4491 -17.7607 29
      vertex -51.4583 -17.7041 0
    endloop
  endfacet
  facet normal -0.987288 -0.158941 0
    outer loop
      vertex -51.4491 -17.7607 29
      vertex -51.0886 -20 0
      vertex -51.0886 -20 29
    endloop
  endfacet
  facet normal -0.969965 0.243245 -1.56345e-06
    outer loop
      vertex -48.778 30.3524 0
      vertex -48.3356 32.1167 29
      vertex -47.4717 35.5614 0
    endloop
  endfacet
  facet normal -0.969971 0.243221 0
    outer loop
      vertex -48.3356 32.1167 29
      vertex -48.778 30.3524 0
      vertex -48.778 30.3524 29
    endloop
  endfacet
  facet normal -0.96996 0.243266 -3.34469e-06
    outer loop
      vertex -47.4717 35.5614 0
      vertex -47.1739 36.7492 29
      vertex -47.1738 36.7492 0
    endloop
  endfacet
  facet normal -0.969966 0.24324 -2.22928e-06
    outer loop
      vertex -47.1739 36.7492 29
      vertex -47.4717 35.5614 0
      vertex -48.3356 32.1167 29
    endloop
  endfacet
  facet normal 0.96997 -0.243226 -4.28032e-07
    outer loop
      vertex -45.4782 29.3955 29
      vertex -45.2254 30.4037 0
      vertex -44.4922 33.3276 29
    endloop
  endfacet
  facet normal 0.969972 -0.243215 0
    outer loop
      vertex -45.2254 30.4037 0
      vertex -45.4782 29.3955 29
      vertex -45.4782 29.3955 0
    endloop
  endfacet
  facet normal 0.969964 -0.243249 0
    outer loop
      vertex -44.4922 33.3276 29
      vertex -44.0269 35.183 0
      vertex -44.0269 35.183 29
    endloop
  endfacet
  facet normal 0.969967 -0.243238 7.79544e-07
    outer loop
      vertex -44.0269 35.183 0
      vertex -44.4922 33.3276 29
      vertex -45.2254 30.4037 0
    endloop
  endfacet
  facet normal 0.996912 -0.0785306 0
    outer loop
      vertex -48.1308 12.9193 29
      vertex -48.23 11.66 0
      vertex -48.1308 12.9193 0
    endloop
  endfacet
  facet normal 0.996913 -0.0785115 -8.37049e-07
    outer loop
      vertex -48.23 11.66 0
      vertex -48.1308 12.9193 29
      vertex -48.5176 8.00784 29
    endloop
  endfacet
  facet normal -0.996912 0.0785332 -2.70804e-07
    outer loop
      vertex -51.5742 12.2526 0
      vertex -51.4614 13.6846 29
      vertex -51.4614 13.6845 0
    endloop
  endfacet
  facet normal -0.996912 0.0785271 3.04823e-08
    outer loop
      vertex -51.4614 13.6846 29
      vertex -51.5742 12.2526 0
      vertex -51.9013 8.10001 29
    endloop
  endfacet
  facet normal 0.996912 -0.0785299 2.70793e-08
    outer loop
      vertex -48.6285 6.59999 0
      vertex -48.5176 8.00784 29
      vertex -48.6285 6.6 29
    endloop
  endfacet
  facet normal 0.996913 -0.0785117 -8.62015e-07
    outer loop
      vertex -48.5176 8.00784 29
      vertex -48.6285 6.59999 0
      vertex -48.23 11.66 0
    endloop
  endfacet
  facet normal -0.987301 0.158861 -3.62179e-07
    outer loop
      vertex -51.4583 13.7038 0
      vertex -51.4614 13.6846 29
      vertex -51.4493 13.7598 29
    endloop
  endfacet
  facet normal -0.987345 0.158589 -5.46859e-07
    outer loop
      vertex -51.4614 13.6846 29
      vertex -51.4583 13.7038 0
      vertex -51.4614 13.6845 0
    endloop
  endfacet
  facet normal -0.976187 0.21693 -0.000113701
    outer loop
      vertex -51.4583 13.7041 0
      vertex -51.4493 13.7598 29
      vertex -51.4491 13.7607 29
    endloop
  endfacet
  facet normal -1 0 0.000310345
    outer loop
      vertex -51.4493 13.7598 29
      vertex -51.4583 13.7041 0
      vertex -51.4583 13.7038 0
    endloop
  endfacet
  facet normal -0.996913 0.0785128 -2.02975e-06
    outer loop
      vertex -52.0115 6.7 0
      vertex -51.9013 8.10001 29
      vertex -51.5742 12.2526 0
    endloop
  endfacet
  facet normal -0.996916 0.078471 0
    outer loop
      vertex -51.9013 8.10001 29
      vertex -52.0115 6.7 0
      vertex -52.0115 6.7 29
    endloop
  endfacet
  facet normal -0.996916 -0.0784716 0
    outer loop
      vertex -52.0115 -10.7 0
      vertex -51.9013 -12.1 29
      vertex -52.0115 -10.7 29
    endloop
  endfacet
  facet normal -0.996913 -0.0785128 -2.00267e-06
    outer loop
      vertex -51.9013 -12.1 29
      vertex -52.0115 -10.7 0
      vertex -51.5742 -16.2526 0
    endloop
  endfacet
  facet normal -1 0 0.000310345
    outer loop
      vertex -51.4583 -17.7041 0
      vertex -51.4493 -17.7598 29
      vertex -51.4583 -17.7038 0
    endloop
  endfacet
  facet normal -0.976187 -0.21693 -0.000113701
    outer loop
      vertex -51.4493 -17.7598 29
      vertex -51.4583 -17.7041 0
      vertex -51.4491 -17.7607 29
    endloop
  endfacet
  facet normal 0.996912 0.0785321 0
    outer loop
      vertex -48.5176 -12.0078 29
      vertex -48.6285 -10.6 0
      vertex -48.6285 -10.6 29
    endloop
  endfacet
  facet normal 0.996913 0.0785118 -9.89848e-07
    outer loop
      vertex -48.6285 -10.6 0
      vertex -48.5176 -12.0078 29
      vertex -48.23 -15.66 0
    endloop
  endfacet
  facet normal -0.987345 -0.158589 0
    outer loop
      vertex -51.4583 -17.7038 0
      vertex -51.4614 -17.6845 29
      vertex -51.4614 -17.6845 0
    endloop
  endfacet
  facet normal -0.987334 -0.158655 4.52138e-08
    outer loop
      vertex -51.4614 -17.6845 29
      vertex -51.4583 -17.7038 0
      vertex -51.4493 -17.7598 29
    endloop
  endfacet
  facet normal 0.996913 0.0785109 -8.64815e-07
    outer loop
      vertex -48.1308 -16.9193 29
      vertex -48.23 -15.66 0
      vertex -48.5176 -12.0078 29
    endloop
  endfacet
  facet normal 0.996912 0.0785306 0
    outer loop
      vertex -48.23 -15.66 0
      vertex -48.1308 -16.9193 29
      vertex -48.1308 -16.9193 0
    endloop
  endfacet
  facet normal -0.996912 -0.0785332 -0
    outer loop
      vertex -51.4614 -17.6845 29
      vertex -51.5742 -16.2526 0
      vertex -51.4614 -17.6845 0
    endloop
  endfacet
  facet normal -0.996912 -0.0785283 2.38778e-07
    outer loop
      vertex -51.5742 -16.2526 0
      vertex -51.4614 -17.6845 29
      vertex -51.9013 -12.1 29
    endloop
  endfacet
  facet normal -0.941907 0.335874 0
    outer loop
      vertex -42.0375 51.2693 0
      vertex -42.0329 51.2822 29
      vertex -42.0329 51.2822 0
    endloop
  endfacet
  facet normal -0.942542 0.334089 8.94594e-07
    outer loop
      vertex -42.0329 51.2822 29
      vertex -42.0375 51.2693 0
      vertex -42.0508 51.2317 29
    endloop
  endfacet
  facet normal -0.591404 0.806375 0
    outer loop
      vertex -38.1844 54.1047 7.62939e-07
      vertex -38.1844 54.1047 0
      vertex -40.8503 52.1495 7.62939e-07
    endloop
  endfacet
  facet normal -0.591404 0.806375 7.57776e-07
    outer loop
      vertex -40.8503 52.1495 20.7
      vertex -40.2344 52.6012 29
      vertex -39.6477 53.0315 20.7
    endloop
  endfacet
  facet normal -0.591393 0.806384 -5.59105e-07
    outer loop
      vertex -40.2344 52.6012 29
      vertex -40.8503 52.1495 20.7
      vertex -42.0329 51.2822 29
    endloop
  endfacet
  facet normal -0.59139 0.806385 0
    outer loop
      vertex -42.0329 51.2822 0
      vertex -40.8503 52.1495 20.7
      vertex -40.8503 52.1495 7.62939e-07
    endloop
  endfacet
  facet normal -0.59139 0.806385 0
    outer loop
      vertex -40.8503 52.1495 20.7
      vertex -42.0329 51.2822 0
      vertex -42.0329 51.2822 29
    endloop
  endfacet
  facet normal -0.0254754 0.0347359 0.999072
    outer loop
      vertex -42.0329 51.2822 0
      vertex -40.8503 52.1495 7.62939e-07
      vertex -38.1844 54.1047 0
    endloop
  endfacet
  facet normal 0.591409 -0.806372 0
    outer loop
      vertex -38.5958 49.8051 0
      vertex -36.6673 51.2195 7.62939e-07
      vertex -38.5958 49.8051 7.62939e-07
    endloop
  endfacet
  facet normal 0.591409 -0.806372 0
    outer loop
      vertex -36.6673 51.2195 7.62939e-07
      vertex -38.5958 49.8051 0
      vertex -36.6673 51.2195 0
    endloop
  endfacet
  facet normal 0.591384 -0.80639 -1.01579e-05
    outer loop
      vertex -36.6673 51.2195 20.7
      vertex -37.5832 50.5477 29
      vertex -37.8731 50.3352 20.7
    endloop
  endfacet
  facet normal 0.591444 -0.806346 0
    outer loop
      vertex -37.5832 50.5477 29
      vertex -36.6673 51.2195 20.7
      vertex -36.6673 51.2195 29
    endloop
  endfacet
  facet normal -0.591393 0.806384 -9.67016e-06
    outer loop
      vertex -39.6477 53.0315 20.7
      vertex -37.4775 54.6232 29
      vertex -37.8462 54.3527 20.7
    endloop
  endfacet
  facet normal -0.591534 0.80628 0
    outer loop
      vertex -37.4775 54.6232 0
      vertex -37.8462 54.3527 20.7
      vertex -37.4775 54.6232 29
    endloop
  endfacet
  facet normal -0.591534 0.80628 0
    outer loop
      vertex -37.8462 54.3527 20.7
      vertex -37.4775 54.6232 0
      vertex -37.8462 54.3527 7.62939e-07
    endloop
  endfacet
  facet normal -0.00869321 0.0118519 0.999892
    outer loop
      vertex -38.1844 54.1047 0
      vertex -37.8462 54.3527 7.62939e-07
      vertex -37.4775 54.6232 0
    endloop
  endfacet
  facet normal -0.591343 0.80642 0
    outer loop
      vertex -37.8462 54.3527 7.62939e-07
      vertex -38.1844 54.1047 0
      vertex -38.1844 54.1047 7.62939e-07
    endloop
  endfacet
  facet normal -0.591416 0.806367 -4.69747e-07
    outer loop
      vertex -37.4775 54.6232 29
      vertex -39.6477 53.0315 20.7
      vertex -40.2344 52.6012 29
    endloop
  endfacet
  facet normal -1 0 -0.000458621
    outer loop
      vertex -42.0375 51.2691 0
      vertex -42.0508 51.2317 29
      vertex -42.0375 51.2693 0
    endloop
  endfacet
  facet normal -0.970142 0.242536 -0.00013214
    outer loop
      vertex -42.0508 51.2317 29
      vertex -42.0375 51.2691 0
      vertex -42.051 51.2309 29
    endloop
  endfacet
  facet normal 0.591394 -0.806383 0
    outer loop
      vertex -38.945 49.549 0
      vertex -38.5958 49.8051 7.62939e-07
      vertex -38.945 49.549 7.62939e-07
    endloop
  endfacet
  facet normal 0.591394 -0.806383 0
    outer loop
      vertex -38.5958 49.8051 7.62939e-07
      vertex -38.945 49.549 0
      vertex -38.5958 49.8051 0
    endloop
  endfacet
  facet normal 0.591432 -0.806355 0
    outer loop
      vertex -37.8731 50.3352 20.7
      vertex -38.945 49.549 29
      vertex -38.945 49.549 20.7
    endloop
  endfacet
  facet normal 0.591382 -0.806392 -1.0033e-05
    outer loop
      vertex -38.945 49.549 29
      vertex -37.8731 50.3352 20.7
      vertex -37.5832 50.5477 29
    endloop
  endfacet
  facet normal 0 0 -1
    outer loop
      vertex -51.5742 -16.2526 0
      vertex -48.23 -15.66 0
      vertex -48.1308 -16.9193 0
    endloop
  endfacet
  facet normal 0 0 -1
    outer loop
      vertex -52.0115 6.7 0
      vertex -48.6285 6.59999 0
      vertex -48.6285 -10.6 0
    endloop
  endfacet
  facet normal 0 0 -1
    outer loop
      vertex -48.6285 6.59999 0
      vertex -48.7906 30.2744 0
      vertex -48.778 30.3524 0
    endloop
  endfacet
  facet normal 0 0 -1
    outer loop
      vertex -48.6285 6.59999 0
      vertex -50.9631 16.7796 0
      vertex -48.7906 30.2744 0
    endloop
  endfacet
  facet normal 0 0 -1
    outer loop
      vertex -52.0115 -10.7 0
      vertex -48.23 -15.66 0
      vertex -51.5742 -16.2526 0
    endloop
  endfacet
  facet normal 0 0 -1
    outer loop
      vertex -51.0886 -20 0
      vertex -48.1308 -16.9193 0
      vertex -47.6348 -20 0
    endloop
  endfacet
  facet normal 0 0 -1
    outer loop
      vertex -51.4583 -17.7041 0
      vertex -48.1308 -16.9193 0
      vertex -51.0886 -20 0
    endloop
  endfacet
  facet normal 0 0 -1
    outer loop
      vertex -51.4583 -17.7038 0
      vertex -48.1308 -16.9193 0
      vertex -51.4583 -17.7041 0
    endloop
  endfacet
  facet normal 0 0 -1
    outer loop
      vertex -48.23 -15.66 0
      vertex -52.0115 -10.7 0
      vertex -48.6285 -10.6 0
    endloop
  endfacet
  facet normal 0 0 -1
    outer loop
      vertex -51.4614 -17.6845 0
      vertex -48.1308 -16.9193 0
      vertex -51.4583 -17.7038 0
    endloop
  endfacet
  facet normal -0 0 -1
    outer loop
      vertex -48.6285 -10.6 0
      vertex -52.0115 -10.7 0
      vertex -52.0115 6.7 0
    endloop
  endfacet
  facet normal -0 0 -1
    outer loop
      vertex -48.1308 -16.9193 0
      vertex -51.4614 -17.6845 0
      vertex -51.5742 -16.2526 0
    endloop
  endfacet
  facet normal 0 0 -1
    outer loop
      vertex -48.6285 6.59999 0
      vertex -51.4583 13.7041 0
      vertex -50.9631 16.7796 0
    endloop
  endfacet
  facet normal 0 0 -1
    outer loop
      vertex -48.6285 6.59999 0
      vertex -51.4583 13.7038 0
      vertex -51.4583 13.7041 0
    endloop
  endfacet
  facet normal 0 0 -1
    outer loop
      vertex -48.6285 6.59999 0
      vertex -51.4614 13.6845 0
      vertex -51.4583 13.7038 0
    endloop
  endfacet
  facet normal 0 0 -1
    outer loop
      vertex -48.6285 6.59999 0
      vertex -52.0115 6.7 0
      vertex -51.5742 12.2526 0
    endloop
  endfacet
  facet normal 0 -0 -1
    outer loop
      vertex -51.4614 13.6845 0
      vertex -48.6285 6.59999 0
      vertex -51.5742 12.2526 0
    endloop
  endfacet
  facet normal 0 0 -1
    outer loop
      vertex -20.8815 53.159 0
      vertex -20 56.5476 0
      vertex -20 53.159 0
    endloop
  endfacet
  facet normal 0 0 -1
    outer loop
      vertex -22.8868 54.6232 0
      vertex -20.8815 53.159 0
      vertex -21.0952 52.8123 0
    endloop
  endfacet
  facet normal 0 -0 -1
    outer loop
      vertex -21.5942 56.5476 0
      vertex -20.8815 53.159 0
      vertex -22.641 54.9941 0
    endloop
  endfacet
  facet normal 0 0 -1
    outer loop
      vertex -20.8815 53.159 0
      vertex -21.5942 56.5476 0
      vertex -20 56.5476 0
    endloop
  endfacet
  facet normal 0 0 -1
    outer loop
      vertex -22.0917 51.2195 0
      vertex -21.0952 52.8123 0
      vertex -22.0766 51.2195 0
    endloop
  endfacet
  facet normal -0 0 -1
    outer loop
      vertex -21.0952 52.8123 0
      vertex -22.0917 51.2195 0
      vertex -22.8868 54.6232 0
    endloop
  endfacet
  facet normal -0 0 -1
    outer loop
      vertex -21.5942 56.5476 0
      vertex -22.641 54.9941 0
      vertex -21.6113 56.5476 0
    endloop
  endfacet
  facet normal 0 0 -1
    outer loop
      vertex -20.8815 53.159 0
      vertex -22.8868 54.6232 0
      vertex -22.641 54.9941 0
    endloop
  endfacet
  facet normal 0 0 -1
    outer loop
      vertex -24.3242 51.2195 0
      vertex -22.8868 54.6232 0
      vertex -22.0917 51.2195 0
    endloop
  endfacet
  facet normal 0 0 -1
    outer loop
      vertex -24.3242 51.2195 0
      vertex -34.7994 54.6232 0
      vertex -22.8868 54.6232 0
    endloop
  endfacet
  facet normal 0 0 -1
    outer loop
      vertex -36.6673 51.2195 0
      vertex -34.7994 54.6232 0
      vertex -24.3242 51.2195 0
    endloop
  endfacet
  facet normal 0 0 -1
    outer loop
      vertex -36.6673 51.2195 0
      vertex -37.4643 54.6232 0
      vertex -34.7994 54.6232 0
    endloop
  endfacet
  facet normal 0 0 -1
    outer loop
      vertex -38.1844 54.1047 0
      vertex -37.4643 54.6232 0
      vertex -36.6673 51.2195 0
    endloop
  endfacet
  facet normal -0 0 -1
    outer loop
      vertex -37.4643 54.6232 0
      vertex -38.1844 54.1047 0
      vertex -37.4775 54.6232 0
    endloop
  endfacet
  facet normal 0 0 -1
    outer loop
      vertex -38.5958 49.8051 0
      vertex -38.1844 54.1047 0
      vertex -36.6673 51.2195 0
    endloop
  endfacet
  facet normal 0 0 -1
    outer loop
      vertex -42.0329 51.2822 0
      vertex -38.5958 49.8051 0
      vertex -38.945 49.549 0
    endloop
  endfacet
  facet normal 0 0 -1
    outer loop
      vertex -42.9449 48.7041 0
      vertex -38.945 49.549 0
      vertex -39.8361 47.03 0
    endloop
  endfacet
  facet normal 0 0 -1
    outer loop
      vertex -38.5958 49.8051 0
      vertex -42.0329 51.2822 0
      vertex -38.1844 54.1047 0
    endloop
  endfacet
  facet normal 0 0 -1
    outer loop
      vertex -38.945 49.549 0
      vertex -42.0375 51.2693 0
      vertex -42.0329 51.2822 0
    endloop
  endfacet
  facet normal 0 0 -1
    outer loop
      vertex -38.945 49.549 0
      vertex -42.0375 51.2691 0
      vertex -42.0375 51.2693 0
    endloop
  endfacet
  facet normal -0 0 -1
    outer loop
      vertex -38.945 49.549 0
      vertex -42.9449 48.7041 0
      vertex -42.0375 51.2691 0
    endloop
  endfacet
  facet normal 0 0 -1
    outer loop
      vertex -47.1495 36.8179 0
      vertex -39.8361 47.03 0
      vertex -44.0269 35.183 0
    endloop
  endfacet
  facet normal 0 0 -1
    outer loop
      vertex -47.4717 35.5614 0
      vertex -44.0269 35.183 0
      vertex -45.2254 30.4037 0
    endloop
  endfacet
  facet normal 0 0 -1
    outer loop
      vertex -48.778 30.3524 0
      vertex -45.2254 30.4037 0
      vertex -45.4782 29.3955 0
    endloop
  endfacet
  facet normal 0 0 -1
    outer loop
      vertex -48.778 30.3524 0
      vertex -45.4782 29.3955 0
      vertex -46.002 26.1423 0
    endloop
  endfacet
  facet normal -0 0 -1
    outer loop
      vertex -39.8361 47.03 0
      vertex -47.1495 36.8179 0
      vertex -42.9449 48.7041 0
    endloop
  endfacet
  facet normal 0 0 -1
    outer loop
      vertex -44.0269 35.183 0
      vertex -47.4717 35.5614 0
      vertex -47.1738 36.7492 0
    endloop
  endfacet
  facet normal 0 0 -1
    outer loop
      vertex -44.0269 35.183 0
      vertex -47.1738 36.7492 0
      vertex -47.1495 36.8179 0
    endloop
  endfacet
  facet normal 0 0 -1
    outer loop
      vertex -48.778 30.3524 0
      vertex -46.002 26.1423 0
      vertex -48.1308 12.9193 0
    endloop
  endfacet
  facet normal 0 0 -1
    outer loop
      vertex -48.778 30.3524 0
      vertex -48.1308 12.9193 0
      vertex -48.23 11.66 0
    endloop
  endfacet
  facet normal 0 0 -1
    outer loop
      vertex -48.778 30.3524 0
      vertex -48.23 11.66 0
      vertex -48.6285 6.59999 0
    endloop
  endfacet
  facet normal -0 0 -1
    outer loop
      vertex -45.2254 30.4037 0
      vertex -48.778 30.3524 0
      vertex -47.4717 35.5614 0
    endloop
  endfacet
  facet normal 1 -0 0
    outer loop
      vertex -20 53.159 29
      vertex -20 56.5476 0
      vertex -20 56.5476 29
    endloop
  endfacet
  facet normal 1 0 0
    outer loop
      vertex -20 56.5476 0
      vertex -20 53.159 29
      vertex -20 53.159 0
    endloop
  endfacet
  facet normal 0 0 1
    outer loop
      vertex -20 56.5476 29
      vertex -20.8815 53.159 29
      vertex -20 53.159 29
    endloop
  endfacet
  facet normal 0 0 1
    outer loop
      vertex -21.9281 56.0696 29
      vertex -20 56.5476 29
      vertex -21.5446 56.5476 29
    endloop
  endfacet
  facet normal 0 0 1
    outer loop
      vertex -21.9281 56.0696 29
      vertex -21.5446 56.5476 29
      vertex -21.6113 56.5476 29
    endloop
  endfacet
  facet normal 0 0 1
    outer loop
      vertex -20 56.5476 29
      vertex -21.9281 56.0696 29
      vertex -20.8815 53.159 29
    endloop
  endfacet
  facet normal -0 0 1
    outer loop
      vertex -22.8868 54.6232 29
      vertex -20.8815 53.159 29
      vertex -21.9281 56.0696 29
    endloop
  endfacet
  facet normal 0 0 1
    outer loop
      vertex -20.8815 53.159 29
      vertex -22.8868 54.6232 29
      vertex -21.7148 51.8068 29
    endloop
  endfacet
  facet normal 0 -0 1
    outer loop
      vertex -22.1354 51.2195 29
      vertex -21.7148 51.8068 29
      vertex -22.8868 54.6232 29
    endloop
  endfacet
  facet normal 0 0 1
    outer loop
      vertex -21.7148 51.8068 29
      vertex -22.1354 51.2195 29
      vertex -22.0766 51.2195 29
    endloop
  endfacet
  facet normal -0 0 1
    outer loop
      vertex -27.0331 54.6232 29
      vertex -22.1354 51.2195 29
      vertex -22.8868 54.6232 29
    endloop
  endfacet
  facet normal 0 0 1
    outer loop
      vertex -27.0331 54.6232 29
      vertex -30.843 51.2195 29
      vertex -22.1354 51.2195 29
    endloop
  endfacet
  facet normal -0 0 1
    outer loop
      vertex -37.4261 54.6232 29
      vertex -30.843 51.2195 29
      vertex -27.0331 54.6232 29
    endloop
  endfacet
  facet normal 0 0 1
    outer loop
      vertex -30.843 51.2195 29
      vertex -37.4261 54.6232 29
      vertex -36.6673 51.2195 29
    endloop
  endfacet
  facet normal -0 0 1
    outer loop
      vertex -37.4775 54.6232 29
      vertex -36.6673 51.2195 29
      vertex -37.4261 54.6232 29
    endloop
  endfacet
  facet normal -0 0 1
    outer loop
      vertex -40.2344 52.6012 29
      vertex -36.6673 51.2195 29
      vertex -37.4775 54.6232 29
    endloop
  endfacet
  facet normal 0 0 1
    outer loop
      vertex -36.6673 51.2195 29
      vertex -40.2344 52.6012 29
      vertex -37.5832 50.5477 29
    endloop
  endfacet
  facet normal 0 0 1
    outer loop
      vertex -37.5832 50.5477 29
      vertex -40.2344 52.6012 29
      vertex -38.945 49.549 29
    endloop
  endfacet
  facet normal -0 0 1
    outer loop
      vertex -42.0329 51.2822 29
      vertex -38.945 49.549 29
      vertex -40.2344 52.6012 29
    endloop
  endfacet
  facet normal -0 0 1
    outer loop
      vertex -42.0508 51.2317 29
      vertex -38.945 49.549 29
      vertex -42.0329 51.2822 29
    endloop
  endfacet
  facet normal -0 0 1
    outer loop
      vertex -42.051 51.2309 29
      vertex -38.945 49.549 29
      vertex -42.0508 51.2317 29
    endloop
  endfacet
  facet normal 0 0 1
    outer loop
      vertex -45.5896 41.2276 29
      vertex -38.945 49.549 29
      vertex -42.051 51.2309 29
    endloop
  endfacet
  facet normal 0 0 1
    outer loop
      vertex -38.945 49.549 29
      vertex -45.5896 41.2276 29
      vertex -42.4206 39.7239 29
    endloop
  endfacet
  facet normal 0 0 1
    outer loop
      vertex -47.1647 36.7749 29
      vertex -42.4206 39.7239 29
      vertex -45.5896 41.2276 29
    endloop
  endfacet
  facet normal 0 0 1
    outer loop
      vertex -42.4206 39.7239 29
      vertex -47.1647 36.7749 29
      vertex -44.0269 35.183 29
    endloop
  endfacet
  facet normal -0 0 1
    outer loop
      vertex -47.1739 36.7492 29
      vertex -44.0269 35.183 29
      vertex -47.1647 36.7749 29
    endloop
  endfacet
  facet normal 0 0 1
    outer loop
      vertex -44.0269 35.183 29
      vertex -47.1739 36.7492 29
      vertex -44.4922 33.3276 29
    endloop
  endfacet
  facet normal 0 0 1
    outer loop
      vertex -48.3356 32.1167 29
      vertex -44.4922 33.3276 29
      vertex -47.1739 36.7492 29
    endloop
  endfacet
  facet normal 0 0 1
    outer loop
      vertex -44.4922 33.3276 29
      vertex -48.3356 32.1167 29
      vertex -45.4782 29.3955 29
    endloop
  endfacet
  facet normal -0 0 1
    outer loop
      vertex -48.778 30.3524 29
      vertex -45.4782 29.3955 29
      vertex -48.3356 32.1167 29
    endloop
  endfacet
  facet normal 0 0 1
    outer loop
      vertex -49.5181 25.7554 29
      vertex -45.4782 29.3955 29
      vertex -48.7822 30.326 29
    endloop
  endfacet
  facet normal 0 0 1
    outer loop
      vertex -45.4782 29.3955 29
      vertex -49.5181 25.7554 29
      vertex -47.521 16.7069 29
    endloop
  endfacet
  facet normal 0 0 1
    outer loop
      vertex -47.521 16.7069 29
      vertex -51.4491 13.7607 29
      vertex -48.1308 12.9193 29
    endloop
  endfacet
  facet normal 0 0 1
    outer loop
      vertex -51.4491 13.7607 29
      vertex -47.521 16.7069 29
      vertex -49.5181 25.7554 29
    endloop
  endfacet
  facet normal 0 0 1
    outer loop
      vertex -45.4782 29.3955 29
      vertex -48.778 30.3524 29
      vertex -48.7822 30.326 29
    endloop
  endfacet
  facet normal 0 0 1
    outer loop
      vertex -51.9013 -12.1 29
      vertex -48.5176 -12.0078 29
      vertex -48.6285 -10.6 29
    endloop
  endfacet
  facet normal -0 0 1
    outer loop
      vertex -51.4493 13.7598 29
      vertex -48.1308 12.9193 29
      vertex -51.4491 13.7607 29
    endloop
  endfacet
  facet normal -0 0 1
    outer loop
      vertex -51.4614 13.6846 29
      vertex -48.1308 12.9193 29
      vertex -51.4493 13.7598 29
    endloop
  endfacet
  facet normal 0 0 1
    outer loop
      vertex -48.1308 -16.9193 29
      vertex -51.0886 -20 29
      vertex -47.6348 -20 29
    endloop
  endfacet
  facet normal 0 0 1
    outer loop
      vertex -48.5176 -12.0078 29
      vertex -51.9013 -12.1 29
      vertex -48.1308 -16.9193 29
    endloop
  endfacet
  facet normal 0 0 1
    outer loop
      vertex -51.9013 8.10001 29
      vertex -48.1308 12.9193 29
      vertex -51.4614 13.6846 29
    endloop
  endfacet
  facet normal -0 0 1
    outer loop
      vertex -52.0115 6.7 29
      vertex -48.6285 6.6 29
      vertex -51.9013 8.10001 29
    endloop
  endfacet
  facet normal 0 0 1
    outer loop
      vertex -48.6285 6.6 29
      vertex -52.0115 6.7 29
      vertex -48.6285 -10.6 29
    endloop
  endfacet
  facet normal 0 0 1
    outer loop
      vertex -48.1308 12.9193 29
      vertex -51.9013 8.10001 29
      vertex -48.5176 8.00784 29
    endloop
  endfacet
  facet normal 0 0 1
    outer loop
      vertex -48.1308 -16.9193 29
      vertex -51.9013 -12.1 29
      vertex -51.4614 -17.6845 29
    endloop
  endfacet
  facet normal 0 0 1
    outer loop
      vertex -48.5176 8.00784 29
      vertex -51.9013 8.10001 29
      vertex -48.6285 6.6 29
    endloop
  endfacet
  facet normal 0 0 1
    outer loop
      vertex -48.1308 -16.9193 29
      vertex -51.4491 -17.7607 29
      vertex -51.0886 -20 29
    endloop
  endfacet
  facet normal 0 0 1
    outer loop
      vertex -48.1308 -16.9193 29
      vertex -51.4493 -17.7598 29
      vertex -51.4491 -17.7607 29
    endloop
  endfacet
  facet normal 0 0 1
    outer loop
      vertex -48.1308 -16.9193 29
      vertex -51.4614 -17.6845 29
      vertex -51.4493 -17.7598 29
    endloop
  endfacet
  facet normal 0 0 1
    outer loop
      vertex -52.0115 -10.7 29
      vertex -48.6285 -10.6 29
      vertex -52.0115 6.7 29
    endloop
  endfacet
  facet normal 0 0 1
    outer loop
      vertex -48.6285 -10.6 29
      vertex -52.0115 -10.7 29
      vertex -51.9013 -12.1 29
    endloop
  endfacet
  facet normal 0 -1 0
    outer loop
      vertex -51.0886 -20 0
      vertex -47.6348 -20 29
      vertex -51.0886 -20 29
    endloop
  endfacet
  facet normal 0 -1 -0
    outer loop
      vertex -47.6348 -20 29
      vertex -51.0886 -20 0
      vertex -47.6348 -20 0
    endloop
  endfacet
endsolid OpenSCAD_Model
